<?xml version="1.0" encoding="utf-8" standalone="no"?>
<!DOCTYPE svg PUBLIC "-//W3C//DTD SVG 1.1//EN"
  "http://www.w3.org/Graphics/SVG/1.1/DTD/svg11.dtd">
<svg xmlns:xlink="http://www.w3.org/1999/xlink" width="465.70125pt" height="387.310125pt" viewBox="0 0 465.70125 387.310125" xmlns="http://www.w3.org/2000/svg" version="1.1">
 <metadata>
  <rdf:RDF xmlns:dc="http://purl.org/dc/elements/1.1/" xmlns:cc="http://creativecommons.org/ns#" xmlns:rdf="http://www.w3.org/1999/02/22-rdf-syntax-ns#">
   <cc:Work>
    <dc:type rdf:resource="http://purl.org/dc/dcmitype/StillImage"/>
    <dc:date>2025-05-12T17:02:19.011993</dc:date>
    <dc:format>image/svg+xml</dc:format>
    <dc:creator>
     <cc:Agent>
      <dc:title>Matplotlib v3.10.1, https://matplotlib.org/</dc:title>
     </cc:Agent>
    </dc:creator>
   </cc:Work>
  </rdf:RDF>
 </metadata>
 <defs>
  <style type="text/css">*{stroke-linejoin: round; stroke-linecap: butt}</style>
 </defs>
 <g id="figure_1">
  <g id="patch_1">
   <path d="M 0 387.310125 
L 465.70125 387.310125 
L 465.70125 0 
L 0 0 
z
" style="fill: #ffffff"/>
  </g>
  <g id="axes_1">
   <g id="patch_2">
    <path d="M 72.58125 317.232 
L 429.70125 317.232 
L 429.70125 51.12 
L 72.58125 51.12 
z
" style="fill: #ffffff"/>
   </g>
   <g id="matplotlib.axis_1">
    <g id="xtick_1">
     <g id="line2d_1">
      <defs>
       <path id="m4c89a28772" d="M 0 0 
L 0 3.5 
" style="stroke: #000000; stroke-width: 0.8"/>
      </defs>
      <g>
       <use xlink:href="#m4c89a28772" x="72.58125" y="317.232" style="stroke: #000000; stroke-width: 0.8"/>
      </g>
     </g>
     <g id="text_1">
      <!-- 0 -->
      <g transform="translate(69.4 331.830437) scale(0.1 -0.1)">
       <defs>
        <path id="DejaVuSans-30" d="M 2034 4250 
Q 1547 4250 1301 3770 
Q 1056 3291 1056 2328 
Q 1056 1369 1301 889 
Q 1547 409 2034 409 
Q 2525 409 2770 889 
Q 3016 1369 3016 2328 
Q 3016 3291 2770 3770 
Q 2525 4250 2034 4250 
z
M 2034 4750 
Q 2819 4750 3233 4129 
Q 3647 3509 3647 2328 
Q 3647 1150 3233 529 
Q 2819 -91 2034 -91 
Q 1250 -91 836 529 
Q 422 1150 422 2328 
Q 422 3509 836 4129 
Q 1250 4750 2034 4750 
z
" transform="scale(0.015625)"/>
       </defs>
       <use xlink:href="#DejaVuSans-30"/>
      </g>
     </g>
    </g>
    <g id="xtick_2">
     <g id="line2d_2">
      <g>
       <use xlink:href="#m4c89a28772" x="120.19725" y="317.232" style="stroke: #000000; stroke-width: 0.8"/>
      </g>
     </g>
     <g id="text_2">
      <!-- 100 -->
      <g transform="translate(110.6535 331.830437) scale(0.1 -0.1)">
       <defs>
        <path id="DejaVuSans-31" d="M 794 531 
L 1825 531 
L 1825 4091 
L 703 3866 
L 703 4441 
L 1819 4666 
L 2450 4666 
L 2450 531 
L 3481 531 
L 3481 0 
L 794 0 
L 794 531 
z
" transform="scale(0.015625)"/>
       </defs>
       <use xlink:href="#DejaVuSans-31"/>
       <use xlink:href="#DejaVuSans-30" transform="translate(63.623047 0)"/>
       <use xlink:href="#DejaVuSans-30" transform="translate(127.246094 0)"/>
      </g>
     </g>
    </g>
    <g id="xtick_3">
     <g id="line2d_3">
      <g>
       <use xlink:href="#m4c89a28772" x="167.81325" y="317.232" style="stroke: #000000; stroke-width: 0.8"/>
      </g>
     </g>
     <g id="text_3">
      <!-- 200 -->
      <g transform="translate(158.2695 331.830437) scale(0.1 -0.1)">
       <defs>
        <path id="DejaVuSans-32" d="M 1228 531 
L 3431 531 
L 3431 0 
L 469 0 
L 469 531 
Q 828 903 1448 1529 
Q 2069 2156 2228 2338 
Q 2531 2678 2651 2914 
Q 2772 3150 2772 3378 
Q 2772 3750 2511 3984 
Q 2250 4219 1831 4219 
Q 1534 4219 1204 4116 
Q 875 4013 500 3803 
L 500 4441 
Q 881 4594 1212 4672 
Q 1544 4750 1819 4750 
Q 2544 4750 2975 4387 
Q 3406 4025 3406 3419 
Q 3406 3131 3298 2873 
Q 3191 2616 2906 2266 
Q 2828 2175 2409 1742 
Q 1991 1309 1228 531 
z
" transform="scale(0.015625)"/>
       </defs>
       <use xlink:href="#DejaVuSans-32"/>
       <use xlink:href="#DejaVuSans-30" transform="translate(63.623047 0)"/>
       <use xlink:href="#DejaVuSans-30" transform="translate(127.246094 0)"/>
      </g>
     </g>
    </g>
    <g id="xtick_4">
     <g id="line2d_4">
      <g>
       <use xlink:href="#m4c89a28772" x="215.42925" y="317.232" style="stroke: #000000; stroke-width: 0.8"/>
      </g>
     </g>
     <g id="text_4">
      <!-- 300 -->
      <g transform="translate(205.8855 331.830437) scale(0.1 -0.1)">
       <defs>
        <path id="DejaVuSans-33" d="M 2597 2516 
Q 3050 2419 3304 2112 
Q 3559 1806 3559 1356 
Q 3559 666 3084 287 
Q 2609 -91 1734 -91 
Q 1441 -91 1130 -33 
Q 819 25 488 141 
L 488 750 
Q 750 597 1062 519 
Q 1375 441 1716 441 
Q 2309 441 2620 675 
Q 2931 909 2931 1356 
Q 2931 1769 2642 2001 
Q 2353 2234 1838 2234 
L 1294 2234 
L 1294 2753 
L 1863 2753 
Q 2328 2753 2575 2939 
Q 2822 3125 2822 3475 
Q 2822 3834 2567 4026 
Q 2313 4219 1838 4219 
Q 1578 4219 1281 4162 
Q 984 4106 628 3988 
L 628 4550 
Q 988 4650 1302 4700 
Q 1616 4750 1894 4750 
Q 2613 4750 3031 4423 
Q 3450 4097 3450 3541 
Q 3450 3153 3228 2886 
Q 3006 2619 2597 2516 
z
" transform="scale(0.015625)"/>
       </defs>
       <use xlink:href="#DejaVuSans-33"/>
       <use xlink:href="#DejaVuSans-30" transform="translate(63.623047 0)"/>
       <use xlink:href="#DejaVuSans-30" transform="translate(127.246094 0)"/>
      </g>
     </g>
    </g>
    <g id="xtick_5">
     <g id="line2d_5">
      <g>
       <use xlink:href="#m4c89a28772" x="263.04525" y="317.232" style="stroke: #000000; stroke-width: 0.8"/>
      </g>
     </g>
     <g id="text_5">
      <!-- 400 -->
      <g transform="translate(253.5015 331.830437) scale(0.1 -0.1)">
       <defs>
        <path id="DejaVuSans-34" d="M 2419 4116 
L 825 1625 
L 2419 1625 
L 2419 4116 
z
M 2253 4666 
L 3047 4666 
L 3047 1625 
L 3713 1625 
L 3713 1100 
L 3047 1100 
L 3047 0 
L 2419 0 
L 2419 1100 
L 313 1100 
L 313 1709 
L 2253 4666 
z
" transform="scale(0.015625)"/>
       </defs>
       <use xlink:href="#DejaVuSans-34"/>
       <use xlink:href="#DejaVuSans-30" transform="translate(63.623047 0)"/>
       <use xlink:href="#DejaVuSans-30" transform="translate(127.246094 0)"/>
      </g>
     </g>
    </g>
    <g id="xtick_6">
     <g id="line2d_6">
      <g>
       <use xlink:href="#m4c89a28772" x="310.66125" y="317.232" style="stroke: #000000; stroke-width: 0.8"/>
      </g>
     </g>
     <g id="text_6">
      <!-- 500 -->
      <g transform="translate(301.1175 331.830437) scale(0.1 -0.1)">
       <defs>
        <path id="DejaVuSans-35" d="M 691 4666 
L 3169 4666 
L 3169 4134 
L 1269 4134 
L 1269 2991 
Q 1406 3038 1543 3061 
Q 1681 3084 1819 3084 
Q 2600 3084 3056 2656 
Q 3513 2228 3513 1497 
Q 3513 744 3044 326 
Q 2575 -91 1722 -91 
Q 1428 -91 1123 -41 
Q 819 9 494 109 
L 494 744 
Q 775 591 1075 516 
Q 1375 441 1709 441 
Q 2250 441 2565 725 
Q 2881 1009 2881 1497 
Q 2881 1984 2565 2268 
Q 2250 2553 1709 2553 
Q 1456 2553 1204 2497 
Q 953 2441 691 2322 
L 691 4666 
z
" transform="scale(0.015625)"/>
       </defs>
       <use xlink:href="#DejaVuSans-35"/>
       <use xlink:href="#DejaVuSans-30" transform="translate(63.623047 0)"/>
       <use xlink:href="#DejaVuSans-30" transform="translate(127.246094 0)"/>
      </g>
     </g>
    </g>
    <g id="xtick_7">
     <g id="line2d_7">
      <g>
       <use xlink:href="#m4c89a28772" x="358.27725" y="317.232" style="stroke: #000000; stroke-width: 0.8"/>
      </g>
     </g>
     <g id="text_7">
      <!-- 600 -->
      <g transform="translate(348.7335 331.830437) scale(0.1 -0.1)">
       <defs>
        <path id="DejaVuSans-36" d="M 2113 2584 
Q 1688 2584 1439 2293 
Q 1191 2003 1191 1497 
Q 1191 994 1439 701 
Q 1688 409 2113 409 
Q 2538 409 2786 701 
Q 3034 994 3034 1497 
Q 3034 2003 2786 2293 
Q 2538 2584 2113 2584 
z
M 3366 4563 
L 3366 3988 
Q 3128 4100 2886 4159 
Q 2644 4219 2406 4219 
Q 1781 4219 1451 3797 
Q 1122 3375 1075 2522 
Q 1259 2794 1537 2939 
Q 1816 3084 2150 3084 
Q 2853 3084 3261 2657 
Q 3669 2231 3669 1497 
Q 3669 778 3244 343 
Q 2819 -91 2113 -91 
Q 1303 -91 875 529 
Q 447 1150 447 2328 
Q 447 3434 972 4092 
Q 1497 4750 2381 4750 
Q 2619 4750 2861 4703 
Q 3103 4656 3366 4563 
z
" transform="scale(0.015625)"/>
       </defs>
       <use xlink:href="#DejaVuSans-36"/>
       <use xlink:href="#DejaVuSans-30" transform="translate(63.623047 0)"/>
       <use xlink:href="#DejaVuSans-30" transform="translate(127.246094 0)"/>
      </g>
     </g>
    </g>
    <g id="xtick_8">
     <g id="line2d_8">
      <g>
       <use xlink:href="#m4c89a28772" x="405.89325" y="317.232" style="stroke: #000000; stroke-width: 0.8"/>
      </g>
     </g>
     <g id="text_8">
      <!-- 700 -->
      <g transform="translate(396.3495 331.830437) scale(0.1 -0.1)">
       <defs>
        <path id="DejaVuSans-37" d="M 525 4666 
L 3525 4666 
L 3525 4397 
L 1831 0 
L 1172 0 
L 2766 4134 
L 525 4134 
L 525 4666 
z
" transform="scale(0.015625)"/>
       </defs>
       <use xlink:href="#DejaVuSans-37"/>
       <use xlink:href="#DejaVuSans-30" transform="translate(63.623047 0)"/>
       <use xlink:href="#DejaVuSans-30" transform="translate(127.246094 0)"/>
      </g>
     </g>
    </g>
    <g id="text_9">
     <!-- $\frac{1}{I}$ in $\frac{1}{A}$ -->
     <g transform="translate(237.49125 347.410125) scale(0.1 -0.1)">
      <defs>
       <path id="DejaVuSans-Oblique-49" d="M 1081 4666 
L 1716 4666 
L 806 0 
L 172 0 
L 1081 4666 
z
" transform="scale(0.015625)"/>
       <path id="DejaVuSans-20" transform="scale(0.015625)"/>
       <path id="DejaVuSans-69" d="M 603 3500 
L 1178 3500 
L 1178 0 
L 603 0 
L 603 3500 
z
M 603 4863 
L 1178 4863 
L 1178 4134 
L 603 4134 
L 603 4863 
z
" transform="scale(0.015625)"/>
       <path id="DejaVuSans-6e" d="M 3513 2113 
L 3513 0 
L 2938 0 
L 2938 2094 
Q 2938 2591 2744 2837 
Q 2550 3084 2163 3084 
Q 1697 3084 1428 2787 
Q 1159 2491 1159 1978 
L 1159 0 
L 581 0 
L 581 3500 
L 1159 3500 
L 1159 2956 
Q 1366 3272 1645 3428 
Q 1925 3584 2291 3584 
Q 2894 3584 3203 3211 
Q 3513 2838 3513 2113 
z
" transform="scale(0.015625)"/>
       <path id="DejaVuSans-Oblique-41" d="M 2356 4666 
L 3072 4666 
L 3938 0 
L 3278 0 
L 3084 1197 
L 984 1197 
L 325 0 
L -341 0 
L 2356 4666 
z
M 2584 4044 
L 1275 1722 
L 2988 1722 
L 2584 4044 
z
" transform="scale(0.015625)"/>
      </defs>
      <use xlink:href="#DejaVuSans-31" transform="translate(0 43.965625) scale(0.7)"/>
      <use xlink:href="#DejaVuSans-Oblique-49" transform="translate(12 -38.31875) scale(0.7)"/>
      <use xlink:href="#DejaVuSans-20" transform="translate(57.036133 0.16875)"/>
      <use xlink:href="#DejaVuSans-69" transform="translate(88.823242 0.16875)"/>
      <use xlink:href="#DejaVuSans-6e" transform="translate(116.606445 0.16875)"/>
      <use xlink:href="#DejaVuSans-20" transform="translate(179.985352 0.16875)"/>
      <use xlink:href="#DejaVuSans-31" transform="translate(213.772461 43.965625) scale(0.7)"/>
      <use xlink:href="#DejaVuSans-Oblique-41" transform="translate(211.772461 -38.31875) scale(0.7)"/>
      <path d="M 0 18.965625 
L 0 25.215625 
L 44.536133 25.215625 
L 44.536133 18.965625 
L 0 18.965625 
z
"/>
      <path d="M 211.772461 18.965625 
L 211.772461 25.215625 
L 259.658203 25.215625 
L 259.658203 18.965625 
L 211.772461 18.965625 
z
"/>
     </g>
    </g>
   </g>
   <g id="matplotlib.axis_2">
    <g id="ytick_1">
     <g id="line2d_9">
      <defs>
       <path id="m717a4cf695" d="M 0 0 
L -3.5 0 
" style="stroke: #000000; stroke-width: 0.8"/>
      </defs>
      <g>
       <use xlink:href="#m717a4cf695" x="72.58125" y="317.232" style="stroke: #000000; stroke-width: 0.8"/>
      </g>
     </g>
     <g id="text_10">
      <!-- 0.0 -->
      <g transform="translate(49.678125 321.031219) scale(0.1 -0.1)">
       <defs>
        <path id="DejaVuSans-2e" d="M 684 794 
L 1344 794 
L 1344 0 
L 684 0 
L 684 794 
z
" transform="scale(0.015625)"/>
       </defs>
       <use xlink:href="#DejaVuSans-30"/>
       <use xlink:href="#DejaVuSans-2e" transform="translate(63.623047 0)"/>
       <use xlink:href="#DejaVuSans-30" transform="translate(95.410156 0)"/>
      </g>
     </g>
    </g>
    <g id="ytick_2">
     <g id="line2d_10">
      <g>
       <use xlink:href="#m717a4cf695" x="72.58125" y="264.0096" style="stroke: #000000; stroke-width: 0.8"/>
      </g>
     </g>
     <g id="text_11">
      <!-- 0.2 -->
      <g transform="translate(49.678125 267.808819) scale(0.1 -0.1)">
       <use xlink:href="#DejaVuSans-30"/>
       <use xlink:href="#DejaVuSans-2e" transform="translate(63.623047 0)"/>
       <use xlink:href="#DejaVuSans-32" transform="translate(95.410156 0)"/>
      </g>
     </g>
    </g>
    <g id="ytick_3">
     <g id="line2d_11">
      <g>
       <use xlink:href="#m717a4cf695" x="72.58125" y="210.7872" style="stroke: #000000; stroke-width: 0.8"/>
      </g>
     </g>
     <g id="text_12">
      <!-- 0.4 -->
      <g transform="translate(49.678125 214.586419) scale(0.1 -0.1)">
       <use xlink:href="#DejaVuSans-30"/>
       <use xlink:href="#DejaVuSans-2e" transform="translate(63.623047 0)"/>
       <use xlink:href="#DejaVuSans-34" transform="translate(95.410156 0)"/>
      </g>
     </g>
    </g>
    <g id="ytick_4">
     <g id="line2d_12">
      <g>
       <use xlink:href="#m717a4cf695" x="72.58125" y="157.5648" style="stroke: #000000; stroke-width: 0.8"/>
      </g>
     </g>
     <g id="text_13">
      <!-- 0.6 -->
      <g transform="translate(49.678125 161.364019) scale(0.1 -0.1)">
       <use xlink:href="#DejaVuSans-30"/>
       <use xlink:href="#DejaVuSans-2e" transform="translate(63.623047 0)"/>
       <use xlink:href="#DejaVuSans-36" transform="translate(95.410156 0)"/>
      </g>
     </g>
    </g>
    <g id="ytick_5">
     <g id="line2d_13">
      <g>
       <use xlink:href="#m717a4cf695" x="72.58125" y="104.3424" style="stroke: #000000; stroke-width: 0.8"/>
      </g>
     </g>
     <g id="text_14">
      <!-- 0.8 -->
      <g transform="translate(49.678125 108.141619) scale(0.1 -0.1)">
       <defs>
        <path id="DejaVuSans-38" d="M 2034 2216 
Q 1584 2216 1326 1975 
Q 1069 1734 1069 1313 
Q 1069 891 1326 650 
Q 1584 409 2034 409 
Q 2484 409 2743 651 
Q 3003 894 3003 1313 
Q 3003 1734 2745 1975 
Q 2488 2216 2034 2216 
z
M 1403 2484 
Q 997 2584 770 2862 
Q 544 3141 544 3541 
Q 544 4100 942 4425 
Q 1341 4750 2034 4750 
Q 2731 4750 3128 4425 
Q 3525 4100 3525 3541 
Q 3525 3141 3298 2862 
Q 3072 2584 2669 2484 
Q 3125 2378 3379 2068 
Q 3634 1759 3634 1313 
Q 3634 634 3220 271 
Q 2806 -91 2034 -91 
Q 1263 -91 848 271 
Q 434 634 434 1313 
Q 434 1759 690 2068 
Q 947 2378 1403 2484 
z
M 1172 3481 
Q 1172 3119 1398 2916 
Q 1625 2713 2034 2713 
Q 2441 2713 2670 2916 
Q 2900 3119 2900 3481 
Q 2900 3844 2670 4047 
Q 2441 4250 2034 4250 
Q 1625 4250 1398 4047 
Q 1172 3844 1172 3481 
z
" transform="scale(0.015625)"/>
       </defs>
       <use xlink:href="#DejaVuSans-30"/>
       <use xlink:href="#DejaVuSans-2e" transform="translate(63.623047 0)"/>
       <use xlink:href="#DejaVuSans-38" transform="translate(95.410156 0)"/>
      </g>
     </g>
    </g>
    <g id="ytick_6">
     <g id="line2d_14">
      <g>
       <use xlink:href="#m717a4cf695" x="72.58125" y="51.12" style="stroke: #000000; stroke-width: 0.8"/>
      </g>
     </g>
     <g id="text_15">
      <!-- 1.0 -->
      <g transform="translate(49.678125 54.919219) scale(0.1 -0.1)">
       <use xlink:href="#DejaVuSans-31"/>
       <use xlink:href="#DejaVuSans-2e" transform="translate(63.623047 0)"/>
       <use xlink:href="#DejaVuSans-30" transform="translate(95.410156 0)"/>
      </g>
     </g>
    </g>
    <g id="text_16">
     <!-- Radius $r$ in cm -->
     <g transform="translate(43.598438 220.076) rotate(-90) scale(0.1 -0.1)">
      <defs>
       <path id="DejaVuSans-52" d="M 2841 2188 
Q 3044 2119 3236 1894 
Q 3428 1669 3622 1275 
L 4263 0 
L 3584 0 
L 2988 1197 
Q 2756 1666 2539 1819 
Q 2322 1972 1947 1972 
L 1259 1972 
L 1259 0 
L 628 0 
L 628 4666 
L 2053 4666 
Q 2853 4666 3247 4331 
Q 3641 3997 3641 3322 
Q 3641 2881 3436 2590 
Q 3231 2300 2841 2188 
z
M 1259 4147 
L 1259 2491 
L 2053 2491 
Q 2509 2491 2742 2702 
Q 2975 2913 2975 3322 
Q 2975 3731 2742 3939 
Q 2509 4147 2053 4147 
L 1259 4147 
z
" transform="scale(0.015625)"/>
       <path id="DejaVuSans-61" d="M 2194 1759 
Q 1497 1759 1228 1600 
Q 959 1441 959 1056 
Q 959 750 1161 570 
Q 1363 391 1709 391 
Q 2188 391 2477 730 
Q 2766 1069 2766 1631 
L 2766 1759 
L 2194 1759 
z
M 3341 1997 
L 3341 0 
L 2766 0 
L 2766 531 
Q 2569 213 2275 61 
Q 1981 -91 1556 -91 
Q 1019 -91 701 211 
Q 384 513 384 1019 
Q 384 1609 779 1909 
Q 1175 2209 1959 2209 
L 2766 2209 
L 2766 2266 
Q 2766 2663 2505 2880 
Q 2244 3097 1772 3097 
Q 1472 3097 1187 3025 
Q 903 2953 641 2809 
L 641 3341 
Q 956 3463 1253 3523 
Q 1550 3584 1831 3584 
Q 2591 3584 2966 3190 
Q 3341 2797 3341 1997 
z
" transform="scale(0.015625)"/>
       <path id="DejaVuSans-64" d="M 2906 2969 
L 2906 4863 
L 3481 4863 
L 3481 0 
L 2906 0 
L 2906 525 
Q 2725 213 2448 61 
Q 2172 -91 1784 -91 
Q 1150 -91 751 415 
Q 353 922 353 1747 
Q 353 2572 751 3078 
Q 1150 3584 1784 3584 
Q 2172 3584 2448 3432 
Q 2725 3281 2906 2969 
z
M 947 1747 
Q 947 1113 1208 752 
Q 1469 391 1925 391 
Q 2381 391 2643 752 
Q 2906 1113 2906 1747 
Q 2906 2381 2643 2742 
Q 2381 3103 1925 3103 
Q 1469 3103 1208 2742 
Q 947 2381 947 1747 
z
" transform="scale(0.015625)"/>
       <path id="DejaVuSans-75" d="M 544 1381 
L 544 3500 
L 1119 3500 
L 1119 1403 
Q 1119 906 1312 657 
Q 1506 409 1894 409 
Q 2359 409 2629 706 
Q 2900 1003 2900 1516 
L 2900 3500 
L 3475 3500 
L 3475 0 
L 2900 0 
L 2900 538 
Q 2691 219 2414 64 
Q 2138 -91 1772 -91 
Q 1169 -91 856 284 
Q 544 659 544 1381 
z
M 1991 3584 
L 1991 3584 
z
" transform="scale(0.015625)"/>
       <path id="DejaVuSans-73" d="M 2834 3397 
L 2834 2853 
Q 2591 2978 2328 3040 
Q 2066 3103 1784 3103 
Q 1356 3103 1142 2972 
Q 928 2841 928 2578 
Q 928 2378 1081 2264 
Q 1234 2150 1697 2047 
L 1894 2003 
Q 2506 1872 2764 1633 
Q 3022 1394 3022 966 
Q 3022 478 2636 193 
Q 2250 -91 1575 -91 
Q 1294 -91 989 -36 
Q 684 19 347 128 
L 347 722 
Q 666 556 975 473 
Q 1284 391 1588 391 
Q 1994 391 2212 530 
Q 2431 669 2431 922 
Q 2431 1156 2273 1281 
Q 2116 1406 1581 1522 
L 1381 1569 
Q 847 1681 609 1914 
Q 372 2147 372 2553 
Q 372 3047 722 3315 
Q 1072 3584 1716 3584 
Q 2034 3584 2315 3537 
Q 2597 3491 2834 3397 
z
" transform="scale(0.015625)"/>
       <path id="DejaVuSans-Oblique-72" d="M 2853 2969 
Q 2766 3016 2653 3041 
Q 2541 3066 2413 3066 
Q 1953 3066 1609 2717 
Q 1266 2369 1153 1784 
L 800 0 
L 225 0 
L 909 3500 
L 1484 3500 
L 1375 2956 
Q 1603 3259 1920 3421 
Q 2238 3584 2597 3584 
Q 2691 3584 2781 3573 
Q 2872 3563 2963 3538 
L 2853 2969 
z
" transform="scale(0.015625)"/>
       <path id="DejaVuSans-63" d="M 3122 3366 
L 3122 2828 
Q 2878 2963 2633 3030 
Q 2388 3097 2138 3097 
Q 1578 3097 1268 2742 
Q 959 2388 959 1747 
Q 959 1106 1268 751 
Q 1578 397 2138 397 
Q 2388 397 2633 464 
Q 2878 531 3122 666 
L 3122 134 
Q 2881 22 2623 -34 
Q 2366 -91 2075 -91 
Q 1284 -91 818 406 
Q 353 903 353 1747 
Q 353 2603 823 3093 
Q 1294 3584 2113 3584 
Q 2378 3584 2631 3529 
Q 2884 3475 3122 3366 
z
" transform="scale(0.015625)"/>
       <path id="DejaVuSans-6d" d="M 3328 2828 
Q 3544 3216 3844 3400 
Q 4144 3584 4550 3584 
Q 5097 3584 5394 3201 
Q 5691 2819 5691 2113 
L 5691 0 
L 5113 0 
L 5113 2094 
Q 5113 2597 4934 2840 
Q 4756 3084 4391 3084 
Q 3944 3084 3684 2787 
Q 3425 2491 3425 1978 
L 3425 0 
L 2847 0 
L 2847 2094 
Q 2847 2600 2669 2842 
Q 2491 3084 2119 3084 
Q 1678 3084 1418 2786 
Q 1159 2488 1159 1978 
L 1159 0 
L 581 0 
L 581 3500 
L 1159 3500 
L 1159 2956 
Q 1356 3278 1631 3431 
Q 1906 3584 2284 3584 
Q 2666 3584 2933 3390 
Q 3200 3197 3328 2828 
z
" transform="scale(0.015625)"/>
      </defs>
      <use xlink:href="#DejaVuSans-52" transform="translate(0 0.015625)"/>
      <use xlink:href="#DejaVuSans-61" transform="translate(69.482422 0.015625)"/>
      <use xlink:href="#DejaVuSans-64" transform="translate(130.761719 0.015625)"/>
      <use xlink:href="#DejaVuSans-69" transform="translate(194.238281 0.015625)"/>
      <use xlink:href="#DejaVuSans-75" transform="translate(222.021484 0.015625)"/>
      <use xlink:href="#DejaVuSans-73" transform="translate(285.400391 0.015625)"/>
      <use xlink:href="#DejaVuSans-20" transform="translate(337.5 0.015625)"/>
      <use xlink:href="#DejaVuSans-Oblique-72" transform="translate(369.287109 0.015625)"/>
      <use xlink:href="#DejaVuSans-20" transform="translate(410.400391 0.015625)"/>
      <use xlink:href="#DejaVuSans-69" transform="translate(442.1875 0.015625)"/>
      <use xlink:href="#DejaVuSans-6e" transform="translate(469.970703 0.015625)"/>
      <use xlink:href="#DejaVuSans-20" transform="translate(533.349609 0.015625)"/>
      <use xlink:href="#DejaVuSans-63" transform="translate(565.136719 0.015625)"/>
      <use xlink:href="#DejaVuSans-6d" transform="translate(620.117188 0.015625)"/>
     </g>
    </g>
   </g>
   <g id="LineCollection_1">
    <path d="M 311.146917 297.662362 
L 330.015583 297.662362 
" clip-path="url(#p729e0df4c8)" style="fill: none; stroke: #ff0000; stroke-width: 1.5"/>
    <path d="M 199.34113 291.235646 
L 206.018091 291.235646 
" clip-path="url(#p729e0df4c8)" style="fill: none; stroke: #ff0000; stroke-width: 1.5"/>
    <path d="M 158.726415 282.089087 
L 162.46566 282.089087 
" clip-path="url(#p729e0df4c8)" style="fill: none; stroke: #ff0000; stroke-width: 1.5"/>
    <path d="M 137.461724 270.10105 
L 139.967443 270.10105 
" clip-path="url(#p729e0df4c8)" style="fill: none; stroke: #ff0000; stroke-width: 1.5"/>
    <path d="M 125.613763 253.052228 
L 127.521527 253.052228 
" clip-path="url(#p729e0df4c8)" style="fill: none; stroke: #ff0000; stroke-width: 1.5"/>
    <path d="M 117.169693 216.997025 
L 118.68995 216.997025 
" clip-path="url(#p729e0df4c8)" style="fill: none; stroke: #ff0000; stroke-width: 1.5"/>
    <path d="M 110.365611 126.308282 
L 111.596889 126.308282 
" clip-path="url(#p729e0df4c8)" style="fill: none; stroke: #ff0000; stroke-width: 1.5"/>
    <path d="M 131.01501 263.810044 
L 133.18749 263.810044 
" clip-path="url(#p729e0df4c8)" style="fill: none; stroke: #ff0000; stroke-width: 1.5"/>
    <path d="M 148.324942 279.59808 
L 151.43496 279.59808 
" clip-path="url(#p729e0df4c8)" style="fill: none; stroke: #ff0000; stroke-width: 1.5"/>
   </g>
   <g id="LineCollection_2">
    <path d="M 320.58125 299.26392 
L 320.58125 296.060803 
" clip-path="url(#p729e0df4c8)" style="fill: none; stroke: #ff0000; stroke-width: 1.5"/>
    <path d="M 202.679611 293.343739 
L 202.679611 289.127553 
" clip-path="url(#p729e0df4c8)" style="fill: none; stroke: #ff0000; stroke-width: 1.5"/>
    <path d="M 160.596037 284.444317 
L 160.596037 279.733857 
" clip-path="url(#p729e0df4c8)" style="fill: none; stroke: #ff0000; stroke-width: 1.5"/>
    <path d="M 138.714583 272.012881 
L 138.714583 268.189218 
" clip-path="url(#p729e0df4c8)" style="fill: none; stroke: #ff0000; stroke-width: 1.5"/>
    <path d="M 126.567645 256.231244 
L 126.567645 249.873212 
" clip-path="url(#p729e0df4c8)" style="fill: none; stroke: #ff0000; stroke-width: 1.5"/>
    <path d="M 117.929821 230.095229 
L 117.929821 203.898821 
" clip-path="url(#p729e0df4c8)" style="fill: none; stroke: #ff0000; stroke-width: 1.5"/>
    <path d="M 110.98125 166.414806 
L 110.98125 86.201757 
" clip-path="url(#p729e0df4c8)" style="fill: none; stroke: #ff0000; stroke-width: 1.5"/>
    <path d="M 132.10125 266.158494 
L 132.10125 261.461593 
" clip-path="url(#p729e0df4c8)" style="fill: none; stroke: #ff0000; stroke-width: 1.5"/>
    <path d="M 149.879951 282.234134 
L 149.879951 276.962026 
" clip-path="url(#p729e0df4c8)" style="fill: none; stroke: #ff0000; stroke-width: 1.5"/>
   </g>
   <g id="line2d_15">
    <defs>
     <path id="mf86b39f85e" d="M 0 6 
L 0 -6 
" style="stroke: #ff0000"/>
    </defs>
    <g clip-path="url(#p729e0df4c8)">
     <use xlink:href="#mf86b39f85e" x="311.146917" y="297.662362" style="fill: #ff0000; stroke: #ff0000"/>
     <use xlink:href="#mf86b39f85e" x="199.34113" y="291.235646" style="fill: #ff0000; stroke: #ff0000"/>
     <use xlink:href="#mf86b39f85e" x="158.726415" y="282.089087" style="fill: #ff0000; stroke: #ff0000"/>
     <use xlink:href="#mf86b39f85e" x="137.461724" y="270.10105" style="fill: #ff0000; stroke: #ff0000"/>
     <use xlink:href="#mf86b39f85e" x="125.613763" y="253.052228" style="fill: #ff0000; stroke: #ff0000"/>
     <use xlink:href="#mf86b39f85e" x="117.169693" y="216.997025" style="fill: #ff0000; stroke: #ff0000"/>
     <use xlink:href="#mf86b39f85e" x="110.365611" y="126.308282" style="fill: #ff0000; stroke: #ff0000"/>
     <use xlink:href="#mf86b39f85e" x="131.01501" y="263.810044" style="fill: #ff0000; stroke: #ff0000"/>
     <use xlink:href="#mf86b39f85e" x="148.324942" y="279.59808" style="fill: #ff0000; stroke: #ff0000"/>
    </g>
   </g>
   <g id="line2d_16">
    <g clip-path="url(#p729e0df4c8)">
     <use xlink:href="#mf86b39f85e" x="330.015583" y="297.662362" style="fill: #ff0000; stroke: #ff0000"/>
     <use xlink:href="#mf86b39f85e" x="206.018091" y="291.235646" style="fill: #ff0000; stroke: #ff0000"/>
     <use xlink:href="#mf86b39f85e" x="162.46566" y="282.089087" style="fill: #ff0000; stroke: #ff0000"/>
     <use xlink:href="#mf86b39f85e" x="139.967443" y="270.10105" style="fill: #ff0000; stroke: #ff0000"/>
     <use xlink:href="#mf86b39f85e" x="127.521527" y="253.052228" style="fill: #ff0000; stroke: #ff0000"/>
     <use xlink:href="#mf86b39f85e" x="118.68995" y="216.997025" style="fill: #ff0000; stroke: #ff0000"/>
     <use xlink:href="#mf86b39f85e" x="111.596889" y="126.308282" style="fill: #ff0000; stroke: #ff0000"/>
     <use xlink:href="#mf86b39f85e" x="133.18749" y="263.810044" style="fill: #ff0000; stroke: #ff0000"/>
     <use xlink:href="#mf86b39f85e" x="151.43496" y="279.59808" style="fill: #ff0000; stroke: #ff0000"/>
    </g>
   </g>
   <g id="line2d_17">
    <defs>
     <path id="m3ae29e67a5" d="M 6 0 
L -6 -0 
" style="stroke: #ff0000"/>
    </defs>
    <g clip-path="url(#p729e0df4c8)">
     <use xlink:href="#m3ae29e67a5" x="320.58125" y="299.26392" style="fill: #ff0000; stroke: #ff0000"/>
     <use xlink:href="#m3ae29e67a5" x="202.679611" y="293.343739" style="fill: #ff0000; stroke: #ff0000"/>
     <use xlink:href="#m3ae29e67a5" x="160.596037" y="284.444317" style="fill: #ff0000; stroke: #ff0000"/>
     <use xlink:href="#m3ae29e67a5" x="138.714583" y="272.012881" style="fill: #ff0000; stroke: #ff0000"/>
     <use xlink:href="#m3ae29e67a5" x="126.567645" y="256.231244" style="fill: #ff0000; stroke: #ff0000"/>
     <use xlink:href="#m3ae29e67a5" x="117.929821" y="230.095229" style="fill: #ff0000; stroke: #ff0000"/>
     <use xlink:href="#m3ae29e67a5" x="110.98125" y="166.414806" style="fill: #ff0000; stroke: #ff0000"/>
     <use xlink:href="#m3ae29e67a5" x="132.10125" y="266.158494" style="fill: #ff0000; stroke: #ff0000"/>
     <use xlink:href="#m3ae29e67a5" x="149.879951" y="282.234134" style="fill: #ff0000; stroke: #ff0000"/>
    </g>
   </g>
   <g id="line2d_18">
    <g clip-path="url(#p729e0df4c8)">
     <use xlink:href="#m3ae29e67a5" x="320.58125" y="296.060803" style="fill: #ff0000; stroke: #ff0000"/>
     <use xlink:href="#m3ae29e67a5" x="202.679611" y="289.127553" style="fill: #ff0000; stroke: #ff0000"/>
     <use xlink:href="#m3ae29e67a5" x="160.596037" y="279.733857" style="fill: #ff0000; stroke: #ff0000"/>
     <use xlink:href="#m3ae29e67a5" x="138.714583" y="268.189218" style="fill: #ff0000; stroke: #ff0000"/>
     <use xlink:href="#m3ae29e67a5" x="126.567645" y="249.873212" style="fill: #ff0000; stroke: #ff0000"/>
     <use xlink:href="#m3ae29e67a5" x="117.929821" y="203.898821" style="fill: #ff0000; stroke: #ff0000"/>
     <use xlink:href="#m3ae29e67a5" x="110.98125" y="86.201757" style="fill: #ff0000; stroke: #ff0000"/>
     <use xlink:href="#m3ae29e67a5" x="132.10125" y="261.461593" style="fill: #ff0000; stroke: #ff0000"/>
     <use xlink:href="#m3ae29e67a5" x="149.879951" y="276.962026" style="fill: #ff0000; stroke: #ff0000"/>
    </g>
   </g>
   <g id="line2d_19">
    <path d="M 72.58125 317.232 
L 466.70125 250.704265 
L 466.70125 250.704265 
" clip-path="url(#p729e0df4c8)" style="fill: none; stroke: #ff7f50; stroke-width: 2; stroke-linecap: square"/>
   </g>
   <g id="LineCollection_3">
    <path d="M 357.31005 298.782954 
L 383.05245 298.782954 
" clip-path="url(#p729e0df4c8)" style="fill: none; stroke: #0000ff; stroke-width: 1.5"/>
    <path d="M 274.337379 297.662362 
L 288.509331 297.662362 
" clip-path="url(#p729e0df4c8)" style="fill: none; stroke: #0000ff; stroke-width: 1.5"/>
    <path d="M 201.777441 293.19761 
L 208.655254 293.19761 
" clip-path="url(#p729e0df4c8)" style="fill: none; stroke: #0000ff; stroke-width: 1.5"/>
    <path d="M 173.9449 290.515606 
L 178.694725 290.515606 
" clip-path="url(#p729e0df4c8)" style="fill: none; stroke: #0000ff; stroke-width: 1.5"/>
    <path d="M 161.326245 288.964318 
L 165.230541 288.964318 
" clip-path="url(#p729e0df4c8)" style="fill: none; stroke: #0000ff; stroke-width: 1.5"/>
    <path d="M 149.313206 285.347707 
L 152.480873 285.347707 
" clip-path="url(#p729e0df4c8)" style="fill: none; stroke: #0000ff; stroke-width: 1.5"/>
    <path d="M 133.750078 276.805247 
L 136.061636 276.805247 
" clip-path="url(#p729e0df4c8)" style="fill: none; stroke: #0000ff; stroke-width: 1.5"/>
    <path d="M 123.435408 266.049869 
L 125.240135 266.049869 
" clip-path="url(#p729e0df4c8)" style="fill: none; stroke: #0000ff; stroke-width: 1.5"/>
    <path d="M 110.671532 223.1472 
L 111.915358 223.1472 
" clip-path="url(#p729e0df4c8)" style="fill: none; stroke: #0000ff; stroke-width: 1.5"/>
    <path d="M 105.408901 300.68722 
L 106.442675 300.68722 
" clip-path="url(#p729e0df4c8)" style="fill: none; stroke: #0000ff; stroke-width: 1.5"/>
   </g>
   <g id="LineCollection_4">
    <path d="M 370.18125 300.179187 
L 370.18125 297.386721 
" clip-path="url(#p729e0df4c8)" style="fill: none; stroke: #0000ff; stroke-width: 1.5"/>
    <path d="M 281.423355 298.466309 
L 281.423355 296.858415 
" clip-path="url(#p729e0df4c8)" style="fill: none; stroke: #0000ff; stroke-width: 1.5"/>
    <path d="M 205.216347 294.414967 
L 205.216347 291.980253 
" clip-path="url(#p729e0df4c8)" style="fill: none; stroke: #0000ff; stroke-width: 1.5"/>
    <path d="M 176.319812 291.991676 
L 176.319812 289.039537 
" clip-path="url(#p729e0df4c8)" style="fill: none; stroke: #0000ff; stroke-width: 1.5"/>
    <path d="M 163.278393 289.779518 
L 163.278393 288.149118 
" clip-path="url(#p729e0df4c8)" style="fill: none; stroke: #0000ff; stroke-width: 1.5"/>
    <path d="M 150.897039 286.34915 
L 150.897039 284.346264 
" clip-path="url(#p729e0df4c8)" style="fill: none; stroke: #0000ff; stroke-width: 1.5"/>
    <path d="M 134.905857 278.291279 
L 134.905857 275.319215 
" clip-path="url(#p729e0df4c8)" style="fill: none; stroke: #0000ff; stroke-width: 1.5"/>
    <path d="M 124.337772 268.238731 
L 124.337772 263.861007 
" clip-path="url(#p729e0df4c8)" style="fill: none; stroke: #0000ff; stroke-width: 1.5"/>
    <path d="M 111.293445 234.922844 
L 111.293445 211.371556 
" clip-path="url(#p729e0df4c8)" style="fill: none; stroke: #0000ff; stroke-width: 1.5"/>
    <path d="M 105.925788 301.215607 
L 105.925788 300.158833 
" clip-path="url(#p729e0df4c8)" style="fill: none; stroke: #0000ff; stroke-width: 1.5"/>
   </g>
   <g id="line2d_20">
    <defs>
     <path id="m22307cdd9a" d="M 0 6 
L 0 -6 
" style="stroke: #0000ff"/>
    </defs>
    <g clip-path="url(#p729e0df4c8)">
     <use xlink:href="#m22307cdd9a" x="357.31005" y="298.782954" style="fill: #0000ff; stroke: #0000ff"/>
     <use xlink:href="#m22307cdd9a" x="274.337379" y="297.662362" style="fill: #0000ff; stroke: #0000ff"/>
     <use xlink:href="#m22307cdd9a" x="201.777441" y="293.19761" style="fill: #0000ff; stroke: #0000ff"/>
     <use xlink:href="#m22307cdd9a" x="173.9449" y="290.515606" style="fill: #0000ff; stroke: #0000ff"/>
     <use xlink:href="#m22307cdd9a" x="161.326245" y="288.964318" style="fill: #0000ff; stroke: #0000ff"/>
     <use xlink:href="#m22307cdd9a" x="149.313206" y="285.347707" style="fill: #0000ff; stroke: #0000ff"/>
     <use xlink:href="#m22307cdd9a" x="133.750078" y="276.805247" style="fill: #0000ff; stroke: #0000ff"/>
     <use xlink:href="#m22307cdd9a" x="123.435408" y="266.049869" style="fill: #0000ff; stroke: #0000ff"/>
     <use xlink:href="#m22307cdd9a" x="110.671532" y="223.1472" style="fill: #0000ff; stroke: #0000ff"/>
     <use xlink:href="#m22307cdd9a" x="105.408901" y="300.68722" style="fill: #0000ff; stroke: #0000ff"/>
    </g>
   </g>
   <g id="line2d_21">
    <g clip-path="url(#p729e0df4c8)">
     <use xlink:href="#m22307cdd9a" x="383.05245" y="298.782954" style="fill: #0000ff; stroke: #0000ff"/>
     <use xlink:href="#m22307cdd9a" x="288.509331" y="297.662362" style="fill: #0000ff; stroke: #0000ff"/>
     <use xlink:href="#m22307cdd9a" x="208.655254" y="293.19761" style="fill: #0000ff; stroke: #0000ff"/>
     <use xlink:href="#m22307cdd9a" x="178.694725" y="290.515606" style="fill: #0000ff; stroke: #0000ff"/>
     <use xlink:href="#m22307cdd9a" x="165.230541" y="288.964318" style="fill: #0000ff; stroke: #0000ff"/>
     <use xlink:href="#m22307cdd9a" x="152.480873" y="285.347707" style="fill: #0000ff; stroke: #0000ff"/>
     <use xlink:href="#m22307cdd9a" x="136.061636" y="276.805247" style="fill: #0000ff; stroke: #0000ff"/>
     <use xlink:href="#m22307cdd9a" x="125.240135" y="266.049869" style="fill: #0000ff; stroke: #0000ff"/>
     <use xlink:href="#m22307cdd9a" x="111.915358" y="223.1472" style="fill: #0000ff; stroke: #0000ff"/>
     <use xlink:href="#m22307cdd9a" x="106.442675" y="300.68722" style="fill: #0000ff; stroke: #0000ff"/>
    </g>
   </g>
   <g id="line2d_22">
    <defs>
     <path id="m0abb70fa80" d="M 6 0 
L -6 -0 
" style="stroke: #0000ff"/>
    </defs>
    <g clip-path="url(#p729e0df4c8)">
     <use xlink:href="#m0abb70fa80" x="370.18125" y="300.179187" style="fill: #0000ff; stroke: #0000ff"/>
     <use xlink:href="#m0abb70fa80" x="281.423355" y="298.466309" style="fill: #0000ff; stroke: #0000ff"/>
     <use xlink:href="#m0abb70fa80" x="205.216347" y="294.414967" style="fill: #0000ff; stroke: #0000ff"/>
     <use xlink:href="#m0abb70fa80" x="176.319812" y="291.991676" style="fill: #0000ff; stroke: #0000ff"/>
     <use xlink:href="#m0abb70fa80" x="163.278393" y="289.779518" style="fill: #0000ff; stroke: #0000ff"/>
     <use xlink:href="#m0abb70fa80" x="150.897039" y="286.34915" style="fill: #0000ff; stroke: #0000ff"/>
     <use xlink:href="#m0abb70fa80" x="134.905857" y="278.291279" style="fill: #0000ff; stroke: #0000ff"/>
     <use xlink:href="#m0abb70fa80" x="124.337772" y="268.238731" style="fill: #0000ff; stroke: #0000ff"/>
     <use xlink:href="#m0abb70fa80" x="111.293445" y="234.922844" style="fill: #0000ff; stroke: #0000ff"/>
     <use xlink:href="#m0abb70fa80" x="105.925788" y="301.215607" style="fill: #0000ff; stroke: #0000ff"/>
    </g>
   </g>
   <g id="line2d_23">
    <g clip-path="url(#p729e0df4c8)">
     <use xlink:href="#m0abb70fa80" x="370.18125" y="297.386721" style="fill: #0000ff; stroke: #0000ff"/>
     <use xlink:href="#m0abb70fa80" x="281.423355" y="296.858415" style="fill: #0000ff; stroke: #0000ff"/>
     <use xlink:href="#m0abb70fa80" x="205.216347" y="291.980253" style="fill: #0000ff; stroke: #0000ff"/>
     <use xlink:href="#m0abb70fa80" x="176.319812" y="289.039537" style="fill: #0000ff; stroke: #0000ff"/>
     <use xlink:href="#m0abb70fa80" x="163.278393" y="288.149118" style="fill: #0000ff; stroke: #0000ff"/>
     <use xlink:href="#m0abb70fa80" x="150.897039" y="284.346264" style="fill: #0000ff; stroke: #0000ff"/>
     <use xlink:href="#m0abb70fa80" x="134.905857" y="275.319215" style="fill: #0000ff; stroke: #0000ff"/>
     <use xlink:href="#m0abb70fa80" x="124.337772" y="263.861007" style="fill: #0000ff; stroke: #0000ff"/>
     <use xlink:href="#m0abb70fa80" x="111.293445" y="211.371556" style="fill: #0000ff; stroke: #0000ff"/>
     <use xlink:href="#m0abb70fa80" x="105.925788" y="300.158833" style="fill: #0000ff; stroke: #0000ff"/>
    </g>
   </g>
   <g id="line2d_24">
    <path d="M 72.58125 317.232 
L 466.70125 259.573726 
L 466.70125 259.573726 
" clip-path="url(#p729e0df4c8)" style="fill: none; stroke: #add8e6; stroke-width: 2; stroke-linecap: square"/>
   </g>
   <g id="LineCollection_5">
    <path d="M 235.279483 296.824703 
L 245.206961 296.824703 
" clip-path="url(#p729e0df4c8)" style="fill: none; stroke: #008000; stroke-width: 1.5"/>
    <path d="M 200.027794 294.357839 
L 206.761079 294.357839 
" clip-path="url(#p729e0df4c8)" style="fill: none; stroke: #008000; stroke-width: 1.5"/>
    <path d="M 168.961558 291.921414 
L 173.368644 291.921414 
" clip-path="url(#p729e0df4c8)" style="fill: none; stroke: #008000; stroke-width: 1.5"/>
    <path d="M 151.237446 288.128435 
L 154.518646 288.128435 
" clip-path="url(#p729e0df4c8)" style="fill: none; stroke: #008000; stroke-width: 1.5"/>
    <path d="M 136.492217 283.234567 
L 138.946616 283.234567 
" clip-path="url(#p729e0df4c8)" style="fill: none; stroke: #008000; stroke-width: 1.5"/>
    <path d="M 123.380497 271.936889 
L 125.182655 271.936889 
" clip-path="url(#p729e0df4c8)" style="fill: none; stroke: #008000; stroke-width: 1.5"/>
    <path d="M 113.380223 253.052228 
L 114.736981 253.052228 
" clip-path="url(#p729e0df4c8)" style="fill: none; stroke: #008000; stroke-width: 1.5"/>
    <path d="M 108.463571 233.71891 
L 109.617765 233.71891 
" clip-path="url(#p729e0df4c8)" style="fill: none; stroke: #008000; stroke-width: 1.5"/>
    <path d="M 104.452602 202.459613 
L 105.449531 202.459613 
" clip-path="url(#p729e0df4c8)" style="fill: none; stroke: #008000; stroke-width: 1.5"/>
    <path d="M 101.74577 144.366861 
L 102.640611 144.366861 
" clip-path="url(#p729e0df4c8)" style="fill: none; stroke: #008000; stroke-width: 1.5"/>
   </g>
   <g id="LineCollection_6">
    <path d="M 240.243222 298.580086 
L 240.243222 295.069321 
" clip-path="url(#p729e0df4c8)" style="fill: none; stroke: #008000; stroke-width: 1.5"/>
    <path d="M 203.394437 295.465972 
L 203.394437 293.249707 
" clip-path="url(#p729e0df4c8)" style="fill: none; stroke: #008000; stroke-width: 1.5"/>
    <path d="M 171.165101 293.260735 
L 171.165101 290.582093 
" clip-path="url(#p729e0df4c8)" style="fill: none; stroke: #008000; stroke-width: 1.5"/>
    <path d="M 152.878046 289.842901 
L 152.878046 286.413969 
" clip-path="url(#p729e0df4c8)" style="fill: none; stroke: #008000; stroke-width: 1.5"/>
    <path d="M 137.719417 285.463955 
L 137.719417 281.005179 
" clip-path="url(#p729e0df4c8)" style="fill: none; stroke: #008000; stroke-width: 1.5"/>
    <path d="M 124.281576 275.499524 
L 124.281576 268.374255 
" clip-path="url(#p729e0df4c8)" style="fill: none; stroke: #008000; stroke-width: 1.5"/>
    <path d="M 114.058602 259.315628 
L 114.058602 246.788828 
" clip-path="url(#p729e0df4c8)" style="fill: none; stroke: #008000; stroke-width: 1.5"/>
    <path d="M 109.040668 243.371957 
L 109.040668 224.065864 
" clip-path="url(#p729e0df4c8)" style="fill: none; stroke: #008000; stroke-width: 1.5"/>
    <path d="M 104.951066 218.94079 
L 104.951066 185.978436 
" clip-path="url(#p729e0df4c8)" style="fill: none; stroke: #008000; stroke-width: 1.5"/>
    <path d="M 102.19319 210.785818 
L 102.19319 77.947904 
" clip-path="url(#p729e0df4c8)" style="fill: none; stroke: #008000; stroke-width: 1.5"/>
   </g>
   <g id="line2d_25">
    <defs>
     <path id="m5ddcc2a279" d="M 0 6 
L 0 -6 
" style="stroke: #008000"/>
    </defs>
    <g clip-path="url(#p729e0df4c8)">
     <use xlink:href="#m5ddcc2a279" x="235.279483" y="296.824703" style="fill: #008000; stroke: #008000"/>
     <use xlink:href="#m5ddcc2a279" x="200.027794" y="294.357839" style="fill: #008000; stroke: #008000"/>
     <use xlink:href="#m5ddcc2a279" x="168.961558" y="291.921414" style="fill: #008000; stroke: #008000"/>
     <use xlink:href="#m5ddcc2a279" x="151.237446" y="288.128435" style="fill: #008000; stroke: #008000"/>
     <use xlink:href="#m5ddcc2a279" x="136.492217" y="283.234567" style="fill: #008000; stroke: #008000"/>
     <use xlink:href="#m5ddcc2a279" x="123.380497" y="271.936889" style="fill: #008000; stroke: #008000"/>
     <use xlink:href="#m5ddcc2a279" x="113.380223" y="253.052228" style="fill: #008000; stroke: #008000"/>
     <use xlink:href="#m5ddcc2a279" x="108.463571" y="233.71891" style="fill: #008000; stroke: #008000"/>
     <use xlink:href="#m5ddcc2a279" x="104.452602" y="202.459613" style="fill: #008000; stroke: #008000"/>
     <use xlink:href="#m5ddcc2a279" x="101.74577" y="144.366861" style="fill: #008000; stroke: #008000"/>
    </g>
   </g>
   <g id="line2d_26">
    <g clip-path="url(#p729e0df4c8)">
     <use xlink:href="#m5ddcc2a279" x="245.206961" y="296.824703" style="fill: #008000; stroke: #008000"/>
     <use xlink:href="#m5ddcc2a279" x="206.761079" y="294.357839" style="fill: #008000; stroke: #008000"/>
     <use xlink:href="#m5ddcc2a279" x="173.368644" y="291.921414" style="fill: #008000; stroke: #008000"/>
     <use xlink:href="#m5ddcc2a279" x="154.518646" y="288.128435" style="fill: #008000; stroke: #008000"/>
     <use xlink:href="#m5ddcc2a279" x="138.946616" y="283.234567" style="fill: #008000; stroke: #008000"/>
     <use xlink:href="#m5ddcc2a279" x="125.182655" y="271.936889" style="fill: #008000; stroke: #008000"/>
     <use xlink:href="#m5ddcc2a279" x="114.736981" y="253.052228" style="fill: #008000; stroke: #008000"/>
     <use xlink:href="#m5ddcc2a279" x="109.617765" y="233.71891" style="fill: #008000; stroke: #008000"/>
     <use xlink:href="#m5ddcc2a279" x="105.449531" y="202.459613" style="fill: #008000; stroke: #008000"/>
     <use xlink:href="#m5ddcc2a279" x="102.640611" y="144.366861" style="fill: #008000; stroke: #008000"/>
    </g>
   </g>
   <g id="line2d_27">
    <defs>
     <path id="m92cf3de72e" d="M 6 0 
L -6 -0 
" style="stroke: #008000"/>
    </defs>
    <g clip-path="url(#p729e0df4c8)">
     <use xlink:href="#m92cf3de72e" x="240.243222" y="298.580086" style="fill: #008000; stroke: #008000"/>
     <use xlink:href="#m92cf3de72e" x="203.394437" y="295.465972" style="fill: #008000; stroke: #008000"/>
     <use xlink:href="#m92cf3de72e" x="171.165101" y="293.260735" style="fill: #008000; stroke: #008000"/>
     <use xlink:href="#m92cf3de72e" x="152.878046" y="289.842901" style="fill: #008000; stroke: #008000"/>
     <use xlink:href="#m92cf3de72e" x="137.719417" y="285.463955" style="fill: #008000; stroke: #008000"/>
     <use xlink:href="#m92cf3de72e" x="124.281576" y="275.499524" style="fill: #008000; stroke: #008000"/>
     <use xlink:href="#m92cf3de72e" x="114.058602" y="259.315628" style="fill: #008000; stroke: #008000"/>
     <use xlink:href="#m92cf3de72e" x="109.040668" y="243.371957" style="fill: #008000; stroke: #008000"/>
     <use xlink:href="#m92cf3de72e" x="104.951066" y="218.94079" style="fill: #008000; stroke: #008000"/>
     <use xlink:href="#m92cf3de72e" x="102.19319" y="210.785818" style="fill: #008000; stroke: #008000"/>
    </g>
   </g>
   <g id="line2d_28">
    <g clip-path="url(#p729e0df4c8)">
     <use xlink:href="#m92cf3de72e" x="240.243222" y="295.069321" style="fill: #008000; stroke: #008000"/>
     <use xlink:href="#m92cf3de72e" x="203.394437" y="293.249707" style="fill: #008000; stroke: #008000"/>
     <use xlink:href="#m92cf3de72e" x="171.165101" y="290.582093" style="fill: #008000; stroke: #008000"/>
     <use xlink:href="#m92cf3de72e" x="152.878046" y="286.413969" style="fill: #008000; stroke: #008000"/>
     <use xlink:href="#m92cf3de72e" x="137.719417" y="281.005179" style="fill: #008000; stroke: #008000"/>
     <use xlink:href="#m92cf3de72e" x="124.281576" y="268.374255" style="fill: #008000; stroke: #008000"/>
     <use xlink:href="#m92cf3de72e" x="114.058602" y="246.788828" style="fill: #008000; stroke: #008000"/>
     <use xlink:href="#m92cf3de72e" x="109.040668" y="224.065864" style="fill: #008000; stroke: #008000"/>
     <use xlink:href="#m92cf3de72e" x="104.951066" y="185.978436" style="fill: #008000; stroke: #008000"/>
     <use xlink:href="#m92cf3de72e" x="102.19319" y="77.947904" style="fill: #008000; stroke: #008000"/>
    </g>
   </g>
   <g id="line2d_29">
    <path d="M 72.58125 317.232 
L 466.70125 236.927594 
L 466.70125 236.927594 
" clip-path="url(#p729e0df4c8)" style="fill: none; stroke: #32cd32; stroke-width: 2; stroke-linecap: square"/>
   </g>
   <g id="line2d_30">
    <defs>
     <path id="mbd78f1cfc8" d="M 0 3 
C 0.795609 3 1.55874 2.683901 2.12132 2.12132 
C 2.683901 1.55874 3 0.795609 3 0 
C 3 -0.795609 2.683901 -1.55874 2.12132 -2.12132 
C 1.55874 -2.683901 0.795609 -3 0 -3 
C -0.795609 -3 -1.55874 -2.683901 -2.12132 -2.12132 
C -2.683901 -1.55874 -3 -0.795609 -3 0 
C -3 0.795609 -2.683901 1.55874 -2.12132 2.12132 
C -1.55874 2.683901 -0.795609 3 0 3 
z
" style="stroke: #ff0000"/>
    </defs>
    <g clip-path="url(#p729e0df4c8)">
     <use xlink:href="#mbd78f1cfc8" x="320.58125" y="297.662362" style="fill: #ff0000; stroke: #ff0000"/>
     <use xlink:href="#mbd78f1cfc8" x="202.679611" y="291.235646" style="fill: #ff0000; stroke: #ff0000"/>
     <use xlink:href="#mbd78f1cfc8" x="160.596037" y="282.089087" style="fill: #ff0000; stroke: #ff0000"/>
     <use xlink:href="#mbd78f1cfc8" x="138.714583" y="270.10105" style="fill: #ff0000; stroke: #ff0000"/>
     <use xlink:href="#mbd78f1cfc8" x="126.567645" y="253.052228" style="fill: #ff0000; stroke: #ff0000"/>
     <use xlink:href="#mbd78f1cfc8" x="117.929821" y="216.997025" style="fill: #ff0000; stroke: #ff0000"/>
     <use xlink:href="#mbd78f1cfc8" x="110.98125" y="126.308282" style="fill: #ff0000; stroke: #ff0000"/>
     <use xlink:href="#mbd78f1cfc8" x="132.10125" y="263.810044" style="fill: #ff0000; stroke: #ff0000"/>
     <use xlink:href="#mbd78f1cfc8" x="149.879951" y="279.59808" style="fill: #ff0000; stroke: #ff0000"/>
    </g>
   </g>
   <g id="line2d_31">
    <defs>
     <path id="m49640a3686" d="M 0 3 
C 0.795609 3 1.55874 2.683901 2.12132 2.12132 
C 2.683901 1.55874 3 0.795609 3 0 
C 3 -0.795609 2.683901 -1.55874 2.12132 -2.12132 
C 1.55874 -2.683901 0.795609 -3 0 -3 
C -0.795609 -3 -1.55874 -2.683901 -2.12132 -2.12132 
C -2.683901 -1.55874 -3 -0.795609 -3 0 
C -3 0.795609 -2.683901 1.55874 -2.12132 2.12132 
C -1.55874 2.683901 -0.795609 3 0 3 
z
" style="stroke: #0000ff"/>
    </defs>
    <g clip-path="url(#p729e0df4c8)">
     <use xlink:href="#m49640a3686" x="370.18125" y="298.782954" style="fill: #0000ff; stroke: #0000ff"/>
     <use xlink:href="#m49640a3686" x="281.423355" y="297.662362" style="fill: #0000ff; stroke: #0000ff"/>
     <use xlink:href="#m49640a3686" x="205.216347" y="293.19761" style="fill: #0000ff; stroke: #0000ff"/>
     <use xlink:href="#m49640a3686" x="176.319812" y="290.515606" style="fill: #0000ff; stroke: #0000ff"/>
     <use xlink:href="#m49640a3686" x="163.278393" y="288.964318" style="fill: #0000ff; stroke: #0000ff"/>
     <use xlink:href="#m49640a3686" x="150.897039" y="285.347707" style="fill: #0000ff; stroke: #0000ff"/>
     <use xlink:href="#m49640a3686" x="134.905857" y="276.805247" style="fill: #0000ff; stroke: #0000ff"/>
     <use xlink:href="#m49640a3686" x="124.337772" y="266.049869" style="fill: #0000ff; stroke: #0000ff"/>
     <use xlink:href="#m49640a3686" x="111.293445" y="223.1472" style="fill: #0000ff; stroke: #0000ff"/>
     <use xlink:href="#m49640a3686" x="105.925788" y="300.68722" style="fill: #0000ff; stroke: #0000ff"/>
    </g>
   </g>
   <g id="line2d_32">
    <defs>
     <path id="m0a65ce622e" d="M 0 3 
C 0.795609 3 1.55874 2.683901 2.12132 2.12132 
C 2.683901 1.55874 3 0.795609 3 0 
C 3 -0.795609 2.683901 -1.55874 2.12132 -2.12132 
C 1.55874 -2.683901 0.795609 -3 0 -3 
C -0.795609 -3 -1.55874 -2.683901 -2.12132 -2.12132 
C -2.683901 -1.55874 -3 -0.795609 -3 0 
C -3 0.795609 -2.683901 1.55874 -2.12132 2.12132 
C -1.55874 2.683901 -0.795609 3 0 3 
z
" style="stroke: #008000"/>
    </defs>
    <g clip-path="url(#p729e0df4c8)">
     <use xlink:href="#m0a65ce622e" x="240.243222" y="296.824703" style="fill: #008000; stroke: #008000"/>
     <use xlink:href="#m0a65ce622e" x="203.394437" y="294.357839" style="fill: #008000; stroke: #008000"/>
     <use xlink:href="#m0a65ce622e" x="171.165101" y="291.921414" style="fill: #008000; stroke: #008000"/>
     <use xlink:href="#m0a65ce622e" x="152.878046" y="288.128435" style="fill: #008000; stroke: #008000"/>
     <use xlink:href="#m0a65ce622e" x="137.719417" y="283.234567" style="fill: #008000; stroke: #008000"/>
     <use xlink:href="#m0a65ce622e" x="124.281576" y="271.936889" style="fill: #008000; stroke: #008000"/>
     <use xlink:href="#m0a65ce622e" x="114.058602" y="253.052228" style="fill: #008000; stroke: #008000"/>
     <use xlink:href="#m0a65ce622e" x="109.040668" y="233.71891" style="fill: #008000; stroke: #008000"/>
     <use xlink:href="#m0a65ce622e" x="104.951066" y="202.459613" style="fill: #008000; stroke: #008000"/>
     <use xlink:href="#m0a65ce622e" x="102.19319" y="144.366861" style="fill: #008000; stroke: #008000"/>
    </g>
   </g>
   <g id="patch_3">
    <path d="M 72.58125 317.232 
L 72.58125 51.12 
" style="fill: none; stroke: #000000; stroke-width: 0.8; stroke-linejoin: miter; stroke-linecap: square"/>
   </g>
   <g id="patch_4">
    <path d="M 429.70125 317.232 
L 429.70125 51.12 
" style="fill: none; stroke: #000000; stroke-width: 0.8; stroke-linejoin: miter; stroke-linecap: square"/>
   </g>
   <g id="patch_5">
    <path d="M 72.58125 317.232 
L 429.70125 317.232 
" style="fill: none; stroke: #000000; stroke-width: 0.8; stroke-linejoin: miter; stroke-linecap: square"/>
   </g>
   <g id="patch_6">
    <path d="M 72.58125 51.12 
L 429.70125 51.12 
" style="fill: none; stroke: #000000; stroke-width: 0.8; stroke-linejoin: miter; stroke-linecap: square"/>
   </g>
   <g id="text_17">
    <!-- Radius $r$ in Abhängigkeit der Stromstärke $I$ -->
    <g transform="translate(123.16125 45.12) scale(0.12 -0.12)">
     <defs>
      <path id="DejaVuSans-41" d="M 2188 4044 
L 1331 1722 
L 3047 1722 
L 2188 4044 
z
M 1831 4666 
L 2547 4666 
L 4325 0 
L 3669 0 
L 3244 1197 
L 1141 1197 
L 716 0 
L 50 0 
L 1831 4666 
z
" transform="scale(0.015625)"/>
      <path id="DejaVuSans-62" d="M 3116 1747 
Q 3116 2381 2855 2742 
Q 2594 3103 2138 3103 
Q 1681 3103 1420 2742 
Q 1159 2381 1159 1747 
Q 1159 1113 1420 752 
Q 1681 391 2138 391 
Q 2594 391 2855 752 
Q 3116 1113 3116 1747 
z
M 1159 2969 
Q 1341 3281 1617 3432 
Q 1894 3584 2278 3584 
Q 2916 3584 3314 3078 
Q 3713 2572 3713 1747 
Q 3713 922 3314 415 
Q 2916 -91 2278 -91 
Q 1894 -91 1617 61 
Q 1341 213 1159 525 
L 1159 0 
L 581 0 
L 581 4863 
L 1159 4863 
L 1159 2969 
z
" transform="scale(0.015625)"/>
      <path id="DejaVuSans-68" d="M 3513 2113 
L 3513 0 
L 2938 0 
L 2938 2094 
Q 2938 2591 2744 2837 
Q 2550 3084 2163 3084 
Q 1697 3084 1428 2787 
Q 1159 2491 1159 1978 
L 1159 0 
L 581 0 
L 581 4863 
L 1159 4863 
L 1159 2956 
Q 1366 3272 1645 3428 
Q 1925 3584 2291 3584 
Q 2894 3584 3203 3211 
Q 3513 2838 3513 2113 
z
" transform="scale(0.015625)"/>
      <path id="DejaVuSans-e4" d="M 2194 1759 
Q 1497 1759 1228 1600 
Q 959 1441 959 1056 
Q 959 750 1161 570 
Q 1363 391 1709 391 
Q 2188 391 2477 730 
Q 2766 1069 2766 1631 
L 2766 1759 
L 2194 1759 
z
M 3341 1997 
L 3341 0 
L 2766 0 
L 2766 531 
Q 2569 213 2275 61 
Q 1981 -91 1556 -91 
Q 1019 -91 701 211 
Q 384 513 384 1019 
Q 384 1609 779 1909 
Q 1175 2209 1959 2209 
L 2766 2209 
L 2766 2266 
Q 2766 2663 2505 2880 
Q 2244 3097 1772 3097 
Q 1472 3097 1187 3025 
Q 903 2953 641 2809 
L 641 3341 
Q 956 3463 1253 3523 
Q 1550 3584 1831 3584 
Q 2591 3584 2966 3190 
Q 3341 2797 3341 1997 
z
M 2150 4850 
L 2784 4850 
L 2784 4219 
L 2150 4219 
L 2150 4850 
z
M 928 4850 
L 1562 4850 
L 1562 4219 
L 928 4219 
L 928 4850 
z
" transform="scale(0.015625)"/>
      <path id="DejaVuSans-67" d="M 2906 1791 
Q 2906 2416 2648 2759 
Q 2391 3103 1925 3103 
Q 1463 3103 1205 2759 
Q 947 2416 947 1791 
Q 947 1169 1205 825 
Q 1463 481 1925 481 
Q 2391 481 2648 825 
Q 2906 1169 2906 1791 
z
M 3481 434 
Q 3481 -459 3084 -895 
Q 2688 -1331 1869 -1331 
Q 1566 -1331 1297 -1286 
Q 1028 -1241 775 -1147 
L 775 -588 
Q 1028 -725 1275 -790 
Q 1522 -856 1778 -856 
Q 2344 -856 2625 -561 
Q 2906 -266 2906 331 
L 2906 616 
Q 2728 306 2450 153 
Q 2172 0 1784 0 
Q 1141 0 747 490 
Q 353 981 353 1791 
Q 353 2603 747 3093 
Q 1141 3584 1784 3584 
Q 2172 3584 2450 3431 
Q 2728 3278 2906 2969 
L 2906 3500 
L 3481 3500 
L 3481 434 
z
" transform="scale(0.015625)"/>
      <path id="DejaVuSans-6b" d="M 581 4863 
L 1159 4863 
L 1159 1991 
L 2875 3500 
L 3609 3500 
L 1753 1863 
L 3688 0 
L 2938 0 
L 1159 1709 
L 1159 0 
L 581 0 
L 581 4863 
z
" transform="scale(0.015625)"/>
      <path id="DejaVuSans-65" d="M 3597 1894 
L 3597 1613 
L 953 1613 
Q 991 1019 1311 708 
Q 1631 397 2203 397 
Q 2534 397 2845 478 
Q 3156 559 3463 722 
L 3463 178 
Q 3153 47 2828 -22 
Q 2503 -91 2169 -91 
Q 1331 -91 842 396 
Q 353 884 353 1716 
Q 353 2575 817 3079 
Q 1281 3584 2069 3584 
Q 2775 3584 3186 3129 
Q 3597 2675 3597 1894 
z
M 3022 2063 
Q 3016 2534 2758 2815 
Q 2500 3097 2075 3097 
Q 1594 3097 1305 2825 
Q 1016 2553 972 2059 
L 3022 2063 
z
" transform="scale(0.015625)"/>
      <path id="DejaVuSans-74" d="M 1172 4494 
L 1172 3500 
L 2356 3500 
L 2356 3053 
L 1172 3053 
L 1172 1153 
Q 1172 725 1289 603 
Q 1406 481 1766 481 
L 2356 481 
L 2356 0 
L 1766 0 
Q 1100 0 847 248 
Q 594 497 594 1153 
L 594 3053 
L 172 3053 
L 172 3500 
L 594 3500 
L 594 4494 
L 1172 4494 
z
" transform="scale(0.015625)"/>
      <path id="DejaVuSans-72" d="M 2631 2963 
Q 2534 3019 2420 3045 
Q 2306 3072 2169 3072 
Q 1681 3072 1420 2755 
Q 1159 2438 1159 1844 
L 1159 0 
L 581 0 
L 581 3500 
L 1159 3500 
L 1159 2956 
Q 1341 3275 1631 3429 
Q 1922 3584 2338 3584 
Q 2397 3584 2469 3576 
Q 2541 3569 2628 3553 
L 2631 2963 
z
" transform="scale(0.015625)"/>
      <path id="DejaVuSans-53" d="M 3425 4513 
L 3425 3897 
Q 3066 4069 2747 4153 
Q 2428 4238 2131 4238 
Q 1616 4238 1336 4038 
Q 1056 3838 1056 3469 
Q 1056 3159 1242 3001 
Q 1428 2844 1947 2747 
L 2328 2669 
Q 3034 2534 3370 2195 
Q 3706 1856 3706 1288 
Q 3706 609 3251 259 
Q 2797 -91 1919 -91 
Q 1588 -91 1214 -16 
Q 841 59 441 206 
L 441 856 
Q 825 641 1194 531 
Q 1563 422 1919 422 
Q 2459 422 2753 634 
Q 3047 847 3047 1241 
Q 3047 1584 2836 1778 
Q 2625 1972 2144 2069 
L 1759 2144 
Q 1053 2284 737 2584 
Q 422 2884 422 3419 
Q 422 4038 858 4394 
Q 1294 4750 2059 4750 
Q 2388 4750 2728 4690 
Q 3069 4631 3425 4513 
z
" transform="scale(0.015625)"/>
      <path id="DejaVuSans-6f" d="M 1959 3097 
Q 1497 3097 1228 2736 
Q 959 2375 959 1747 
Q 959 1119 1226 758 
Q 1494 397 1959 397 
Q 2419 397 2687 759 
Q 2956 1122 2956 1747 
Q 2956 2369 2687 2733 
Q 2419 3097 1959 3097 
z
M 1959 3584 
Q 2709 3584 3137 3096 
Q 3566 2609 3566 1747 
Q 3566 888 3137 398 
Q 2709 -91 1959 -91 
Q 1206 -91 779 398 
Q 353 888 353 1747 
Q 353 2609 779 3096 
Q 1206 3584 1959 3584 
z
" transform="scale(0.015625)"/>
     </defs>
     <use xlink:href="#DejaVuSans-52" transform="translate(0 0.015625)"/>
     <use xlink:href="#DejaVuSans-61" transform="translate(69.482422 0.015625)"/>
     <use xlink:href="#DejaVuSans-64" transform="translate(130.761719 0.015625)"/>
     <use xlink:href="#DejaVuSans-69" transform="translate(194.238281 0.015625)"/>
     <use xlink:href="#DejaVuSans-75" transform="translate(222.021484 0.015625)"/>
     <use xlink:href="#DejaVuSans-73" transform="translate(285.400391 0.015625)"/>
     <use xlink:href="#DejaVuSans-20" transform="translate(337.5 0.015625)"/>
     <use xlink:href="#DejaVuSans-Oblique-72" transform="translate(369.287109 0.015625)"/>
     <use xlink:href="#DejaVuSans-20" transform="translate(410.400391 0.015625)"/>
     <use xlink:href="#DejaVuSans-69" transform="translate(442.1875 0.015625)"/>
     <use xlink:href="#DejaVuSans-6e" transform="translate(469.970703 0.015625)"/>
     <use xlink:href="#DejaVuSans-20" transform="translate(533.349609 0.015625)"/>
     <use xlink:href="#DejaVuSans-41" transform="translate(565.136719 0.015625)"/>
     <use xlink:href="#DejaVuSans-62" transform="translate(633.544922 0.015625)"/>
     <use xlink:href="#DejaVuSans-68" transform="translate(697.021484 0.015625)"/>
     <use xlink:href="#DejaVuSans-e4" transform="translate(760.400391 0.015625)"/>
     <use xlink:href="#DejaVuSans-6e" transform="translate(821.679688 0.015625)"/>
     <use xlink:href="#DejaVuSans-67" transform="translate(885.058594 0.015625)"/>
     <use xlink:href="#DejaVuSans-69" transform="translate(948.535156 0.015625)"/>
     <use xlink:href="#DejaVuSans-67" transform="translate(976.318359 0.015625)"/>
     <use xlink:href="#DejaVuSans-6b" transform="translate(1039.794922 0.015625)"/>
     <use xlink:href="#DejaVuSans-65" transform="translate(1097.705078 0.015625)"/>
     <use xlink:href="#DejaVuSans-69" transform="translate(1159.228516 0.015625)"/>
     <use xlink:href="#DejaVuSans-74" transform="translate(1187.011719 0.015625)"/>
     <use xlink:href="#DejaVuSans-20" transform="translate(1226.220703 0.015625)"/>
     <use xlink:href="#DejaVuSans-64" transform="translate(1258.007812 0.015625)"/>
     <use xlink:href="#DejaVuSans-65" transform="translate(1321.484375 0.015625)"/>
     <use xlink:href="#DejaVuSans-72" transform="translate(1383.007812 0.015625)"/>
     <use xlink:href="#DejaVuSans-20" transform="translate(1424.121094 0.015625)"/>
     <use xlink:href="#DejaVuSans-53" transform="translate(1455.908203 0.015625)"/>
     <use xlink:href="#DejaVuSans-74" transform="translate(1519.384766 0.015625)"/>
     <use xlink:href="#DejaVuSans-72" transform="translate(1558.59375 0.015625)"/>
     <use xlink:href="#DejaVuSans-6f" transform="translate(1599.707031 0.015625)"/>
     <use xlink:href="#DejaVuSans-6d" transform="translate(1660.888672 0.015625)"/>
     <use xlink:href="#DejaVuSans-73" transform="translate(1758.300781 0.015625)"/>
     <use xlink:href="#DejaVuSans-74" transform="translate(1810.400391 0.015625)"/>
     <use xlink:href="#DejaVuSans-e4" transform="translate(1849.609375 0.015625)"/>
     <use xlink:href="#DejaVuSans-72" transform="translate(1910.888672 0.015625)"/>
     <use xlink:href="#DejaVuSans-6b" transform="translate(1952.001953 0.015625)"/>
     <use xlink:href="#DejaVuSans-65" transform="translate(2009.912109 0.015625)"/>
     <use xlink:href="#DejaVuSans-20" transform="translate(2071.435547 0.015625)"/>
     <use xlink:href="#DejaVuSans-Oblique-49" transform="translate(2103.222656 0.015625)"/>
    </g>
   </g>
   <g id="legend_1">
    <g id="patch_7">
     <path d="M 260.70125 180.847812 
L 422.70125 180.847812 
Q 424.70125 180.847812 424.70125 178.847812 
L 424.70125 58.12 
Q 424.70125 56.12 422.70125 56.12 
L 260.70125 56.12 
Q 258.70125 56.12 258.70125 58.12 
L 258.70125 178.847812 
Q 258.70125 180.847812 260.70125 180.847812 
z
" style="fill: #ffffff; opacity: 0.8; stroke: #cccccc; stroke-linejoin: miter"/>
    </g>
    <g id="line2d_33">
     <path d="M 262.70125 70.868125 
L 272.70125 70.868125 
L 282.70125 70.868125 
" style="fill: none; stroke: #ff7f50; stroke-width: 2; stroke-linecap: square"/>
    </g>
    <g id="text_18">
     <!-- Fit zu $U_A=3$kV$y = A \cdot x$  -->
     <g transform="translate(290.70125 67.72) scale(0.1 -0.1)">
      <defs>
       <path id="DejaVuSans-46" d="M 628 4666 
L 3309 4666 
L 3309 4134 
L 1259 4134 
L 1259 2759 
L 3109 2759 
L 3109 2228 
L 1259 2228 
L 1259 0 
L 628 0 
L 628 4666 
z
" transform="scale(0.015625)"/>
       <path id="DejaVuSans-7a" d="M 353 3500 
L 3084 3500 
L 3084 2975 
L 922 459 
L 3084 459 
L 3084 0 
L 275 0 
L 275 525 
L 2438 3041 
L 353 3041 
L 353 3500 
z
" transform="scale(0.015625)"/>
       <path id="DejaVuSans-Oblique-55" d="M 991 4666 
L 1625 4666 
L 1075 1831 
Q 1041 1641 1027 1517 
Q 1013 1394 1013 1300 
Q 1013 869 1253 645 
Q 1494 422 1959 422 
Q 2563 422 2898 753 
Q 3234 1084 3378 1831 
L 3928 4666 
L 4563 4666 
L 4000 1753 
Q 3816 809 3300 359 
Q 2784 -91 1888 -91 
Q 1188 -91 780 261 
Q 372 613 372 1216 
Q 372 1325 387 1461 
Q 403 1597 434 1753 
L 991 4666 
z
" transform="scale(0.015625)"/>
       <path id="DejaVuSans-3d" d="M 678 2906 
L 4684 2906 
L 4684 2381 
L 678 2381 
L 678 2906 
z
M 678 1631 
L 4684 1631 
L 4684 1100 
L 678 1100 
L 678 1631 
z
" transform="scale(0.015625)"/>
       <path id="DejaVuSans-56" d="M 1831 0 
L 50 4666 
L 709 4666 
L 2188 738 
L 3669 4666 
L 4325 4666 
L 2547 0 
L 1831 0 
z
" transform="scale(0.015625)"/>
       <path id="DejaVuSans-Oblique-79" d="M 1588 -325 
Q 1188 -997 936 -1164 
Q 684 -1331 294 -1331 
L -159 -1331 
L -63 -850 
L 269 -850 
Q 509 -850 678 -719 
Q 847 -588 1056 -206 
L 1234 128 
L 459 3500 
L 1069 3500 
L 1650 819 
L 3256 3500 
L 3859 3500 
L 1588 -325 
z
" transform="scale(0.015625)"/>
       <path id="DejaVuSans-22c5" d="M 684 2619 
L 1344 2619 
L 1344 1825 
L 684 1825 
L 684 2619 
z
" transform="scale(0.015625)"/>
       <path id="DejaVuSans-Oblique-78" d="M 3841 3500 
L 2234 1784 
L 3219 0 
L 2559 0 
L 1819 1388 
L 531 0 
L -166 0 
L 1556 1844 
L 641 3500 
L 1300 3500 
L 1972 2234 
L 3144 3500 
L 3841 3500 
z
" transform="scale(0.015625)"/>
      </defs>
      <use xlink:href="#DejaVuSans-46" transform="translate(0 0.015625)"/>
      <use xlink:href="#DejaVuSans-69" transform="translate(57.519531 0.015625)"/>
      <use xlink:href="#DejaVuSans-74" transform="translate(85.302734 0.015625)"/>
      <use xlink:href="#DejaVuSans-20" transform="translate(124.511719 0.015625)"/>
      <use xlink:href="#DejaVuSans-7a" transform="translate(156.298828 0.015625)"/>
      <use xlink:href="#DejaVuSans-75" transform="translate(208.789062 0.015625)"/>
      <use xlink:href="#DejaVuSans-20" transform="translate(272.167969 0.015625)"/>
      <use xlink:href="#DejaVuSans-Oblique-55" transform="translate(303.955078 0.015625)"/>
      <use xlink:href="#DejaVuSans-Oblique-41" transform="translate(377.148438 -16.390625) scale(0.7)"/>
      <use xlink:href="#DejaVuSans-3d" transform="translate(447.250977 0.015625)"/>
      <use xlink:href="#DejaVuSans-33" transform="translate(550.522461 0.015625)"/>
      <use xlink:href="#DejaVuSans-6b" transform="translate(614.145508 0.015625)"/>
      <use xlink:href="#DejaVuSans-56" transform="translate(672.055664 0.015625)"/>
      <use xlink:href="#DejaVuSans-Oblique-79" transform="translate(740.463867 0.015625)"/>
      <use xlink:href="#DejaVuSans-3d" transform="translate(819.125977 0.015625)"/>
      <use xlink:href="#DejaVuSans-Oblique-41" transform="translate(922.397461 0.015625)"/>
      <use xlink:href="#DejaVuSans-22c5" transform="translate(1010.288086 0.015625)"/>
      <use xlink:href="#DejaVuSans-Oblique-78" transform="translate(1061.557617 0.015625)"/>
      <use xlink:href="#DejaVuSans-20" transform="translate(1120.737305 0.015625)"/>
     </g>
     <!--  $A = 0.000302 \pm 0.000010$ -->
     <g transform="translate(290.70125 78.938125) scale(0.1 -0.1)">
      <defs>
       <path id="DejaVuSans-b1" d="M 2944 4013 
L 2944 2803 
L 4684 2803 
L 4684 2272 
L 2944 2272 
L 2944 1063 
L 2419 1063 
L 2419 2272 
L 678 2272 
L 678 2803 
L 2419 2803 
L 2419 4013 
L 2944 4013 
z
M 678 531 
L 4684 531 
L 4684 0 
L 678 0 
L 678 531 
z
" transform="scale(0.015625)"/>
      </defs>
      <use xlink:href="#DejaVuSans-20" transform="translate(0 0.78125)"/>
      <use xlink:href="#DejaVuSans-Oblique-41" transform="translate(31.787109 0.78125)"/>
      <use xlink:href="#DejaVuSans-3d" transform="translate(119.677734 0.78125)"/>
      <use xlink:href="#DejaVuSans-30" transform="translate(222.949219 0.78125)"/>
      <use xlink:href="#DejaVuSans-2e" transform="translate(286.572266 0.78125)"/>
      <use xlink:href="#DejaVuSans-30" transform="translate(318.359375 0.78125)"/>
      <use xlink:href="#DejaVuSans-30" transform="translate(381.982422 0.78125)"/>
      <use xlink:href="#DejaVuSans-30" transform="translate(445.605469 0.78125)"/>
      <use xlink:href="#DejaVuSans-33" transform="translate(509.228516 0.78125)"/>
      <use xlink:href="#DejaVuSans-30" transform="translate(572.851562 0.78125)"/>
      <use xlink:href="#DejaVuSans-32" transform="translate(636.474609 0.78125)"/>
      <use xlink:href="#DejaVuSans-b1" transform="translate(719.580078 0.78125)"/>
      <use xlink:href="#DejaVuSans-30" transform="translate(822.851562 0.78125)"/>
      <use xlink:href="#DejaVuSans-2e" transform="translate(886.474609 0.78125)"/>
      <use xlink:href="#DejaVuSans-30" transform="translate(918.261719 0.78125)"/>
      <use xlink:href="#DejaVuSans-30" transform="translate(981.884766 0.78125)"/>
      <use xlink:href="#DejaVuSans-30" transform="translate(1045.507812 0.78125)"/>
      <use xlink:href="#DejaVuSans-30" transform="translate(1109.130859 0.78125)"/>
      <use xlink:href="#DejaVuSans-31" transform="translate(1172.753906 0.78125)"/>
      <use xlink:href="#DejaVuSans-30" transform="translate(1236.376953 0.78125)"/>
     </g>
    </g>
    <g id="line2d_34">
     <path d="M 262.70125 96.765937 
L 272.70125 96.765937 
L 282.70125 96.765937 
" style="fill: none; stroke: #add8e6; stroke-width: 2; stroke-linecap: square"/>
    </g>
    <g id="text_19">
     <!-- Fit zu $U_A=4$kV$y = A \cdot x$  -->
     <g transform="translate(290.70125 93.617812) scale(0.1 -0.1)">
      <use xlink:href="#DejaVuSans-46" transform="translate(0 0.015625)"/>
      <use xlink:href="#DejaVuSans-69" transform="translate(57.519531 0.015625)"/>
      <use xlink:href="#DejaVuSans-74" transform="translate(85.302734 0.015625)"/>
      <use xlink:href="#DejaVuSans-20" transform="translate(124.511719 0.015625)"/>
      <use xlink:href="#DejaVuSans-7a" transform="translate(156.298828 0.015625)"/>
      <use xlink:href="#DejaVuSans-75" transform="translate(208.789062 0.015625)"/>
      <use xlink:href="#DejaVuSans-20" transform="translate(272.167969 0.015625)"/>
      <use xlink:href="#DejaVuSans-Oblique-55" transform="translate(303.955078 0.015625)"/>
      <use xlink:href="#DejaVuSans-Oblique-41" transform="translate(377.148438 -16.390625) scale(0.7)"/>
      <use xlink:href="#DejaVuSans-3d" transform="translate(447.250977 0.015625)"/>
      <use xlink:href="#DejaVuSans-34" transform="translate(550.522461 0.015625)"/>
      <use xlink:href="#DejaVuSans-6b" transform="translate(614.145508 0.015625)"/>
      <use xlink:href="#DejaVuSans-56" transform="translate(672.055664 0.015625)"/>
      <use xlink:href="#DejaVuSans-Oblique-79" transform="translate(740.463867 0.015625)"/>
      <use xlink:href="#DejaVuSans-3d" transform="translate(819.125977 0.015625)"/>
      <use xlink:href="#DejaVuSans-Oblique-41" transform="translate(922.397461 0.015625)"/>
      <use xlink:href="#DejaVuSans-22c5" transform="translate(1010.288086 0.015625)"/>
      <use xlink:href="#DejaVuSans-Oblique-78" transform="translate(1061.557617 0.015625)"/>
      <use xlink:href="#DejaVuSans-20" transform="translate(1120.737305 0.015625)"/>
     </g>
     <!--  $A = 0.000262 \pm 0.000005$ -->
     <g transform="translate(290.70125 104.835937) scale(0.1 -0.1)">
      <use xlink:href="#DejaVuSans-20" transform="translate(0 0.78125)"/>
      <use xlink:href="#DejaVuSans-Oblique-41" transform="translate(31.787109 0.78125)"/>
      <use xlink:href="#DejaVuSans-3d" transform="translate(119.677734 0.78125)"/>
      <use xlink:href="#DejaVuSans-30" transform="translate(222.949219 0.78125)"/>
      <use xlink:href="#DejaVuSans-2e" transform="translate(286.572266 0.78125)"/>
      <use xlink:href="#DejaVuSans-30" transform="translate(318.359375 0.78125)"/>
      <use xlink:href="#DejaVuSans-30" transform="translate(381.982422 0.78125)"/>
      <use xlink:href="#DejaVuSans-30" transform="translate(445.605469 0.78125)"/>
      <use xlink:href="#DejaVuSans-32" transform="translate(509.228516 0.78125)"/>
      <use xlink:href="#DejaVuSans-36" transform="translate(572.851562 0.78125)"/>
      <use xlink:href="#DejaVuSans-32" transform="translate(636.474609 0.78125)"/>
      <use xlink:href="#DejaVuSans-b1" transform="translate(719.580078 0.78125)"/>
      <use xlink:href="#DejaVuSans-30" transform="translate(822.851562 0.78125)"/>
      <use xlink:href="#DejaVuSans-2e" transform="translate(886.474609 0.78125)"/>
      <use xlink:href="#DejaVuSans-30" transform="translate(918.261719 0.78125)"/>
      <use xlink:href="#DejaVuSans-30" transform="translate(981.884766 0.78125)"/>
      <use xlink:href="#DejaVuSans-30" transform="translate(1045.507812 0.78125)"/>
      <use xlink:href="#DejaVuSans-30" transform="translate(1109.130859 0.78125)"/>
      <use xlink:href="#DejaVuSans-30" transform="translate(1172.753906 0.78125)"/>
      <use xlink:href="#DejaVuSans-35" transform="translate(1236.376953 0.78125)"/>
     </g>
    </g>
    <g id="line2d_35">
     <path d="M 262.70125 122.66375 
L 272.70125 122.66375 
L 282.70125 122.66375 
" style="fill: none; stroke: #32cd32; stroke-width: 2; stroke-linecap: square"/>
    </g>
    <g id="text_20">
     <!-- Fit zu $U_A=5$kV$y = A \cdot x$  -->
     <g transform="translate(290.70125 119.515625) scale(0.1 -0.1)">
      <use xlink:href="#DejaVuSans-46" transform="translate(0 0.015625)"/>
      <use xlink:href="#DejaVuSans-69" transform="translate(57.519531 0.015625)"/>
      <use xlink:href="#DejaVuSans-74" transform="translate(85.302734 0.015625)"/>
      <use xlink:href="#DejaVuSans-20" transform="translate(124.511719 0.015625)"/>
      <use xlink:href="#DejaVuSans-7a" transform="translate(156.298828 0.015625)"/>
      <use xlink:href="#DejaVuSans-75" transform="translate(208.789062 0.015625)"/>
      <use xlink:href="#DejaVuSans-20" transform="translate(272.167969 0.015625)"/>
      <use xlink:href="#DejaVuSans-Oblique-55" transform="translate(303.955078 0.015625)"/>
      <use xlink:href="#DejaVuSans-Oblique-41" transform="translate(377.148438 -16.390625) scale(0.7)"/>
      <use xlink:href="#DejaVuSans-3d" transform="translate(447.250977 0.015625)"/>
      <use xlink:href="#DejaVuSans-35" transform="translate(550.522461 0.015625)"/>
      <use xlink:href="#DejaVuSans-6b" transform="translate(614.145508 0.015625)"/>
      <use xlink:href="#DejaVuSans-56" transform="translate(672.055664 0.015625)"/>
      <use xlink:href="#DejaVuSans-Oblique-79" transform="translate(740.463867 0.015625)"/>
      <use xlink:href="#DejaVuSans-3d" transform="translate(819.125977 0.015625)"/>
      <use xlink:href="#DejaVuSans-Oblique-41" transform="translate(922.397461 0.015625)"/>
      <use xlink:href="#DejaVuSans-22c5" transform="translate(1010.288086 0.015625)"/>
      <use xlink:href="#DejaVuSans-Oblique-78" transform="translate(1061.557617 0.015625)"/>
      <use xlink:href="#DejaVuSans-20" transform="translate(1120.737305 0.015625)"/>
     </g>
     <!--  $A = 0.000365 \pm 0.000010$ -->
     <g transform="translate(290.70125 130.73375) scale(0.1 -0.1)">
      <use xlink:href="#DejaVuSans-20" transform="translate(0 0.78125)"/>
      <use xlink:href="#DejaVuSans-Oblique-41" transform="translate(31.787109 0.78125)"/>
      <use xlink:href="#DejaVuSans-3d" transform="translate(119.677734 0.78125)"/>
      <use xlink:href="#DejaVuSans-30" transform="translate(222.949219 0.78125)"/>
      <use xlink:href="#DejaVuSans-2e" transform="translate(286.572266 0.78125)"/>
      <use xlink:href="#DejaVuSans-30" transform="translate(318.359375 0.78125)"/>
      <use xlink:href="#DejaVuSans-30" transform="translate(381.982422 0.78125)"/>
      <use xlink:href="#DejaVuSans-30" transform="translate(445.605469 0.78125)"/>
      <use xlink:href="#DejaVuSans-33" transform="translate(509.228516 0.78125)"/>
      <use xlink:href="#DejaVuSans-36" transform="translate(572.851562 0.78125)"/>
      <use xlink:href="#DejaVuSans-35" transform="translate(636.474609 0.78125)"/>
      <use xlink:href="#DejaVuSans-b1" transform="translate(719.580078 0.78125)"/>
      <use xlink:href="#DejaVuSans-30" transform="translate(822.851562 0.78125)"/>
      <use xlink:href="#DejaVuSans-2e" transform="translate(886.474609 0.78125)"/>
      <use xlink:href="#DejaVuSans-30" transform="translate(918.261719 0.78125)"/>
      <use xlink:href="#DejaVuSans-30" transform="translate(981.884766 0.78125)"/>
      <use xlink:href="#DejaVuSans-30" transform="translate(1045.507812 0.78125)"/>
      <use xlink:href="#DejaVuSans-30" transform="translate(1109.130859 0.78125)"/>
      <use xlink:href="#DejaVuSans-31" transform="translate(1172.753906 0.78125)"/>
      <use xlink:href="#DejaVuSans-30" transform="translate(1236.376953 0.78125)"/>
     </g>
    </g>
    <g id="LineCollection_7">
     <path d="M 267.70125 141.911875 
L 277.70125 141.911875 
" style="fill: none; stroke: #ff0000; stroke-width: 1.5"/>
    </g>
    <g id="LineCollection_8">
     <path d="M 272.70125 146.911875 
L 272.70125 136.911875 
" style="fill: none; stroke: #ff0000; stroke-width: 1.5"/>
    </g>
    <g id="line2d_36">
     <g>
      <use xlink:href="#mf86b39f85e" x="267.70125" y="141.911875" style="fill: #ff0000; stroke: #ff0000"/>
     </g>
    </g>
    <g id="line2d_37">
     <g>
      <use xlink:href="#mf86b39f85e" x="277.70125" y="141.911875" style="fill: #ff0000; stroke: #ff0000"/>
     </g>
    </g>
    <g id="line2d_38">
     <g>
      <use xlink:href="#m3ae29e67a5" x="272.70125" y="146.911875" style="fill: #ff0000; stroke: #ff0000"/>
     </g>
    </g>
    <g id="line2d_39">
     <g>
      <use xlink:href="#m3ae29e67a5" x="272.70125" y="136.911875" style="fill: #ff0000; stroke: #ff0000"/>
     </g>
    </g>
    <g id="line2d_40"/>
    <g id="line2d_41">
     <g>
      <use xlink:href="#mbd78f1cfc8" x="272.70125" y="141.911875" style="fill: #ff0000; stroke: #ff0000"/>
     </g>
    </g>
    <g id="text_21">
     <!-- $U_A=3$kV -->
     <g transform="translate(290.70125 145.411875) scale(0.1 -0.1)">
      <use xlink:href="#DejaVuSans-Oblique-55" transform="translate(0 0.015625)"/>
      <use xlink:href="#DejaVuSans-Oblique-41" transform="translate(73.193359 -16.390625) scale(0.7)"/>
      <use xlink:href="#DejaVuSans-3d" transform="translate(143.295898 0.015625)"/>
      <use xlink:href="#DejaVuSans-33" transform="translate(246.567383 0.015625)"/>
      <use xlink:href="#DejaVuSans-6b" transform="translate(310.19043 0.015625)"/>
      <use xlink:href="#DejaVuSans-56" transform="translate(368.100586 0.015625)"/>
     </g>
    </g>
    <g id="LineCollection_9">
     <path d="M 267.70125 156.59 
L 277.70125 156.59 
" style="fill: none; stroke: #0000ff; stroke-width: 1.5"/>
    </g>
    <g id="LineCollection_10">
     <path d="M 272.70125 161.59 
L 272.70125 151.59 
" style="fill: none; stroke: #0000ff; stroke-width: 1.5"/>
    </g>
    <g id="line2d_42">
     <g>
      <use xlink:href="#m22307cdd9a" x="267.70125" y="156.59" style="fill: #0000ff; stroke: #0000ff"/>
     </g>
    </g>
    <g id="line2d_43">
     <g>
      <use xlink:href="#m22307cdd9a" x="277.70125" y="156.59" style="fill: #0000ff; stroke: #0000ff"/>
     </g>
    </g>
    <g id="line2d_44">
     <g>
      <use xlink:href="#m0abb70fa80" x="272.70125" y="161.59" style="fill: #0000ff; stroke: #0000ff"/>
     </g>
    </g>
    <g id="line2d_45">
     <g>
      <use xlink:href="#m0abb70fa80" x="272.70125" y="151.59" style="fill: #0000ff; stroke: #0000ff"/>
     </g>
    </g>
    <g id="line2d_46"/>
    <g id="line2d_47">
     <g>
      <use xlink:href="#m49640a3686" x="272.70125" y="156.59" style="fill: #0000ff; stroke: #0000ff"/>
     </g>
    </g>
    <g id="text_22">
     <!-- $U_A=4$kV -->
     <g transform="translate(290.70125 160.09) scale(0.1 -0.1)">
      <use xlink:href="#DejaVuSans-Oblique-55" transform="translate(0 0.015625)"/>
      <use xlink:href="#DejaVuSans-Oblique-41" transform="translate(73.193359 -16.390625) scale(0.7)"/>
      <use xlink:href="#DejaVuSans-3d" transform="translate(143.295898 0.015625)"/>
      <use xlink:href="#DejaVuSans-34" transform="translate(246.567383 0.015625)"/>
      <use xlink:href="#DejaVuSans-6b" transform="translate(310.19043 0.015625)"/>
      <use xlink:href="#DejaVuSans-56" transform="translate(368.100586 0.015625)"/>
     </g>
    </g>
    <g id="LineCollection_11">
     <path d="M 267.70125 171.268125 
L 277.70125 171.268125 
" style="fill: none; stroke: #008000; stroke-width: 1.5"/>
    </g>
    <g id="LineCollection_12">
     <path d="M 272.70125 176.268125 
L 272.70125 166.268125 
" style="fill: none; stroke: #008000; stroke-width: 1.5"/>
    </g>
    <g id="line2d_48">
     <g>
      <use xlink:href="#m5ddcc2a279" x="267.70125" y="171.268125" style="fill: #008000; stroke: #008000"/>
     </g>
    </g>
    <g id="line2d_49">
     <g>
      <use xlink:href="#m5ddcc2a279" x="277.70125" y="171.268125" style="fill: #008000; stroke: #008000"/>
     </g>
    </g>
    <g id="line2d_50">
     <g>
      <use xlink:href="#m92cf3de72e" x="272.70125" y="176.268125" style="fill: #008000; stroke: #008000"/>
     </g>
    </g>
    <g id="line2d_51">
     <g>
      <use xlink:href="#m92cf3de72e" x="272.70125" y="166.268125" style="fill: #008000; stroke: #008000"/>
     </g>
    </g>
    <g id="line2d_52"/>
    <g id="line2d_53">
     <g>
      <use xlink:href="#m0a65ce622e" x="272.70125" y="171.268125" style="fill: #008000; stroke: #008000"/>
     </g>
    </g>
    <g id="text_23">
     <!-- $U_A=5$kV -->
     <g transform="translate(290.70125 174.768125) scale(0.1 -0.1)">
      <use xlink:href="#DejaVuSans-Oblique-55" transform="translate(0 0.015625)"/>
      <use xlink:href="#DejaVuSans-Oblique-41" transform="translate(73.193359 -16.390625) scale(0.7)"/>
      <use xlink:href="#DejaVuSans-3d" transform="translate(143.295898 0.015625)"/>
      <use xlink:href="#DejaVuSans-35" transform="translate(246.567383 0.015625)"/>
      <use xlink:href="#DejaVuSans-6b" transform="translate(310.19043 0.015625)"/>
      <use xlink:href="#DejaVuSans-56" transform="translate(368.100586 0.015625)"/>
     </g>
    </g>
   </g>
  </g>
 </g>
 <defs>
  <clipPath id="p729e0df4c8">
   <rect x="72.58125" y="51.12" width="357.12" height="266.112"/>
  </clipPath>
 </defs>
</svg>
