<?xml version="1.0" encoding="utf-8" standalone="no"?>
<!DOCTYPE svg PUBLIC "-//W3C//DTD SVG 1.1//EN"
  "http://www.w3.org/Graphics/SVG/1.1/DTD/svg11.dtd">
<svg xmlns:xlink="http://www.w3.org/1999/xlink" width="472.8075pt" height="385.890125pt" viewBox="0 0 472.8075 385.890125" xmlns="http://www.w3.org/2000/svg" version="1.1">
 <metadata>
  <rdf:RDF xmlns:dc="http://purl.org/dc/elements/1.1/" xmlns:cc="http://creativecommons.org/ns#" xmlns:rdf="http://www.w3.org/1999/02/22-rdf-syntax-ns#">
   <cc:Work>
    <dc:type rdf:resource="http://purl.org/dc/dcmitype/StillImage"/>
    <dc:date>2025-04-16T18:04:31.623916</dc:date>
    <dc:format>image/svg+xml</dc:format>
    <dc:creator>
     <cc:Agent>
      <dc:title>Matplotlib v3.10.1, https://matplotlib.org/</dc:title>
     </cc:Agent>
    </dc:creator>
   </cc:Work>
  </rdf:RDF>
 </metadata>
 <defs>
  <style type="text/css">*{stroke-linejoin: round; stroke-linecap: butt}</style>
 </defs>
 <g id="figure_1">
  <g id="patch_1">
   <path d="M 0 385.890125 
L 472.8075 385.890125 
L 472.8075 0 
L 0 0 
z
" style="fill: #ffffff"/>
  </g>
  <g id="axes_1">
   <g id="patch_2">
    <path d="M 79.6875 319.512 
L 436.8075 319.512 
L 436.8075 53.4 
L 79.6875 53.4 
z
" style="fill: #ffffff"/>
   </g>
   <g id="matplotlib.axis_1">
    <g id="xtick_1">
     <g id="line2d_1">
      <defs>
       <path id="m20c2b7e9ca" d="M 0 0 
L 0 3.5 
" style="stroke: #000000; stroke-width: 0.8"/>
      </defs>
      <g>
       <use xlink:href="#m20c2b7e9ca" x="79.6875" y="319.512" style="stroke: #000000; stroke-width: 0.8"/>
      </g>
     </g>
     <g id="text_1">
      <!-- 0.0 -->
      <g transform="translate(71.735938 334.110437) scale(0.1 -0.1)">
       <defs>
        <path id="DejaVuSans-30" d="M 2034 4250 
Q 1547 4250 1301 3770 
Q 1056 3291 1056 2328 
Q 1056 1369 1301 889 
Q 1547 409 2034 409 
Q 2525 409 2770 889 
Q 3016 1369 3016 2328 
Q 3016 3291 2770 3770 
Q 2525 4250 2034 4250 
z
M 2034 4750 
Q 2819 4750 3233 4129 
Q 3647 3509 3647 2328 
Q 3647 1150 3233 529 
Q 2819 -91 2034 -91 
Q 1250 -91 836 529 
Q 422 1150 422 2328 
Q 422 3509 836 4129 
Q 1250 4750 2034 4750 
z
" transform="scale(0.015625)"/>
        <path id="DejaVuSans-2e" d="M 684 794 
L 1344 794 
L 1344 0 
L 684 0 
L 684 794 
z
" transform="scale(0.015625)"/>
       </defs>
       <use xlink:href="#DejaVuSans-30"/>
       <use xlink:href="#DejaVuSans-2e" transform="translate(63.623047 0)"/>
       <use xlink:href="#DejaVuSans-30" transform="translate(95.410156 0)"/>
      </g>
     </g>
    </g>
    <g id="xtick_2">
     <g id="line2d_2">
      <g>
       <use xlink:href="#m20c2b7e9ca" x="130.705372" y="319.512" style="stroke: #000000; stroke-width: 0.8"/>
      </g>
     </g>
     <g id="text_2">
      <!-- 0.1 -->
      <g transform="translate(122.753809 334.110437) scale(0.1 -0.1)">
       <defs>
        <path id="DejaVuSans-31" d="M 794 531 
L 1825 531 
L 1825 4091 
L 703 3866 
L 703 4441 
L 1819 4666 
L 2450 4666 
L 2450 531 
L 3481 531 
L 3481 0 
L 794 0 
L 794 531 
z
" transform="scale(0.015625)"/>
       </defs>
       <use xlink:href="#DejaVuSans-30"/>
       <use xlink:href="#DejaVuSans-2e" transform="translate(63.623047 0)"/>
       <use xlink:href="#DejaVuSans-31" transform="translate(95.410156 0)"/>
      </g>
     </g>
    </g>
    <g id="xtick_3">
     <g id="line2d_3">
      <g>
       <use xlink:href="#m20c2b7e9ca" x="181.723243" y="319.512" style="stroke: #000000; stroke-width: 0.8"/>
      </g>
     </g>
     <g id="text_3">
      <!-- 0.2 -->
      <g transform="translate(173.771681 334.110437) scale(0.1 -0.1)">
       <defs>
        <path id="DejaVuSans-32" d="M 1228 531 
L 3431 531 
L 3431 0 
L 469 0 
L 469 531 
Q 828 903 1448 1529 
Q 2069 2156 2228 2338 
Q 2531 2678 2651 2914 
Q 2772 3150 2772 3378 
Q 2772 3750 2511 3984 
Q 2250 4219 1831 4219 
Q 1534 4219 1204 4116 
Q 875 4013 500 3803 
L 500 4441 
Q 881 4594 1212 4672 
Q 1544 4750 1819 4750 
Q 2544 4750 2975 4387 
Q 3406 4025 3406 3419 
Q 3406 3131 3298 2873 
Q 3191 2616 2906 2266 
Q 2828 2175 2409 1742 
Q 1991 1309 1228 531 
z
" transform="scale(0.015625)"/>
       </defs>
       <use xlink:href="#DejaVuSans-30"/>
       <use xlink:href="#DejaVuSans-2e" transform="translate(63.623047 0)"/>
       <use xlink:href="#DejaVuSans-32" transform="translate(95.410156 0)"/>
      </g>
     </g>
    </g>
    <g id="xtick_4">
     <g id="line2d_4">
      <g>
       <use xlink:href="#m20c2b7e9ca" x="232.741115" y="319.512" style="stroke: #000000; stroke-width: 0.8"/>
      </g>
     </g>
     <g id="text_4">
      <!-- 0.3 -->
      <g transform="translate(224.789553 334.110437) scale(0.1 -0.1)">
       <defs>
        <path id="DejaVuSans-33" d="M 2597 2516 
Q 3050 2419 3304 2112 
Q 3559 1806 3559 1356 
Q 3559 666 3084 287 
Q 2609 -91 1734 -91 
Q 1441 -91 1130 -33 
Q 819 25 488 141 
L 488 750 
Q 750 597 1062 519 
Q 1375 441 1716 441 
Q 2309 441 2620 675 
Q 2931 909 2931 1356 
Q 2931 1769 2642 2001 
Q 2353 2234 1838 2234 
L 1294 2234 
L 1294 2753 
L 1863 2753 
Q 2328 2753 2575 2939 
Q 2822 3125 2822 3475 
Q 2822 3834 2567 4026 
Q 2313 4219 1838 4219 
Q 1578 4219 1281 4162 
Q 984 4106 628 3988 
L 628 4550 
Q 988 4650 1302 4700 
Q 1616 4750 1894 4750 
Q 2613 4750 3031 4423 
Q 3450 4097 3450 3541 
Q 3450 3153 3228 2886 
Q 3006 2619 2597 2516 
z
" transform="scale(0.015625)"/>
       </defs>
       <use xlink:href="#DejaVuSans-30"/>
       <use xlink:href="#DejaVuSans-2e" transform="translate(63.623047 0)"/>
       <use xlink:href="#DejaVuSans-33" transform="translate(95.410156 0)"/>
      </g>
     </g>
    </g>
    <g id="xtick_5">
     <g id="line2d_5">
      <g>
       <use xlink:href="#m20c2b7e9ca" x="283.758987" y="319.512" style="stroke: #000000; stroke-width: 0.8"/>
      </g>
     </g>
     <g id="text_5">
      <!-- 0.4 -->
      <g transform="translate(275.807424 334.110437) scale(0.1 -0.1)">
       <defs>
        <path id="DejaVuSans-34" d="M 2419 4116 
L 825 1625 
L 2419 1625 
L 2419 4116 
z
M 2253 4666 
L 3047 4666 
L 3047 1625 
L 3713 1625 
L 3713 1100 
L 3047 1100 
L 3047 0 
L 2419 0 
L 2419 1100 
L 313 1100 
L 313 1709 
L 2253 4666 
z
" transform="scale(0.015625)"/>
       </defs>
       <use xlink:href="#DejaVuSans-30"/>
       <use xlink:href="#DejaVuSans-2e" transform="translate(63.623047 0)"/>
       <use xlink:href="#DejaVuSans-34" transform="translate(95.410156 0)"/>
      </g>
     </g>
    </g>
    <g id="xtick_6">
     <g id="line2d_6">
      <g>
       <use xlink:href="#m20c2b7e9ca" x="334.776858" y="319.512" style="stroke: #000000; stroke-width: 0.8"/>
      </g>
     </g>
     <g id="text_6">
      <!-- 0.5 -->
      <g transform="translate(326.825296 334.110437) scale(0.1 -0.1)">
       <defs>
        <path id="DejaVuSans-35" d="M 691 4666 
L 3169 4666 
L 3169 4134 
L 1269 4134 
L 1269 2991 
Q 1406 3038 1543 3061 
Q 1681 3084 1819 3084 
Q 2600 3084 3056 2656 
Q 3513 2228 3513 1497 
Q 3513 744 3044 326 
Q 2575 -91 1722 -91 
Q 1428 -91 1123 -41 
Q 819 9 494 109 
L 494 744 
Q 775 591 1075 516 
Q 1375 441 1709 441 
Q 2250 441 2565 725 
Q 2881 1009 2881 1497 
Q 2881 1984 2565 2268 
Q 2250 2553 1709 2553 
Q 1456 2553 1204 2497 
Q 953 2441 691 2322 
L 691 4666 
z
" transform="scale(0.015625)"/>
       </defs>
       <use xlink:href="#DejaVuSans-30"/>
       <use xlink:href="#DejaVuSans-2e" transform="translate(63.623047 0)"/>
       <use xlink:href="#DejaVuSans-35" transform="translate(95.410156 0)"/>
      </g>
     </g>
    </g>
    <g id="xtick_7">
     <g id="line2d_7">
      <g>
       <use xlink:href="#m20c2b7e9ca" x="385.79473" y="319.512" style="stroke: #000000; stroke-width: 0.8"/>
      </g>
     </g>
     <g id="text_7">
      <!-- 0.6 -->
      <g transform="translate(377.843168 334.110437) scale(0.1 -0.1)">
       <defs>
        <path id="DejaVuSans-36" d="M 2113 2584 
Q 1688 2584 1439 2293 
Q 1191 2003 1191 1497 
Q 1191 994 1439 701 
Q 1688 409 2113 409 
Q 2538 409 2786 701 
Q 3034 994 3034 1497 
Q 3034 2003 2786 2293 
Q 2538 2584 2113 2584 
z
M 3366 4563 
L 3366 3988 
Q 3128 4100 2886 4159 
Q 2644 4219 2406 4219 
Q 1781 4219 1451 3797 
Q 1122 3375 1075 2522 
Q 1259 2794 1537 2939 
Q 1816 3084 2150 3084 
Q 2853 3084 3261 2657 
Q 3669 2231 3669 1497 
Q 3669 778 3244 343 
Q 2819 -91 2113 -91 
Q 1303 -91 875 529 
Q 447 1150 447 2328 
Q 447 3434 972 4092 
Q 1497 4750 2381 4750 
Q 2619 4750 2861 4703 
Q 3103 4656 3366 4563 
z
" transform="scale(0.015625)"/>
       </defs>
       <use xlink:href="#DejaVuSans-30"/>
       <use xlink:href="#DejaVuSans-2e" transform="translate(63.623047 0)"/>
       <use xlink:href="#DejaVuSans-36" transform="translate(95.410156 0)"/>
      </g>
     </g>
    </g>
    <g id="text_8">
     <!-- Saitenlänge $L$ in m -->
     <g transform="translate(211.5475 347.790125) scale(0.1 -0.1)">
      <defs>
       <path id="DejaVuSans-53" d="M 3425 4513 
L 3425 3897 
Q 3066 4069 2747 4153 
Q 2428 4238 2131 4238 
Q 1616 4238 1336 4038 
Q 1056 3838 1056 3469 
Q 1056 3159 1242 3001 
Q 1428 2844 1947 2747 
L 2328 2669 
Q 3034 2534 3370 2195 
Q 3706 1856 3706 1288 
Q 3706 609 3251 259 
Q 2797 -91 1919 -91 
Q 1588 -91 1214 -16 
Q 841 59 441 206 
L 441 856 
Q 825 641 1194 531 
Q 1563 422 1919 422 
Q 2459 422 2753 634 
Q 3047 847 3047 1241 
Q 3047 1584 2836 1778 
Q 2625 1972 2144 2069 
L 1759 2144 
Q 1053 2284 737 2584 
Q 422 2884 422 3419 
Q 422 4038 858 4394 
Q 1294 4750 2059 4750 
Q 2388 4750 2728 4690 
Q 3069 4631 3425 4513 
z
" transform="scale(0.015625)"/>
       <path id="DejaVuSans-61" d="M 2194 1759 
Q 1497 1759 1228 1600 
Q 959 1441 959 1056 
Q 959 750 1161 570 
Q 1363 391 1709 391 
Q 2188 391 2477 730 
Q 2766 1069 2766 1631 
L 2766 1759 
L 2194 1759 
z
M 3341 1997 
L 3341 0 
L 2766 0 
L 2766 531 
Q 2569 213 2275 61 
Q 1981 -91 1556 -91 
Q 1019 -91 701 211 
Q 384 513 384 1019 
Q 384 1609 779 1909 
Q 1175 2209 1959 2209 
L 2766 2209 
L 2766 2266 
Q 2766 2663 2505 2880 
Q 2244 3097 1772 3097 
Q 1472 3097 1187 3025 
Q 903 2953 641 2809 
L 641 3341 
Q 956 3463 1253 3523 
Q 1550 3584 1831 3584 
Q 2591 3584 2966 3190 
Q 3341 2797 3341 1997 
z
" transform="scale(0.015625)"/>
       <path id="DejaVuSans-69" d="M 603 3500 
L 1178 3500 
L 1178 0 
L 603 0 
L 603 3500 
z
M 603 4863 
L 1178 4863 
L 1178 4134 
L 603 4134 
L 603 4863 
z
" transform="scale(0.015625)"/>
       <path id="DejaVuSans-74" d="M 1172 4494 
L 1172 3500 
L 2356 3500 
L 2356 3053 
L 1172 3053 
L 1172 1153 
Q 1172 725 1289 603 
Q 1406 481 1766 481 
L 2356 481 
L 2356 0 
L 1766 0 
Q 1100 0 847 248 
Q 594 497 594 1153 
L 594 3053 
L 172 3053 
L 172 3500 
L 594 3500 
L 594 4494 
L 1172 4494 
z
" transform="scale(0.015625)"/>
       <path id="DejaVuSans-65" d="M 3597 1894 
L 3597 1613 
L 953 1613 
Q 991 1019 1311 708 
Q 1631 397 2203 397 
Q 2534 397 2845 478 
Q 3156 559 3463 722 
L 3463 178 
Q 3153 47 2828 -22 
Q 2503 -91 2169 -91 
Q 1331 -91 842 396 
Q 353 884 353 1716 
Q 353 2575 817 3079 
Q 1281 3584 2069 3584 
Q 2775 3584 3186 3129 
Q 3597 2675 3597 1894 
z
M 3022 2063 
Q 3016 2534 2758 2815 
Q 2500 3097 2075 3097 
Q 1594 3097 1305 2825 
Q 1016 2553 972 2059 
L 3022 2063 
z
" transform="scale(0.015625)"/>
       <path id="DejaVuSans-6e" d="M 3513 2113 
L 3513 0 
L 2938 0 
L 2938 2094 
Q 2938 2591 2744 2837 
Q 2550 3084 2163 3084 
Q 1697 3084 1428 2787 
Q 1159 2491 1159 1978 
L 1159 0 
L 581 0 
L 581 3500 
L 1159 3500 
L 1159 2956 
Q 1366 3272 1645 3428 
Q 1925 3584 2291 3584 
Q 2894 3584 3203 3211 
Q 3513 2838 3513 2113 
z
" transform="scale(0.015625)"/>
       <path id="DejaVuSans-6c" d="M 603 4863 
L 1178 4863 
L 1178 0 
L 603 0 
L 603 4863 
z
" transform="scale(0.015625)"/>
       <path id="DejaVuSans-e4" d="M 2194 1759 
Q 1497 1759 1228 1600 
Q 959 1441 959 1056 
Q 959 750 1161 570 
Q 1363 391 1709 391 
Q 2188 391 2477 730 
Q 2766 1069 2766 1631 
L 2766 1759 
L 2194 1759 
z
M 3341 1997 
L 3341 0 
L 2766 0 
L 2766 531 
Q 2569 213 2275 61 
Q 1981 -91 1556 -91 
Q 1019 -91 701 211 
Q 384 513 384 1019 
Q 384 1609 779 1909 
Q 1175 2209 1959 2209 
L 2766 2209 
L 2766 2266 
Q 2766 2663 2505 2880 
Q 2244 3097 1772 3097 
Q 1472 3097 1187 3025 
Q 903 2953 641 2809 
L 641 3341 
Q 956 3463 1253 3523 
Q 1550 3584 1831 3584 
Q 2591 3584 2966 3190 
Q 3341 2797 3341 1997 
z
M 2150 4850 
L 2784 4850 
L 2784 4219 
L 2150 4219 
L 2150 4850 
z
M 928 4850 
L 1562 4850 
L 1562 4219 
L 928 4219 
L 928 4850 
z
" transform="scale(0.015625)"/>
       <path id="DejaVuSans-67" d="M 2906 1791 
Q 2906 2416 2648 2759 
Q 2391 3103 1925 3103 
Q 1463 3103 1205 2759 
Q 947 2416 947 1791 
Q 947 1169 1205 825 
Q 1463 481 1925 481 
Q 2391 481 2648 825 
Q 2906 1169 2906 1791 
z
M 3481 434 
Q 3481 -459 3084 -895 
Q 2688 -1331 1869 -1331 
Q 1566 -1331 1297 -1286 
Q 1028 -1241 775 -1147 
L 775 -588 
Q 1028 -725 1275 -790 
Q 1522 -856 1778 -856 
Q 2344 -856 2625 -561 
Q 2906 -266 2906 331 
L 2906 616 
Q 2728 306 2450 153 
Q 2172 0 1784 0 
Q 1141 0 747 490 
Q 353 981 353 1791 
Q 353 2603 747 3093 
Q 1141 3584 1784 3584 
Q 2172 3584 2450 3431 
Q 2728 3278 2906 2969 
L 2906 3500 
L 3481 3500 
L 3481 434 
z
" transform="scale(0.015625)"/>
       <path id="DejaVuSans-20" transform="scale(0.015625)"/>
       <path id="DejaVuSans-Oblique-4c" d="M 1075 4666 
L 1709 4666 
L 909 525 
L 3181 525 
L 3078 0 
L 172 0 
L 1075 4666 
z
" transform="scale(0.015625)"/>
       <path id="DejaVuSans-6d" d="M 3328 2828 
Q 3544 3216 3844 3400 
Q 4144 3584 4550 3584 
Q 5097 3584 5394 3201 
Q 5691 2819 5691 2113 
L 5691 0 
L 5113 0 
L 5113 2094 
Q 5113 2597 4934 2840 
Q 4756 3084 4391 3084 
Q 3944 3084 3684 2787 
Q 3425 2491 3425 1978 
L 3425 0 
L 2847 0 
L 2847 2094 
Q 2847 2600 2669 2842 
Q 2491 3084 2119 3084 
Q 1678 3084 1418 2786 
Q 1159 2488 1159 1978 
L 1159 0 
L 581 0 
L 581 3500 
L 1159 3500 
L 1159 2956 
Q 1356 3278 1631 3431 
Q 1906 3584 2284 3584 
Q 2666 3584 2933 3390 
Q 3200 3197 3328 2828 
z
" transform="scale(0.015625)"/>
      </defs>
      <use xlink:href="#DejaVuSans-53" transform="translate(0 0.015625)"/>
      <use xlink:href="#DejaVuSans-61" transform="translate(63.476562 0.015625)"/>
      <use xlink:href="#DejaVuSans-69" transform="translate(124.755859 0.015625)"/>
      <use xlink:href="#DejaVuSans-74" transform="translate(152.539062 0.015625)"/>
      <use xlink:href="#DejaVuSans-65" transform="translate(191.748047 0.015625)"/>
      <use xlink:href="#DejaVuSans-6e" transform="translate(253.271484 0.015625)"/>
      <use xlink:href="#DejaVuSans-6c" transform="translate(316.650391 0.015625)"/>
      <use xlink:href="#DejaVuSans-e4" transform="translate(344.433594 0.015625)"/>
      <use xlink:href="#DejaVuSans-6e" transform="translate(405.712891 0.015625)"/>
      <use xlink:href="#DejaVuSans-67" transform="translate(469.091797 0.015625)"/>
      <use xlink:href="#DejaVuSans-65" transform="translate(532.568359 0.015625)"/>
      <use xlink:href="#DejaVuSans-20" transform="translate(594.091797 0.015625)"/>
      <use xlink:href="#DejaVuSans-Oblique-4c" transform="translate(625.878906 0.015625)"/>
      <use xlink:href="#DejaVuSans-20" transform="translate(681.591797 0.015625)"/>
      <use xlink:href="#DejaVuSans-69" transform="translate(713.378906 0.015625)"/>
      <use xlink:href="#DejaVuSans-6e" transform="translate(741.162109 0.015625)"/>
      <use xlink:href="#DejaVuSans-20" transform="translate(804.541016 0.015625)"/>
      <use xlink:href="#DejaVuSans-6d" transform="translate(836.328125 0.015625)"/>
     </g>
    </g>
   </g>
   <g id="matplotlib.axis_2">
    <g id="ytick_1">
     <g id="line2d_8">
      <defs>
       <path id="m041a3bb158" d="M 0 0 
L -3.5 0 
" style="stroke: #000000; stroke-width: 0.8"/>
      </defs>
      <g>
       <use xlink:href="#m041a3bb158" x="79.6875" y="319.512" style="stroke: #000000; stroke-width: 0.8"/>
      </g>
     </g>
     <g id="text_9">
      <!-- 0 -->
      <g transform="translate(66.325 323.311219) scale(0.1 -0.1)">
       <use xlink:href="#DejaVuSans-30"/>
      </g>
     </g>
    </g>
    <g id="ytick_2">
     <g id="line2d_9">
      <g>
       <use xlink:href="#m041a3bb158" x="79.6875" y="268.824" style="stroke: #000000; stroke-width: 0.8"/>
      </g>
     </g>
     <g id="text_10">
      <!-- 20 -->
      <g transform="translate(59.9625 272.623219) scale(0.1 -0.1)">
       <use xlink:href="#DejaVuSans-32"/>
       <use xlink:href="#DejaVuSans-30" transform="translate(63.623047 0)"/>
      </g>
     </g>
    </g>
    <g id="ytick_3">
     <g id="line2d_10">
      <g>
       <use xlink:href="#m041a3bb158" x="79.6875" y="218.136" style="stroke: #000000; stroke-width: 0.8"/>
      </g>
     </g>
     <g id="text_11">
      <!-- 40 -->
      <g transform="translate(59.9625 221.935219) scale(0.1 -0.1)">
       <use xlink:href="#DejaVuSans-34"/>
       <use xlink:href="#DejaVuSans-30" transform="translate(63.623047 0)"/>
      </g>
     </g>
    </g>
    <g id="ytick_4">
     <g id="line2d_11">
      <g>
       <use xlink:href="#m041a3bb158" x="79.6875" y="167.448" style="stroke: #000000; stroke-width: 0.8"/>
      </g>
     </g>
     <g id="text_12">
      <!-- 60 -->
      <g transform="translate(59.9625 171.247219) scale(0.1 -0.1)">
       <use xlink:href="#DejaVuSans-36"/>
       <use xlink:href="#DejaVuSans-30" transform="translate(63.623047 0)"/>
      </g>
     </g>
    </g>
    <g id="ytick_5">
     <g id="line2d_12">
      <g>
       <use xlink:href="#m041a3bb158" x="79.6875" y="116.76" style="stroke: #000000; stroke-width: 0.8"/>
      </g>
     </g>
     <g id="text_13">
      <!-- 80 -->
      <g transform="translate(59.9625 120.559219) scale(0.1 -0.1)">
       <defs>
        <path id="DejaVuSans-38" d="M 2034 2216 
Q 1584 2216 1326 1975 
Q 1069 1734 1069 1313 
Q 1069 891 1326 650 
Q 1584 409 2034 409 
Q 2484 409 2743 651 
Q 3003 894 3003 1313 
Q 3003 1734 2745 1975 
Q 2488 2216 2034 2216 
z
M 1403 2484 
Q 997 2584 770 2862 
Q 544 3141 544 3541 
Q 544 4100 942 4425 
Q 1341 4750 2034 4750 
Q 2731 4750 3128 4425 
Q 3525 4100 3525 3541 
Q 3525 3141 3298 2862 
Q 3072 2584 2669 2484 
Q 3125 2378 3379 2068 
Q 3634 1759 3634 1313 
Q 3634 634 3220 271 
Q 2806 -91 2034 -91 
Q 1263 -91 848 271 
Q 434 634 434 1313 
Q 434 1759 690 2068 
Q 947 2378 1403 2484 
z
M 1172 3481 
Q 1172 3119 1398 2916 
Q 1625 2713 2034 2713 
Q 2441 2713 2670 2916 
Q 2900 3119 2900 3481 
Q 2900 3844 2670 4047 
Q 2441 4250 2034 4250 
Q 1625 4250 1398 4047 
Q 1172 3844 1172 3481 
z
" transform="scale(0.015625)"/>
       </defs>
       <use xlink:href="#DejaVuSans-38"/>
       <use xlink:href="#DejaVuSans-30" transform="translate(63.623047 0)"/>
      </g>
     </g>
    </g>
    <g id="ytick_6">
     <g id="line2d_13">
      <g>
       <use xlink:href="#m041a3bb158" x="79.6875" y="66.072" style="stroke: #000000; stroke-width: 0.8"/>
      </g>
     </g>
     <g id="text_14">
      <!-- 100 -->
      <g transform="translate(53.6 69.871219) scale(0.1 -0.1)">
       <use xlink:href="#DejaVuSans-31"/>
       <use xlink:href="#DejaVuSans-30" transform="translate(63.623047 0)"/>
       <use xlink:href="#DejaVuSans-30" transform="translate(127.246094 0)"/>
      </g>
     </g>
    </g>
    <g id="text_15">
     <!-- $\frac{1}{f}$ in s -->
     <g transform="translate(45.5 199.656) rotate(-90) scale(0.1 -0.1)">
      <defs>
       <path id="DejaVuSans-Oblique-66" d="M 3059 4863 
L 2969 4384 
L 2419 4384 
Q 2106 4384 1964 4261 
Q 1822 4138 1753 3809 
L 1691 3500 
L 2638 3500 
L 2553 3053 
L 1606 3053 
L 1013 0 
L 434 0 
L 1031 3053 
L 481 3053 
L 563 3500 
L 1113 3500 
L 1159 3744 
Q 1278 4363 1576 4613 
Q 1875 4863 2516 4863 
L 3059 4863 
z
" transform="scale(0.015625)"/>
       <path id="DejaVuSans-73" d="M 2834 3397 
L 2834 2853 
Q 2591 2978 2328 3040 
Q 2066 3103 1784 3103 
Q 1356 3103 1142 2972 
Q 928 2841 928 2578 
Q 928 2378 1081 2264 
Q 1234 2150 1697 2047 
L 1894 2003 
Q 2506 1872 2764 1633 
Q 3022 1394 3022 966 
Q 3022 478 2636 193 
Q 2250 -91 1575 -91 
Q 1294 -91 989 -36 
Q 684 19 347 128 
L 347 722 
Q 666 556 975 473 
Q 1284 391 1588 391 
Q 1994 391 2212 530 
Q 2431 669 2431 922 
Q 2431 1156 2273 1281 
Q 2116 1406 1581 1522 
L 1381 1569 
Q 847 1681 609 1914 
Q 372 2147 372 2553 
Q 372 3047 722 3315 
Q 1072 3584 1716 3584 
Q 2034 3584 2315 3537 
Q 2597 3491 2834 3397 
z
" transform="scale(0.015625)"/>
      </defs>
      <use xlink:href="#DejaVuSans-31" transform="translate(0 43.965625) scale(0.7)"/>
      <use xlink:href="#DejaVuSans-Oblique-66" transform="translate(10 -40.473437) scale(0.7)"/>
      <use xlink:href="#DejaVuSans-20" transform="translate(57.036133 0.16875)"/>
      <use xlink:href="#DejaVuSans-69" transform="translate(88.823242 0.16875)"/>
      <use xlink:href="#DejaVuSans-6e" transform="translate(116.606445 0.16875)"/>
      <use xlink:href="#DejaVuSans-20" transform="translate(179.985352 0.16875)"/>
      <use xlink:href="#DejaVuSans-73" transform="translate(211.772461 0.16875)"/>
      <path d="M 0 18.965625 
L 0 25.215625 
L 44.536133 25.215625 
L 44.536133 18.965625 
L 0 18.965625 
z
"/>
     </g>
    </g>
   </g>
   <g id="LineCollection_1">
    <path d="M 408.242594 66.072 
L 414.364738 66.072 
" clip-path="url(#p3c5cd683eb)" style="fill: none; stroke: #add8e6; stroke-width: 1.5"/>
    <path d="M 382.733658 91.393188 
L 388.855802 91.393188 
" clip-path="url(#p3c5cd683eb)" style="fill: none; stroke: #add8e6; stroke-width: 1.5"/>
    <path d="M 357.224722 113.46322 
L 363.346867 113.46322 
" clip-path="url(#p3c5cd683eb)" style="fill: none; stroke: #add8e6; stroke-width: 1.5"/>
    <path d="M 331.715786 138.483429 
L 337.837931 138.483429 
" clip-path="url(#p3c5cd683eb)" style="fill: none; stroke: #add8e6; stroke-width: 1.5"/>
    <path d="M 280.697914 170.429647 
L 286.820059 170.429647 
" clip-path="url(#p3c5cd683eb)" style="fill: none; stroke: #add8e6; stroke-width: 1.5"/>
    <path d="M 255.188979 192.792 
L 261.311123 192.792 
" clip-path="url(#p3c5cd683eb)" style="fill: none; stroke: #add8e6; stroke-width: 1.5"/>
    <path d="M 229.680043 218.136 
L 235.802187 218.136 
" clip-path="url(#p3c5cd683eb)" style="fill: none; stroke: #add8e6; stroke-width: 1.5"/>
    <path d="M 204.171107 243.472396 
L 210.293252 243.472396 
" clip-path="url(#p3c5cd683eb)" style="fill: none; stroke: #add8e6; stroke-width: 1.5"/>
    <path d="M 178.662171 263.192 
L 184.784316 263.192 
" clip-path="url(#p3c5cd683eb)" style="fill: none; stroke: #add8e6; stroke-width: 1.5"/>
   </g>
   <g id="LineCollection_2">
    <path d="M 411.303666 69.11328 
L 411.303666 63.03072 
" clip-path="url(#p3c5cd683eb)" style="fill: none; stroke: #add8e6; stroke-width: 1.5"/>
    <path d="M 385.79473 93.857118 
L 385.79473 88.929259 
" clip-path="url(#p3c5cd683eb)" style="fill: none; stroke: #add8e6; stroke-width: 1.5"/>
    <path d="M 360.285794 115.473452 
L 360.285794 111.452988 
" clip-path="url(#p3c5cd683eb)" style="fill: none; stroke: #add8e6; stroke-width: 1.5"/>
    <path d="M 334.776858 140.035102 
L 334.776858 136.931755 
" clip-path="url(#p3c5cd683eb)" style="fill: none; stroke: #add8e6; stroke-width: 1.5"/>
    <path d="M 283.758987 171.481993 
L 283.758987 169.377301 
" clip-path="url(#p3c5cd683eb)" style="fill: none; stroke: #add8e6; stroke-width: 1.5"/>
    <path d="M 258.250051 193.55232 
L 258.250051 192.03168 
" clip-path="url(#p3c5cd683eb)" style="fill: none; stroke: #add8e6; stroke-width: 1.5"/>
    <path d="M 232.741115 218.622605 
L 232.741115 217.649395 
" clip-path="url(#p3c5cd683eb)" style="fill: none; stroke: #add8e6; stroke-width: 1.5"/>
    <path d="M 207.232179 243.746166 
L 207.232179 243.198626 
" clip-path="url(#p3c5cd683eb)" style="fill: none; stroke: #add8e6; stroke-width: 1.5"/>
    <path d="M 181.723243 263.342187 
L 181.723243 263.041813 
" clip-path="url(#p3c5cd683eb)" style="fill: none; stroke: #add8e6; stroke-width: 1.5"/>
   </g>
   <g id="line2d_14">
    <defs>
     <path id="m3186c2ff34" d="M 0 6 
L 0 -6 
" style="stroke: #add8e6"/>
    </defs>
    <g clip-path="url(#p3c5cd683eb)">
     <use xlink:href="#m3186c2ff34" x="408.242594" y="66.072" style="fill: #add8e6; stroke: #add8e6"/>
     <use xlink:href="#m3186c2ff34" x="382.733658" y="91.393188" style="fill: #add8e6; stroke: #add8e6"/>
     <use xlink:href="#m3186c2ff34" x="357.224722" y="113.46322" style="fill: #add8e6; stroke: #add8e6"/>
     <use xlink:href="#m3186c2ff34" x="331.715786" y="138.483429" style="fill: #add8e6; stroke: #add8e6"/>
     <use xlink:href="#m3186c2ff34" x="280.697914" y="170.429647" style="fill: #add8e6; stroke: #add8e6"/>
     <use xlink:href="#m3186c2ff34" x="255.188979" y="192.792" style="fill: #add8e6; stroke: #add8e6"/>
     <use xlink:href="#m3186c2ff34" x="229.680043" y="218.136" style="fill: #add8e6; stroke: #add8e6"/>
     <use xlink:href="#m3186c2ff34" x="204.171107" y="243.472396" style="fill: #add8e6; stroke: #add8e6"/>
     <use xlink:href="#m3186c2ff34" x="178.662171" y="263.192" style="fill: #add8e6; stroke: #add8e6"/>
    </g>
   </g>
   <g id="line2d_15">
    <g clip-path="url(#p3c5cd683eb)">
     <use xlink:href="#m3186c2ff34" x="414.364738" y="66.072" style="fill: #add8e6; stroke: #add8e6"/>
     <use xlink:href="#m3186c2ff34" x="388.855802" y="91.393188" style="fill: #add8e6; stroke: #add8e6"/>
     <use xlink:href="#m3186c2ff34" x="363.346867" y="113.46322" style="fill: #add8e6; stroke: #add8e6"/>
     <use xlink:href="#m3186c2ff34" x="337.837931" y="138.483429" style="fill: #add8e6; stroke: #add8e6"/>
     <use xlink:href="#m3186c2ff34" x="286.820059" y="170.429647" style="fill: #add8e6; stroke: #add8e6"/>
     <use xlink:href="#m3186c2ff34" x="261.311123" y="192.792" style="fill: #add8e6; stroke: #add8e6"/>
     <use xlink:href="#m3186c2ff34" x="235.802187" y="218.136" style="fill: #add8e6; stroke: #add8e6"/>
     <use xlink:href="#m3186c2ff34" x="210.293252" y="243.472396" style="fill: #add8e6; stroke: #add8e6"/>
     <use xlink:href="#m3186c2ff34" x="184.784316" y="263.192" style="fill: #add8e6; stroke: #add8e6"/>
    </g>
   </g>
   <g id="line2d_16">
    <defs>
     <path id="m2a342f852b" d="M 6 0 
L -6 -0 
" style="stroke: #add8e6"/>
    </defs>
    <g clip-path="url(#p3c5cd683eb)">
     <use xlink:href="#m2a342f852b" x="411.303666" y="69.11328" style="fill: #add8e6; stroke: #add8e6"/>
     <use xlink:href="#m2a342f852b" x="385.79473" y="93.857118" style="fill: #add8e6; stroke: #add8e6"/>
     <use xlink:href="#m2a342f852b" x="360.285794" y="115.473452" style="fill: #add8e6; stroke: #add8e6"/>
     <use xlink:href="#m2a342f852b" x="334.776858" y="140.035102" style="fill: #add8e6; stroke: #add8e6"/>
     <use xlink:href="#m2a342f852b" x="283.758987" y="171.481993" style="fill: #add8e6; stroke: #add8e6"/>
     <use xlink:href="#m2a342f852b" x="258.250051" y="193.55232" style="fill: #add8e6; stroke: #add8e6"/>
     <use xlink:href="#m2a342f852b" x="232.741115" y="218.622605" style="fill: #add8e6; stroke: #add8e6"/>
     <use xlink:href="#m2a342f852b" x="207.232179" y="243.746166" style="fill: #add8e6; stroke: #add8e6"/>
     <use xlink:href="#m2a342f852b" x="181.723243" y="263.342187" style="fill: #add8e6; stroke: #add8e6"/>
    </g>
   </g>
   <g id="line2d_17">
    <g clip-path="url(#p3c5cd683eb)">
     <use xlink:href="#m2a342f852b" x="411.303666" y="63.03072" style="fill: #add8e6; stroke: #add8e6"/>
     <use xlink:href="#m2a342f852b" x="385.79473" y="88.929259" style="fill: #add8e6; stroke: #add8e6"/>
     <use xlink:href="#m2a342f852b" x="360.285794" y="111.452988" style="fill: #add8e6; stroke: #add8e6"/>
     <use xlink:href="#m2a342f852b" x="334.776858" y="136.931755" style="fill: #add8e6; stroke: #add8e6"/>
     <use xlink:href="#m2a342f852b" x="283.758987" y="169.377301" style="fill: #add8e6; stroke: #add8e6"/>
     <use xlink:href="#m2a342f852b" x="258.250051" y="192.03168" style="fill: #add8e6; stroke: #add8e6"/>
     <use xlink:href="#m2a342f852b" x="232.741115" y="217.649395" style="fill: #add8e6; stroke: #add8e6"/>
     <use xlink:href="#m2a342f852b" x="207.232179" y="243.198626" style="fill: #add8e6; stroke: #add8e6"/>
     <use xlink:href="#m2a342f852b" x="181.723243" y="263.041813" style="fill: #add8e6; stroke: #add8e6"/>
    </g>
   </g>
   <g id="line2d_18">
    <path d="M 79.6875 319.512 
L 473.8075 81.411798 
L 473.8075 81.411798 
" clip-path="url(#p3c5cd683eb)" style="fill: none; stroke: #0000ff; stroke-width: 2; stroke-linecap: square"/>
   </g>
   <g id="line2d_19">
    <defs>
     <path id="mad8f81158e" d="M 0 3 
C 0.795609 3 1.55874 2.683901 2.12132 2.12132 
C 2.683901 1.55874 3 0.795609 3 0 
C 3 -0.795609 2.683901 -1.55874 2.12132 -2.12132 
C 1.55874 -2.683901 0.795609 -3 0 -3 
C -0.795609 -3 -1.55874 -2.683901 -2.12132 -2.12132 
C -2.683901 -1.55874 -3 -0.795609 -3 0 
C -3 0.795609 -2.683901 1.55874 -2.12132 2.12132 
C -1.55874 2.683901 -0.795609 3 0 3 
z
" style="stroke: #add8e6"/>
    </defs>
    <g clip-path="url(#p3c5cd683eb)">
     <use xlink:href="#mad8f81158e" x="411.303666" y="66.072" style="fill: #add8e6; stroke: #add8e6"/>
     <use xlink:href="#mad8f81158e" x="385.79473" y="91.393188" style="fill: #add8e6; stroke: #add8e6"/>
     <use xlink:href="#mad8f81158e" x="360.285794" y="113.46322" style="fill: #add8e6; stroke: #add8e6"/>
     <use xlink:href="#mad8f81158e" x="334.776858" y="138.483429" style="fill: #add8e6; stroke: #add8e6"/>
     <use xlink:href="#mad8f81158e" x="283.758987" y="170.429647" style="fill: #add8e6; stroke: #add8e6"/>
     <use xlink:href="#mad8f81158e" x="258.250051" y="192.792" style="fill: #add8e6; stroke: #add8e6"/>
     <use xlink:href="#mad8f81158e" x="232.741115" y="218.136" style="fill: #add8e6; stroke: #add8e6"/>
     <use xlink:href="#mad8f81158e" x="207.232179" y="243.472396" style="fill: #add8e6; stroke: #add8e6"/>
     <use xlink:href="#mad8f81158e" x="181.723243" y="263.192" style="fill: #add8e6; stroke: #add8e6"/>
    </g>
   </g>
   <g id="patch_3">
    <path d="M 79.6875 319.512 
L 79.6875 53.4 
" style="fill: none; stroke: #000000; stroke-width: 0.8; stroke-linejoin: miter; stroke-linecap: square"/>
   </g>
   <g id="patch_4">
    <path d="M 436.8075 319.512 
L 436.8075 53.4 
" style="fill: none; stroke: #000000; stroke-width: 0.8; stroke-linejoin: miter; stroke-linecap: square"/>
   </g>
   <g id="patch_5">
    <path d="M 79.6875 319.512 
L 436.8075 319.512 
" style="fill: none; stroke: #000000; stroke-width: 0.8; stroke-linejoin: miter; stroke-linecap: square"/>
   </g>
   <g id="patch_6">
    <path d="M 79.6875 53.4 
L 436.8075 53.4 
" style="fill: none; stroke: #000000; stroke-width: 0.8; stroke-linejoin: miter; stroke-linecap: square"/>
   </g>
   <g id="text_16">
    <!-- $L$-$\frac{1}{f}$-Diagramm -->
    <g transform="translate(215.5275 47.4) scale(0.12 -0.12)">
     <defs>
      <path id="DejaVuSans-2d" d="M 313 2009 
L 1997 2009 
L 1997 1497 
L 313 1497 
L 313 2009 
z
" transform="scale(0.015625)"/>
      <path id="DejaVuSans-44" d="M 1259 4147 
L 1259 519 
L 2022 519 
Q 2988 519 3436 956 
Q 3884 1394 3884 2338 
Q 3884 3275 3436 3711 
Q 2988 4147 2022 4147 
L 1259 4147 
z
M 628 4666 
L 1925 4666 
Q 3281 4666 3915 4102 
Q 4550 3538 4550 2338 
Q 4550 1131 3912 565 
Q 3275 0 1925 0 
L 628 0 
L 628 4666 
z
" transform="scale(0.015625)"/>
      <path id="DejaVuSans-72" d="M 2631 2963 
Q 2534 3019 2420 3045 
Q 2306 3072 2169 3072 
Q 1681 3072 1420 2755 
Q 1159 2438 1159 1844 
L 1159 0 
L 581 0 
L 581 3500 
L 1159 3500 
L 1159 2956 
Q 1341 3275 1631 3429 
Q 1922 3584 2338 3584 
Q 2397 3584 2469 3576 
Q 2541 3569 2628 3553 
L 2631 2963 
z
" transform="scale(0.015625)"/>
     </defs>
     <use xlink:href="#DejaVuSans-Oblique-4c" transform="translate(0 0.16875)"/>
     <use xlink:href="#DejaVuSans-2d" transform="translate(55.712891 0.16875)"/>
     <use xlink:href="#DejaVuSans-31" transform="translate(91.796875 43.965625) scale(0.7)"/>
     <use xlink:href="#DejaVuSans-Oblique-66" transform="translate(101.796875 -40.473437) scale(0.7)"/>
     <use xlink:href="#DejaVuSans-2d" transform="translate(148.833008 0.16875)"/>
     <use xlink:href="#DejaVuSans-44" transform="translate(184.916992 0.16875)"/>
     <use xlink:href="#DejaVuSans-69" transform="translate(261.918945 0.16875)"/>
     <use xlink:href="#DejaVuSans-61" transform="translate(289.702148 0.16875)"/>
     <use xlink:href="#DejaVuSans-67" transform="translate(350.981445 0.16875)"/>
     <use xlink:href="#DejaVuSans-72" transform="translate(414.458008 0.16875)"/>
     <use xlink:href="#DejaVuSans-61" transform="translate(455.571289 0.16875)"/>
     <use xlink:href="#DejaVuSans-6d" transform="translate(516.850586 0.16875)"/>
     <use xlink:href="#DejaVuSans-6d" transform="translate(614.262695 0.16875)"/>
     <path d="M 91.796875 18.965625 
L 91.796875 25.215625 
L 136.333008 25.215625 
L 136.333008 18.965625 
L 91.796875 18.965625 
z
"/>
    </g>
   </g>
   <g id="legend_1">
    <g id="patch_7">
     <path d="M 86.6875 105.897812 
L 288.3875 105.897812 
Q 290.3875 105.897812 290.3875 103.897812 
L 290.3875 60.4 
Q 290.3875 58.4 288.3875 58.4 
L 86.6875 58.4 
Q 84.6875 58.4 84.6875 60.4 
L 84.6875 103.897812 
Q 84.6875 105.897812 86.6875 105.897812 
z
" style="fill: #ffffff; opacity: 0.8; stroke: #cccccc; stroke-linejoin: miter"/>
    </g>
    <g id="line2d_20">
     <path d="M 88.6875 73.148125 
L 98.6875 73.148125 
L 108.6875 73.148125 
" style="fill: none; stroke: #0000ff; stroke-width: 2; stroke-linecap: square"/>
    </g>
    <g id="text_17">
     <!-- Fit: $y = A \cdot x$  -->
     <g transform="translate(116.6875 70) scale(0.1 -0.1)">
      <defs>
       <path id="DejaVuSans-46" d="M 628 4666 
L 3309 4666 
L 3309 4134 
L 1259 4134 
L 1259 2759 
L 3109 2759 
L 3109 2228 
L 1259 2228 
L 1259 0 
L 628 0 
L 628 4666 
z
" transform="scale(0.015625)"/>
       <path id="DejaVuSans-3a" d="M 750 794 
L 1409 794 
L 1409 0 
L 750 0 
L 750 794 
z
M 750 3309 
L 1409 3309 
L 1409 2516 
L 750 2516 
L 750 3309 
z
" transform="scale(0.015625)"/>
       <path id="DejaVuSans-Oblique-79" d="M 1588 -325 
Q 1188 -997 936 -1164 
Q 684 -1331 294 -1331 
L -159 -1331 
L -63 -850 
L 269 -850 
Q 509 -850 678 -719 
Q 847 -588 1056 -206 
L 1234 128 
L 459 3500 
L 1069 3500 
L 1650 819 
L 3256 3500 
L 3859 3500 
L 1588 -325 
z
" transform="scale(0.015625)"/>
       <path id="DejaVuSans-3d" d="M 678 2906 
L 4684 2906 
L 4684 2381 
L 678 2381 
L 678 2906 
z
M 678 1631 
L 4684 1631 
L 4684 1100 
L 678 1100 
L 678 1631 
z
" transform="scale(0.015625)"/>
       <path id="DejaVuSans-Oblique-41" d="M 2356 4666 
L 3072 4666 
L 3938 0 
L 3278 0 
L 3084 1197 
L 984 1197 
L 325 0 
L -341 0 
L 2356 4666 
z
M 2584 4044 
L 1275 1722 
L 2988 1722 
L 2584 4044 
z
" transform="scale(0.015625)"/>
       <path id="DejaVuSans-22c5" d="M 684 2619 
L 1344 2619 
L 1344 1825 
L 684 1825 
L 684 2619 
z
" transform="scale(0.015625)"/>
       <path id="DejaVuSans-Oblique-78" d="M 3841 3500 
L 2234 1784 
L 3219 0 
L 2559 0 
L 1819 1388 
L 531 0 
L -166 0 
L 1556 1844 
L 641 3500 
L 1300 3500 
L 1972 2234 
L 3144 3500 
L 3841 3500 
z
" transform="scale(0.015625)"/>
      </defs>
      <use xlink:href="#DejaVuSans-46" transform="translate(0 0.015625)"/>
      <use xlink:href="#DejaVuSans-69" transform="translate(57.519531 0.015625)"/>
      <use xlink:href="#DejaVuSans-74" transform="translate(85.302734 0.015625)"/>
      <use xlink:href="#DejaVuSans-3a" transform="translate(124.511719 0.015625)"/>
      <use xlink:href="#DejaVuSans-20" transform="translate(158.203125 0.015625)"/>
      <use xlink:href="#DejaVuSans-Oblique-79" transform="translate(189.990234 0.015625)"/>
      <use xlink:href="#DejaVuSans-3d" transform="translate(268.652344 0.015625)"/>
      <use xlink:href="#DejaVuSans-Oblique-41" transform="translate(371.923828 0.015625)"/>
      <use xlink:href="#DejaVuSans-22c5" transform="translate(459.814453 0.015625)"/>
      <use xlink:href="#DejaVuSans-Oblique-78" transform="translate(511.083984 0.015625)"/>
      <use xlink:href="#DejaVuSans-20" transform="translate(570.263672 0.015625)"/>
     </g>
     <!--  $A = 121.612570 \pm 0.207170$ -->
     <g transform="translate(116.6875 81.218125) scale(0.1 -0.1)">
      <defs>
       <path id="DejaVuSans-37" d="M 525 4666 
L 3525 4666 
L 3525 4397 
L 1831 0 
L 1172 0 
L 2766 4134 
L 525 4134 
L 525 4666 
z
" transform="scale(0.015625)"/>
       <path id="DejaVuSans-b1" d="M 2944 4013 
L 2944 2803 
L 4684 2803 
L 4684 2272 
L 2944 2272 
L 2944 1063 
L 2419 1063 
L 2419 2272 
L 678 2272 
L 678 2803 
L 2419 2803 
L 2419 4013 
L 2944 4013 
z
M 678 531 
L 4684 531 
L 4684 0 
L 678 0 
L 678 531 
z
" transform="scale(0.015625)"/>
      </defs>
      <use xlink:href="#DejaVuSans-20" transform="translate(0 0.78125)"/>
      <use xlink:href="#DejaVuSans-Oblique-41" transform="translate(31.787109 0.78125)"/>
      <use xlink:href="#DejaVuSans-3d" transform="translate(119.677734 0.78125)"/>
      <use xlink:href="#DejaVuSans-31" transform="translate(222.949219 0.78125)"/>
      <use xlink:href="#DejaVuSans-32" transform="translate(286.572266 0.78125)"/>
      <use xlink:href="#DejaVuSans-31" transform="translate(350.195312 0.78125)"/>
      <use xlink:href="#DejaVuSans-2e" transform="translate(413.818359 0.78125)"/>
      <use xlink:href="#DejaVuSans-36" transform="translate(445.605469 0.78125)"/>
      <use xlink:href="#DejaVuSans-31" transform="translate(509.228516 0.78125)"/>
      <use xlink:href="#DejaVuSans-32" transform="translate(572.851562 0.78125)"/>
      <use xlink:href="#DejaVuSans-35" transform="translate(636.474609 0.78125)"/>
      <use xlink:href="#DejaVuSans-37" transform="translate(692.847656 0.78125)"/>
      <use xlink:href="#DejaVuSans-30" transform="translate(756.470703 0.78125)"/>
      <use xlink:href="#DejaVuSans-b1" transform="translate(839.576172 0.78125)"/>
      <use xlink:href="#DejaVuSans-30" transform="translate(942.847656 0.78125)"/>
      <use xlink:href="#DejaVuSans-2e" transform="translate(1006.470703 0.78125)"/>
      <use xlink:href="#DejaVuSans-32" transform="translate(1032.757812 0.78125)"/>
      <use xlink:href="#DejaVuSans-30" transform="translate(1096.380859 0.78125)"/>
      <use xlink:href="#DejaVuSans-37" transform="translate(1160.003906 0.78125)"/>
      <use xlink:href="#DejaVuSans-31" transform="translate(1223.626953 0.78125)"/>
      <use xlink:href="#DejaVuSans-37" transform="translate(1287.25 0.78125)"/>
      <use xlink:href="#DejaVuSans-30" transform="translate(1350.873047 0.78125)"/>
     </g>
    </g>
    <g id="LineCollection_3">
     <path d="M 93.6875 94.297812 
L 103.6875 94.297812 
" style="fill: none; stroke: #add8e6; stroke-width: 1.5"/>
    </g>
    <g id="LineCollection_4">
     <path d="M 98.6875 99.297812 
L 98.6875 89.297812 
" style="fill: none; stroke: #add8e6; stroke-width: 1.5"/>
    </g>
    <g id="line2d_21">
     <g>
      <use xlink:href="#m3186c2ff34" x="93.6875" y="94.297812" style="fill: #add8e6; stroke: #add8e6"/>
     </g>
    </g>
    <g id="line2d_22">
     <g>
      <use xlink:href="#m3186c2ff34" x="103.6875" y="94.297812" style="fill: #add8e6; stroke: #add8e6"/>
     </g>
    </g>
    <g id="line2d_23">
     <g>
      <use xlink:href="#m2a342f852b" x="98.6875" y="99.297812" style="fill: #add8e6; stroke: #add8e6"/>
     </g>
    </g>
    <g id="line2d_24">
     <g>
      <use xlink:href="#m2a342f852b" x="98.6875" y="89.297812" style="fill: #add8e6; stroke: #add8e6"/>
     </g>
    </g>
    <g id="line2d_25"/>
    <g id="line2d_26">
     <g>
      <use xlink:href="#mad8f81158e" x="98.6875" y="94.297812" style="fill: #add8e6; stroke: #add8e6"/>
     </g>
    </g>
    <g id="text_18">
     <!-- $\frac{1}{f}$ in Abhängigkeit der Saitenlänge -->
     <g transform="translate(116.6875 97.797812) scale(0.1 -0.1)">
      <defs>
       <path id="DejaVuSans-41" d="M 2188 4044 
L 1331 1722 
L 3047 1722 
L 2188 4044 
z
M 1831 4666 
L 2547 4666 
L 4325 0 
L 3669 0 
L 3244 1197 
L 1141 1197 
L 716 0 
L 50 0 
L 1831 4666 
z
" transform="scale(0.015625)"/>
       <path id="DejaVuSans-62" d="M 3116 1747 
Q 3116 2381 2855 2742 
Q 2594 3103 2138 3103 
Q 1681 3103 1420 2742 
Q 1159 2381 1159 1747 
Q 1159 1113 1420 752 
Q 1681 391 2138 391 
Q 2594 391 2855 752 
Q 3116 1113 3116 1747 
z
M 1159 2969 
Q 1341 3281 1617 3432 
Q 1894 3584 2278 3584 
Q 2916 3584 3314 3078 
Q 3713 2572 3713 1747 
Q 3713 922 3314 415 
Q 2916 -91 2278 -91 
Q 1894 -91 1617 61 
Q 1341 213 1159 525 
L 1159 0 
L 581 0 
L 581 4863 
L 1159 4863 
L 1159 2969 
z
" transform="scale(0.015625)"/>
       <path id="DejaVuSans-68" d="M 3513 2113 
L 3513 0 
L 2938 0 
L 2938 2094 
Q 2938 2591 2744 2837 
Q 2550 3084 2163 3084 
Q 1697 3084 1428 2787 
Q 1159 2491 1159 1978 
L 1159 0 
L 581 0 
L 581 4863 
L 1159 4863 
L 1159 2956 
Q 1366 3272 1645 3428 
Q 1925 3584 2291 3584 
Q 2894 3584 3203 3211 
Q 3513 2838 3513 2113 
z
" transform="scale(0.015625)"/>
       <path id="DejaVuSans-6b" d="M 581 4863 
L 1159 4863 
L 1159 1991 
L 2875 3500 
L 3609 3500 
L 1753 1863 
L 3688 0 
L 2938 0 
L 1159 1709 
L 1159 0 
L 581 0 
L 581 4863 
z
" transform="scale(0.015625)"/>
       <path id="DejaVuSans-64" d="M 2906 2969 
L 2906 4863 
L 3481 4863 
L 3481 0 
L 2906 0 
L 2906 525 
Q 2725 213 2448 61 
Q 2172 -91 1784 -91 
Q 1150 -91 751 415 
Q 353 922 353 1747 
Q 353 2572 751 3078 
Q 1150 3584 1784 3584 
Q 2172 3584 2448 3432 
Q 2725 3281 2906 2969 
z
M 947 1747 
Q 947 1113 1208 752 
Q 1469 391 1925 391 
Q 2381 391 2643 752 
Q 2906 1113 2906 1747 
Q 2906 2381 2643 2742 
Q 2381 3103 1925 3103 
Q 1469 3103 1208 2742 
Q 947 2381 947 1747 
z
" transform="scale(0.015625)"/>
      </defs>
      <use xlink:href="#DejaVuSans-31" transform="translate(0 43.965625) scale(0.7)"/>
      <use xlink:href="#DejaVuSans-Oblique-66" transform="translate(10 -40.473437) scale(0.7)"/>
      <use xlink:href="#DejaVuSans-20" transform="translate(57.036133 0.16875)"/>
      <use xlink:href="#DejaVuSans-69" transform="translate(88.823242 0.16875)"/>
      <use xlink:href="#DejaVuSans-6e" transform="translate(116.606445 0.16875)"/>
      <use xlink:href="#DejaVuSans-20" transform="translate(179.985352 0.16875)"/>
      <use xlink:href="#DejaVuSans-41" transform="translate(211.772461 0.16875)"/>
      <use xlink:href="#DejaVuSans-62" transform="translate(280.180664 0.16875)"/>
      <use xlink:href="#DejaVuSans-68" transform="translate(343.657227 0.16875)"/>
      <use xlink:href="#DejaVuSans-e4" transform="translate(407.036133 0.16875)"/>
      <use xlink:href="#DejaVuSans-6e" transform="translate(468.31543 0.16875)"/>
      <use xlink:href="#DejaVuSans-67" transform="translate(531.694336 0.16875)"/>
      <use xlink:href="#DejaVuSans-69" transform="translate(595.170898 0.16875)"/>
      <use xlink:href="#DejaVuSans-67" transform="translate(622.954102 0.16875)"/>
      <use xlink:href="#DejaVuSans-6b" transform="translate(686.430664 0.16875)"/>
      <use xlink:href="#DejaVuSans-65" transform="translate(744.34082 0.16875)"/>
      <use xlink:href="#DejaVuSans-69" transform="translate(805.864258 0.16875)"/>
      <use xlink:href="#DejaVuSans-74" transform="translate(833.647461 0.16875)"/>
      <use xlink:href="#DejaVuSans-20" transform="translate(872.856445 0.16875)"/>
      <use xlink:href="#DejaVuSans-64" transform="translate(904.643555 0.16875)"/>
      <use xlink:href="#DejaVuSans-65" transform="translate(968.120117 0.16875)"/>
      <use xlink:href="#DejaVuSans-72" transform="translate(1029.643555 0.16875)"/>
      <use xlink:href="#DejaVuSans-20" transform="translate(1070.756836 0.16875)"/>
      <use xlink:href="#DejaVuSans-53" transform="translate(1102.543945 0.16875)"/>
      <use xlink:href="#DejaVuSans-61" transform="translate(1166.020508 0.16875)"/>
      <use xlink:href="#DejaVuSans-69" transform="translate(1227.299805 0.16875)"/>
      <use xlink:href="#DejaVuSans-74" transform="translate(1255.083008 0.16875)"/>
      <use xlink:href="#DejaVuSans-65" transform="translate(1294.291992 0.16875)"/>
      <use xlink:href="#DejaVuSans-6e" transform="translate(1355.81543 0.16875)"/>
      <use xlink:href="#DejaVuSans-6c" transform="translate(1419.194336 0.16875)"/>
      <use xlink:href="#DejaVuSans-e4" transform="translate(1446.977539 0.16875)"/>
      <use xlink:href="#DejaVuSans-6e" transform="translate(1508.256836 0.16875)"/>
      <use xlink:href="#DejaVuSans-67" transform="translate(1571.635742 0.16875)"/>
      <use xlink:href="#DejaVuSans-65" transform="translate(1635.112305 0.16875)"/>
      <path d="M 0 18.965625 
L 0 25.215625 
L 44.536133 25.215625 
L 44.536133 18.965625 
L 0 18.965625 
z
"/>
     </g>
    </g>
   </g>
  </g>
 </g>
 <defs>
  <clipPath id="p3c5cd683eb">
   <rect x="79.6875" y="53.4" width="357.12" height="266.112"/>
  </clipPath>
 </defs>
</svg>
