<?xml version="1.0" encoding="utf-8" standalone="no"?>
<!DOCTYPE svg PUBLIC "-//W3C//DTD SVG 1.1//EN"
  "http://www.w3.org/Graphics/SVG/1.1/DTD/svg11.dtd">
<svg xmlns:xlink="http://www.w3.org/1999/xlink" width="477.87pt" height="383.586375pt" viewBox="0 0 477.87 383.586375" xmlns="http://www.w3.org/2000/svg" version="1.1">
 <metadata>
  <rdf:RDF xmlns:dc="http://purl.org/dc/elements/1.1/" xmlns:cc="http://creativecommons.org/ns#" xmlns:rdf="http://www.w3.org/1999/02/22-rdf-syntax-ns#">
   <cc:Work>
    <dc:type rdf:resource="http://purl.org/dc/dcmitype/StillImage"/>
    <dc:date>2025-04-19T12:41:33.438094</dc:date>
    <dc:format>image/svg+xml</dc:format>
    <dc:creator>
     <cc:Agent>
      <dc:title>Matplotlib v3.10.1, https://matplotlib.org/</dc:title>
     </cc:Agent>
    </dc:creator>
   </cc:Work>
  </rdf:RDF>
 </metadata>
 <defs>
  <style type="text/css">*{stroke-linejoin: round; stroke-linecap: butt}</style>
 </defs>
 <g id="figure_1">
  <g id="patch_1">
   <path d="M 0 383.586375 
L 477.87 383.586375 
L 477.87 0 
L 0 0 
z
" style="fill: #ffffff"/>
  </g>
  <g id="axes_1">
   <g id="patch_2">
    <path d="M 84.75 317.230125 
L 441.87 317.230125 
L 441.87 51.118125 
L 84.75 51.118125 
z
" style="fill: #ffffff"/>
   </g>
   <g id="matplotlib.axis_1">
    <g id="xtick_1">
     <g id="line2d_1">
      <defs>
       <path id="mdee8d5713b" d="M 0 0 
L 0 3.5 
" style="stroke: #000000; stroke-width: 0.8"/>
      </defs>
      <g>
       <use xlink:href="#mdee8d5713b" x="126.764114" y="317.230125" style="stroke: #000000; stroke-width: 0.8"/>
      </g>
     </g>
     <g id="text_1">
      <!-- 1 -->
      <g transform="translate(123.582864 331.828562) scale(0.1 -0.1)">
       <defs>
        <path id="DejaVuSans-31" d="M 794 531 
L 1825 531 
L 1825 4091 
L 703 3866 
L 703 4441 
L 1819 4666 
L 2450 4666 
L 2450 531 
L 3481 531 
L 3481 0 
L 794 0 
L 794 531 
z
" transform="scale(0.015625)"/>
       </defs>
       <use xlink:href="#DejaVuSans-31"/>
      </g>
     </g>
    </g>
    <g id="xtick_2">
     <g id="line2d_2">
      <g>
       <use xlink:href="#mdee8d5713b" x="168.778232" y="317.230125" style="stroke: #000000; stroke-width: 0.8"/>
      </g>
     </g>
     <g id="text_2">
      <!-- 2 -->
      <g transform="translate(165.596982 331.828562) scale(0.1 -0.1)">
       <defs>
        <path id="DejaVuSans-32" d="M 1228 531 
L 3431 531 
L 3431 0 
L 469 0 
L 469 531 
Q 828 903 1448 1529 
Q 2069 2156 2228 2338 
Q 2531 2678 2651 2914 
Q 2772 3150 2772 3378 
Q 2772 3750 2511 3984 
Q 2250 4219 1831 4219 
Q 1534 4219 1204 4116 
Q 875 4013 500 3803 
L 500 4441 
Q 881 4594 1212 4672 
Q 1544 4750 1819 4750 
Q 2544 4750 2975 4387 
Q 3406 4025 3406 3419 
Q 3406 3131 3298 2873 
Q 3191 2616 2906 2266 
Q 2828 2175 2409 1742 
Q 1991 1309 1228 531 
z
" transform="scale(0.015625)"/>
       </defs>
       <use xlink:href="#DejaVuSans-32"/>
      </g>
     </g>
    </g>
    <g id="xtick_3">
     <g id="line2d_3">
      <g>
       <use xlink:href="#mdee8d5713b" x="210.79235" y="317.230125" style="stroke: #000000; stroke-width: 0.8"/>
      </g>
     </g>
     <g id="text_3">
      <!-- 3 -->
      <g transform="translate(207.6111 331.828562) scale(0.1 -0.1)">
       <defs>
        <path id="DejaVuSans-33" d="M 2597 2516 
Q 3050 2419 3304 2112 
Q 3559 1806 3559 1356 
Q 3559 666 3084 287 
Q 2609 -91 1734 -91 
Q 1441 -91 1130 -33 
Q 819 25 488 141 
L 488 750 
Q 750 597 1062 519 
Q 1375 441 1716 441 
Q 2309 441 2620 675 
Q 2931 909 2931 1356 
Q 2931 1769 2642 2001 
Q 2353 2234 1838 2234 
L 1294 2234 
L 1294 2753 
L 1863 2753 
Q 2328 2753 2575 2939 
Q 2822 3125 2822 3475 
Q 2822 3834 2567 4026 
Q 2313 4219 1838 4219 
Q 1578 4219 1281 4162 
Q 984 4106 628 3988 
L 628 4550 
Q 988 4650 1302 4700 
Q 1616 4750 1894 4750 
Q 2613 4750 3031 4423 
Q 3450 4097 3450 3541 
Q 3450 3153 3228 2886 
Q 3006 2619 2597 2516 
z
" transform="scale(0.015625)"/>
       </defs>
       <use xlink:href="#DejaVuSans-33"/>
      </g>
     </g>
    </g>
    <g id="xtick_4">
     <g id="line2d_4">
      <g>
       <use xlink:href="#mdee8d5713b" x="252.806468" y="317.230125" style="stroke: #000000; stroke-width: 0.8"/>
      </g>
     </g>
     <g id="text_4">
      <!-- 4 -->
      <g transform="translate(249.625218 331.828562) scale(0.1 -0.1)">
       <defs>
        <path id="DejaVuSans-34" d="M 2419 4116 
L 825 1625 
L 2419 1625 
L 2419 4116 
z
M 2253 4666 
L 3047 4666 
L 3047 1625 
L 3713 1625 
L 3713 1100 
L 3047 1100 
L 3047 0 
L 2419 0 
L 2419 1100 
L 313 1100 
L 313 1709 
L 2253 4666 
z
" transform="scale(0.015625)"/>
       </defs>
       <use xlink:href="#DejaVuSans-34"/>
      </g>
     </g>
    </g>
    <g id="xtick_5">
     <g id="line2d_5">
      <g>
       <use xlink:href="#mdee8d5713b" x="294.820587" y="317.230125" style="stroke: #000000; stroke-width: 0.8"/>
      </g>
     </g>
     <g id="text_5">
      <!-- 5 -->
      <g transform="translate(291.639337 331.828562) scale(0.1 -0.1)">
       <defs>
        <path id="DejaVuSans-35" d="M 691 4666 
L 3169 4666 
L 3169 4134 
L 1269 4134 
L 1269 2991 
Q 1406 3038 1543 3061 
Q 1681 3084 1819 3084 
Q 2600 3084 3056 2656 
Q 3513 2228 3513 1497 
Q 3513 744 3044 326 
Q 2575 -91 1722 -91 
Q 1428 -91 1123 -41 
Q 819 9 494 109 
L 494 744 
Q 775 591 1075 516 
Q 1375 441 1709 441 
Q 2250 441 2565 725 
Q 2881 1009 2881 1497 
Q 2881 1984 2565 2268 
Q 2250 2553 1709 2553 
Q 1456 2553 1204 2497 
Q 953 2441 691 2322 
L 691 4666 
z
" transform="scale(0.015625)"/>
       </defs>
       <use xlink:href="#DejaVuSans-35"/>
      </g>
     </g>
    </g>
    <g id="xtick_6">
     <g id="line2d_6">
      <g>
       <use xlink:href="#mdee8d5713b" x="336.834705" y="317.230125" style="stroke: #000000; stroke-width: 0.8"/>
      </g>
     </g>
     <g id="text_6">
      <!-- 6 -->
      <g transform="translate(333.653455 331.828562) scale(0.1 -0.1)">
       <defs>
        <path id="DejaVuSans-36" d="M 2113 2584 
Q 1688 2584 1439 2293 
Q 1191 2003 1191 1497 
Q 1191 994 1439 701 
Q 1688 409 2113 409 
Q 2538 409 2786 701 
Q 3034 994 3034 1497 
Q 3034 2003 2786 2293 
Q 2538 2584 2113 2584 
z
M 3366 4563 
L 3366 3988 
Q 3128 4100 2886 4159 
Q 2644 4219 2406 4219 
Q 1781 4219 1451 3797 
Q 1122 3375 1075 2522 
Q 1259 2794 1537 2939 
Q 1816 3084 2150 3084 
Q 2853 3084 3261 2657 
Q 3669 2231 3669 1497 
Q 3669 778 3244 343 
Q 2819 -91 2113 -91 
Q 1303 -91 875 529 
Q 447 1150 447 2328 
Q 447 3434 972 4092 
Q 1497 4750 2381 4750 
Q 2619 4750 2861 4703 
Q 3103 4656 3366 4563 
z
" transform="scale(0.015625)"/>
       </defs>
       <use xlink:href="#DejaVuSans-36"/>
      </g>
     </g>
    </g>
    <g id="xtick_7">
     <g id="line2d_7">
      <g>
       <use xlink:href="#mdee8d5713b" x="378.848823" y="317.230125" style="stroke: #000000; stroke-width: 0.8"/>
      </g>
     </g>
     <g id="text_7">
      <!-- 7 -->
      <g transform="translate(375.667573 331.828562) scale(0.1 -0.1)">
       <defs>
        <path id="DejaVuSans-37" d="M 525 4666 
L 3525 4666 
L 3525 4397 
L 1831 0 
L 1172 0 
L 2766 4134 
L 525 4134 
L 525 4666 
z
" transform="scale(0.015625)"/>
       </defs>
       <use xlink:href="#DejaVuSans-37"/>
      </g>
     </g>
    </g>
    <g id="xtick_8">
     <g id="line2d_8">
      <g>
       <use xlink:href="#mdee8d5713b" x="420.862941" y="317.230125" style="stroke: #000000; stroke-width: 0.8"/>
      </g>
     </g>
     <g id="text_8">
      <!-- 8 -->
      <g transform="translate(417.681691 331.828562) scale(0.1 -0.1)">
       <defs>
        <path id="DejaVuSans-38" d="M 2034 2216 
Q 1584 2216 1326 1975 
Q 1069 1734 1069 1313 
Q 1069 891 1326 650 
Q 1584 409 2034 409 
Q 2484 409 2743 651 
Q 3003 894 3003 1313 
Q 3003 1734 2745 1975 
Q 2488 2216 2034 2216 
z
M 1403 2484 
Q 997 2584 770 2862 
Q 544 3141 544 3541 
Q 544 4100 942 4425 
Q 1341 4750 2034 4750 
Q 2731 4750 3128 4425 
Q 3525 4100 3525 3541 
Q 3525 3141 3298 2862 
Q 3072 2584 2669 2484 
Q 3125 2378 3379 2068 
Q 3634 1759 3634 1313 
Q 3634 634 3220 271 
Q 2806 -91 2034 -91 
Q 1263 -91 848 271 
Q 434 634 434 1313 
Q 434 1759 690 2068 
Q 947 2378 1403 2484 
z
M 1172 3481 
Q 1172 3119 1398 2916 
Q 1625 2713 2034 2713 
Q 2441 2713 2670 2916 
Q 2900 3119 2900 3481 
Q 2900 3844 2670 4047 
Q 2441 4250 2034 4250 
Q 1625 4250 1398 4047 
Q 1172 3844 1172 3481 
z
" transform="scale(0.015625)"/>
       </defs>
       <use xlink:href="#DejaVuSans-38"/>
      </g>
     </g>
    </g>
    <g id="text_9">
     <!-- n -->
     <g transform="translate(260.14125 345.506687) scale(0.1 -0.1)">
      <defs>
       <path id="DejaVuSans-6e" d="M 3513 2113 
L 3513 0 
L 2938 0 
L 2938 2094 
Q 2938 2591 2744 2837 
Q 2550 3084 2163 3084 
Q 1697 3084 1428 2787 
Q 1159 2491 1159 1978 
L 1159 0 
L 581 0 
L 581 3500 
L 1159 3500 
L 1159 2956 
Q 1366 3272 1645 3428 
Q 1925 3584 2291 3584 
Q 2894 3584 3203 3211 
Q 3513 2838 3513 2113 
z
" transform="scale(0.015625)"/>
      </defs>
      <use xlink:href="#DejaVuSans-6e"/>
     </g>
    </g>
   </g>
   <g id="matplotlib.axis_2">
    <g id="ytick_1">
     <g id="line2d_9">
      <defs>
       <path id="m9f047525c6" d="M 0 0 
L -3.5 0 
" style="stroke: #000000; stroke-width: 0.8"/>
      </defs>
      <g>
       <use xlink:href="#m9f047525c6" x="84.75" y="317.230125" style="stroke: #000000; stroke-width: 0.8"/>
      </g>
     </g>
     <g id="text_10">
      <!-- 0 -->
      <g transform="translate(71.3875 321.029344) scale(0.1 -0.1)">
       <defs>
        <path id="DejaVuSans-30" d="M 2034 4250 
Q 1547 4250 1301 3770 
Q 1056 3291 1056 2328 
Q 1056 1369 1301 889 
Q 1547 409 2034 409 
Q 2525 409 2770 889 
Q 3016 1369 3016 2328 
Q 3016 3291 2770 3770 
Q 2525 4250 2034 4250 
z
M 2034 4750 
Q 2819 4750 3233 4129 
Q 3647 3509 3647 2328 
Q 3647 1150 3233 529 
Q 2819 -91 2034 -91 
Q 1250 -91 836 529 
Q 422 1150 422 2328 
Q 422 3509 836 4129 
Q 1250 4750 2034 4750 
z
" transform="scale(0.015625)"/>
       </defs>
       <use xlink:href="#DejaVuSans-30"/>
      </g>
     </g>
    </g>
    <g id="ytick_2">
     <g id="line2d_10">
      <g>
       <use xlink:href="#m9f047525c6" x="84.75" y="283.966125" style="stroke: #000000; stroke-width: 0.8"/>
      </g>
     </g>
     <g id="text_11">
      <!-- 250 -->
      <g transform="translate(58.6625 287.765344) scale(0.1 -0.1)">
       <use xlink:href="#DejaVuSans-32"/>
       <use xlink:href="#DejaVuSans-35" transform="translate(63.623047 0)"/>
       <use xlink:href="#DejaVuSans-30" transform="translate(127.246094 0)"/>
      </g>
     </g>
    </g>
    <g id="ytick_3">
     <g id="line2d_11">
      <g>
       <use xlink:href="#m9f047525c6" x="84.75" y="250.702125" style="stroke: #000000; stroke-width: 0.8"/>
      </g>
     </g>
     <g id="text_12">
      <!-- 500 -->
      <g transform="translate(58.6625 254.501344) scale(0.1 -0.1)">
       <use xlink:href="#DejaVuSans-35"/>
       <use xlink:href="#DejaVuSans-30" transform="translate(63.623047 0)"/>
       <use xlink:href="#DejaVuSans-30" transform="translate(127.246094 0)"/>
      </g>
     </g>
    </g>
    <g id="ytick_4">
     <g id="line2d_12">
      <g>
       <use xlink:href="#m9f047525c6" x="84.75" y="217.438125" style="stroke: #000000; stroke-width: 0.8"/>
      </g>
     </g>
     <g id="text_13">
      <!-- 750 -->
      <g transform="translate(58.6625 221.237344) scale(0.1 -0.1)">
       <use xlink:href="#DejaVuSans-37"/>
       <use xlink:href="#DejaVuSans-35" transform="translate(63.623047 0)"/>
       <use xlink:href="#DejaVuSans-30" transform="translate(127.246094 0)"/>
      </g>
     </g>
    </g>
    <g id="ytick_5">
     <g id="line2d_13">
      <g>
       <use xlink:href="#m9f047525c6" x="84.75" y="184.174125" style="stroke: #000000; stroke-width: 0.8"/>
      </g>
     </g>
     <g id="text_14">
      <!-- 1000 -->
      <g transform="translate(52.3 187.973344) scale(0.1 -0.1)">
       <use xlink:href="#DejaVuSans-31"/>
       <use xlink:href="#DejaVuSans-30" transform="translate(63.623047 0)"/>
       <use xlink:href="#DejaVuSans-30" transform="translate(127.246094 0)"/>
       <use xlink:href="#DejaVuSans-30" transform="translate(190.869141 0)"/>
      </g>
     </g>
    </g>
    <g id="ytick_6">
     <g id="line2d_14">
      <g>
       <use xlink:href="#m9f047525c6" x="84.75" y="150.910125" style="stroke: #000000; stroke-width: 0.8"/>
      </g>
     </g>
     <g id="text_15">
      <!-- 1250 -->
      <g transform="translate(52.3 154.709344) scale(0.1 -0.1)">
       <use xlink:href="#DejaVuSans-31"/>
       <use xlink:href="#DejaVuSans-32" transform="translate(63.623047 0)"/>
       <use xlink:href="#DejaVuSans-35" transform="translate(127.246094 0)"/>
       <use xlink:href="#DejaVuSans-30" transform="translate(190.869141 0)"/>
      </g>
     </g>
    </g>
    <g id="ytick_7">
     <g id="line2d_15">
      <g>
       <use xlink:href="#m9f047525c6" x="84.75" y="117.646125" style="stroke: #000000; stroke-width: 0.8"/>
      </g>
     </g>
     <g id="text_16">
      <!-- 1500 -->
      <g transform="translate(52.3 121.445344) scale(0.1 -0.1)">
       <use xlink:href="#DejaVuSans-31"/>
       <use xlink:href="#DejaVuSans-35" transform="translate(63.623047 0)"/>
       <use xlink:href="#DejaVuSans-30" transform="translate(127.246094 0)"/>
       <use xlink:href="#DejaVuSans-30" transform="translate(190.869141 0)"/>
      </g>
     </g>
    </g>
    <g id="ytick_8">
     <g id="line2d_16">
      <g>
       <use xlink:href="#m9f047525c6" x="84.75" y="84.382125" style="stroke: #000000; stroke-width: 0.8"/>
      </g>
     </g>
     <g id="text_17">
      <!-- 1750 -->
      <g transform="translate(52.3 88.181344) scale(0.1 -0.1)">
       <use xlink:href="#DejaVuSans-31"/>
       <use xlink:href="#DejaVuSans-37" transform="translate(63.623047 0)"/>
       <use xlink:href="#DejaVuSans-35" transform="translate(127.246094 0)"/>
       <use xlink:href="#DejaVuSans-30" transform="translate(190.869141 0)"/>
      </g>
     </g>
    </g>
    <g id="ytick_9">
     <g id="line2d_17">
      <g>
       <use xlink:href="#m9f047525c6" x="84.75" y="51.118125" style="stroke: #000000; stroke-width: 0.8"/>
      </g>
     </g>
     <g id="text_18">
      <!-- 2000 -->
      <g transform="translate(52.3 54.917344) scale(0.1 -0.1)">
       <use xlink:href="#DejaVuSans-32"/>
       <use xlink:href="#DejaVuSans-30" transform="translate(63.623047 0)"/>
       <use xlink:href="#DejaVuSans-30" transform="translate(127.246094 0)"/>
       <use xlink:href="#DejaVuSans-30" transform="translate(190.869141 0)"/>
      </g>
     </g>
    </g>
    <g id="text_19">
     <!-- Frequenz $f$ in $\frac{1}{s}$ -->
     <g transform="translate(45.5 221.374125) rotate(-90) scale(0.1 -0.1)">
      <defs>
       <path id="DejaVuSans-46" d="M 628 4666 
L 3309 4666 
L 3309 4134 
L 1259 4134 
L 1259 2759 
L 3109 2759 
L 3109 2228 
L 1259 2228 
L 1259 0 
L 628 0 
L 628 4666 
z
" transform="scale(0.015625)"/>
       <path id="DejaVuSans-72" d="M 2631 2963 
Q 2534 3019 2420 3045 
Q 2306 3072 2169 3072 
Q 1681 3072 1420 2755 
Q 1159 2438 1159 1844 
L 1159 0 
L 581 0 
L 581 3500 
L 1159 3500 
L 1159 2956 
Q 1341 3275 1631 3429 
Q 1922 3584 2338 3584 
Q 2397 3584 2469 3576 
Q 2541 3569 2628 3553 
L 2631 2963 
z
" transform="scale(0.015625)"/>
       <path id="DejaVuSans-65" d="M 3597 1894 
L 3597 1613 
L 953 1613 
Q 991 1019 1311 708 
Q 1631 397 2203 397 
Q 2534 397 2845 478 
Q 3156 559 3463 722 
L 3463 178 
Q 3153 47 2828 -22 
Q 2503 -91 2169 -91 
Q 1331 -91 842 396 
Q 353 884 353 1716 
Q 353 2575 817 3079 
Q 1281 3584 2069 3584 
Q 2775 3584 3186 3129 
Q 3597 2675 3597 1894 
z
M 3022 2063 
Q 3016 2534 2758 2815 
Q 2500 3097 2075 3097 
Q 1594 3097 1305 2825 
Q 1016 2553 972 2059 
L 3022 2063 
z
" transform="scale(0.015625)"/>
       <path id="DejaVuSans-71" d="M 947 1747 
Q 947 1113 1208 752 
Q 1469 391 1925 391 
Q 2381 391 2643 752 
Q 2906 1113 2906 1747 
Q 2906 2381 2643 2742 
Q 2381 3103 1925 3103 
Q 1469 3103 1208 2742 
Q 947 2381 947 1747 
z
M 2906 525 
Q 2725 213 2448 61 
Q 2172 -91 1784 -91 
Q 1150 -91 751 415 
Q 353 922 353 1747 
Q 353 2572 751 3078 
Q 1150 3584 1784 3584 
Q 2172 3584 2448 3432 
Q 2725 3281 2906 2969 
L 2906 3500 
L 3481 3500 
L 3481 -1331 
L 2906 -1331 
L 2906 525 
z
" transform="scale(0.015625)"/>
       <path id="DejaVuSans-75" d="M 544 1381 
L 544 3500 
L 1119 3500 
L 1119 1403 
Q 1119 906 1312 657 
Q 1506 409 1894 409 
Q 2359 409 2629 706 
Q 2900 1003 2900 1516 
L 2900 3500 
L 3475 3500 
L 3475 0 
L 2900 0 
L 2900 538 
Q 2691 219 2414 64 
Q 2138 -91 1772 -91 
Q 1169 -91 856 284 
Q 544 659 544 1381 
z
M 1991 3584 
L 1991 3584 
z
" transform="scale(0.015625)"/>
       <path id="DejaVuSans-7a" d="M 353 3500 
L 3084 3500 
L 3084 2975 
L 922 459 
L 3084 459 
L 3084 0 
L 275 0 
L 275 525 
L 2438 3041 
L 353 3041 
L 353 3500 
z
" transform="scale(0.015625)"/>
       <path id="DejaVuSans-20" transform="scale(0.015625)"/>
       <path id="DejaVuSans-Oblique-66" d="M 3059 4863 
L 2969 4384 
L 2419 4384 
Q 2106 4384 1964 4261 
Q 1822 4138 1753 3809 
L 1691 3500 
L 2638 3500 
L 2553 3053 
L 1606 3053 
L 1013 0 
L 434 0 
L 1031 3053 
L 481 3053 
L 563 3500 
L 1113 3500 
L 1159 3744 
Q 1278 4363 1576 4613 
Q 1875 4863 2516 4863 
L 3059 4863 
z
" transform="scale(0.015625)"/>
       <path id="DejaVuSans-69" d="M 603 3500 
L 1178 3500 
L 1178 0 
L 603 0 
L 603 3500 
z
M 603 4863 
L 1178 4863 
L 1178 4134 
L 603 4134 
L 603 4863 
z
" transform="scale(0.015625)"/>
       <path id="DejaVuSans-Oblique-73" d="M 3200 3397 
L 3091 2853 
Q 2863 2978 2609 3040 
Q 2356 3103 2088 3103 
Q 1634 3103 1373 2948 
Q 1113 2794 1113 2528 
Q 1113 2219 1719 2053 
Q 1766 2041 1788 2034 
L 1972 1978 
Q 2547 1819 2739 1644 
Q 2931 1469 2931 1166 
Q 2931 609 2489 259 
Q 2047 -91 1331 -91 
Q 1053 -91 747 -37 
Q 441 16 72 128 
L 184 722 
Q 500 559 806 475 
Q 1113 391 1394 391 
Q 1816 391 2080 572 
Q 2344 753 2344 1031 
Q 2344 1331 1650 1516 
L 1591 1531 
L 1394 1581 
Q 956 1697 753 1886 
Q 550 2075 550 2369 
Q 550 2928 970 3256 
Q 1391 3584 2113 3584 
Q 2397 3584 2667 3537 
Q 2938 3491 3200 3397 
z
" transform="scale(0.015625)"/>
      </defs>
      <use xlink:href="#DejaVuSans-46" transform="translate(0 0.16875)"/>
      <use xlink:href="#DejaVuSans-72" transform="translate(57.519531 0.16875)"/>
      <use xlink:href="#DejaVuSans-65" transform="translate(98.632812 0.16875)"/>
      <use xlink:href="#DejaVuSans-71" transform="translate(160.15625 0.16875)"/>
      <use xlink:href="#DejaVuSans-75" transform="translate(223.632812 0.16875)"/>
      <use xlink:href="#DejaVuSans-65" transform="translate(287.011719 0.16875)"/>
      <use xlink:href="#DejaVuSans-6e" transform="translate(348.535156 0.16875)"/>
      <use xlink:href="#DejaVuSans-7a" transform="translate(411.914062 0.16875)"/>
      <use xlink:href="#DejaVuSans-20" transform="translate(464.404297 0.16875)"/>
      <use xlink:href="#DejaVuSans-Oblique-66" transform="translate(496.191406 0.16875)"/>
      <use xlink:href="#DejaVuSans-20" transform="translate(531.396484 0.16875)"/>
      <use xlink:href="#DejaVuSans-69" transform="translate(563.183594 0.16875)"/>
      <use xlink:href="#DejaVuSans-6e" transform="translate(590.966797 0.16875)"/>
      <use xlink:href="#DejaVuSans-20" transform="translate(654.345703 0.16875)"/>
      <use xlink:href="#DejaVuSans-31" transform="translate(686.132812 43.965625) scale(0.7)"/>
      <use xlink:href="#DejaVuSans-Oblique-73" transform="translate(690.132812 -26.484375) scale(0.7)"/>
      <path d="M 686.132812 18.965625 
L 686.132812 25.215625 
L 730.668945 25.215625 
L 730.668945 18.965625 
L 686.132812 18.965625 
z
"/>
     </g>
    </g>
   </g>
   <g id="LineCollection_1">
    <path d="M 126.764114 291.284205 
L 126.764114 289.953645 
" clip-path="url(#pbf39b647ce)" style="fill: none; stroke: #add8e6; stroke-width: 1.5"/>
    <path d="M 168.778232 264.673005 
L 168.778232 263.342445 
" clip-path="url(#pbf39b647ce)" style="fill: none; stroke: #add8e6; stroke-width: 1.5"/>
    <path d="M 210.79235 238.061805 
L 210.79235 236.731245 
" clip-path="url(#pbf39b647ce)" style="fill: none; stroke: #add8e6; stroke-width: 1.5"/>
    <path d="M 252.806468 211.450605 
L 252.806468 210.120045 
" clip-path="url(#pbf39b647ce)" style="fill: none; stroke: #add8e6; stroke-width: 1.5"/>
    <path d="M 294.820587 184.839405 
L 294.820587 183.508845 
" clip-path="url(#pbf39b647ce)" style="fill: none; stroke: #add8e6; stroke-width: 1.5"/>
    <path d="M 336.834705 158.228205 
L 336.834705 156.897645 
" clip-path="url(#pbf39b647ce)" style="fill: none; stroke: #add8e6; stroke-width: 1.5"/>
    <path d="M 378.848823 131.617005 
L 378.848823 130.286445 
" clip-path="url(#pbf39b647ce)" style="fill: none; stroke: #add8e6; stroke-width: 1.5"/>
    <path d="M 420.862941 105.005805 
L 420.862941 103.675245 
" clip-path="url(#pbf39b647ce)" style="fill: none; stroke: #add8e6; stroke-width: 1.5"/>
   </g>
   <g id="line2d_18">
    <defs>
     <path id="mdae8695f32" d="M 6 0 
L -6 -0 
" style="stroke: #add8e6"/>
    </defs>
    <g clip-path="url(#pbf39b647ce)">
     <use xlink:href="#mdae8695f32" x="126.764114" y="291.284205" style="fill: #add8e6; stroke: #add8e6"/>
     <use xlink:href="#mdae8695f32" x="168.778232" y="264.673005" style="fill: #add8e6; stroke: #add8e6"/>
     <use xlink:href="#mdae8695f32" x="210.79235" y="238.061805" style="fill: #add8e6; stroke: #add8e6"/>
     <use xlink:href="#mdae8695f32" x="252.806468" y="211.450605" style="fill: #add8e6; stroke: #add8e6"/>
     <use xlink:href="#mdae8695f32" x="294.820587" y="184.839405" style="fill: #add8e6; stroke: #add8e6"/>
     <use xlink:href="#mdae8695f32" x="336.834705" y="158.228205" style="fill: #add8e6; stroke: #add8e6"/>
     <use xlink:href="#mdae8695f32" x="378.848823" y="131.617005" style="fill: #add8e6; stroke: #add8e6"/>
     <use xlink:href="#mdae8695f32" x="420.862941" y="105.005805" style="fill: #add8e6; stroke: #add8e6"/>
    </g>
   </g>
   <g id="line2d_19">
    <g clip-path="url(#pbf39b647ce)">
     <use xlink:href="#mdae8695f32" x="126.764114" y="289.953645" style="fill: #add8e6; stroke: #add8e6"/>
     <use xlink:href="#mdae8695f32" x="168.778232" y="263.342445" style="fill: #add8e6; stroke: #add8e6"/>
     <use xlink:href="#mdae8695f32" x="210.79235" y="236.731245" style="fill: #add8e6; stroke: #add8e6"/>
     <use xlink:href="#mdae8695f32" x="252.806468" y="210.120045" style="fill: #add8e6; stroke: #add8e6"/>
     <use xlink:href="#mdae8695f32" x="294.820587" y="183.508845" style="fill: #add8e6; stroke: #add8e6"/>
     <use xlink:href="#mdae8695f32" x="336.834705" y="156.897645" style="fill: #add8e6; stroke: #add8e6"/>
     <use xlink:href="#mdae8695f32" x="378.848823" y="130.286445" style="fill: #add8e6; stroke: #add8e6"/>
     <use xlink:href="#mdae8695f32" x="420.862941" y="103.675245" style="fill: #add8e6; stroke: #add8e6"/>
    </g>
   </g>
   <g id="LineCollection_2">
    <path d="M 126.764114 264.673005 
L 126.764114 263.342445 
" clip-path="url(#pbf39b647ce)" style="fill: none; stroke: #32cd32; stroke-width: 1.5"/>
    <path d="M 168.778232 238.061805 
L 168.778232 236.731245 
" clip-path="url(#pbf39b647ce)" style="fill: none; stroke: #32cd32; stroke-width: 1.5"/>
    <path d="M 210.79235 211.450605 
L 210.79235 210.120045 
" clip-path="url(#pbf39b647ce)" style="fill: none; stroke: #32cd32; stroke-width: 1.5"/>
    <path d="M 252.806468 184.839405 
L 252.806468 183.508845 
" clip-path="url(#pbf39b647ce)" style="fill: none; stroke: #32cd32; stroke-width: 1.5"/>
    <path d="M 294.820587 158.228205 
L 294.820587 156.897645 
" clip-path="url(#pbf39b647ce)" style="fill: none; stroke: #32cd32; stroke-width: 1.5"/>
    <path d="M 336.834705 131.617005 
L 336.834705 130.286445 
" clip-path="url(#pbf39b647ce)" style="fill: none; stroke: #32cd32; stroke-width: 1.5"/>
    <path d="M 378.848823 105.005805 
L 378.848823 103.675245 
" clip-path="url(#pbf39b647ce)" style="fill: none; stroke: #32cd32; stroke-width: 1.5"/>
    <path d="M 420.862941 78.394605 
L 420.862941 77.064045 
" clip-path="url(#pbf39b647ce)" style="fill: none; stroke: #32cd32; stroke-width: 1.5"/>
   </g>
   <g id="line2d_20">
    <defs>
     <path id="m4e23ff5509" d="M 6 0 
L -6 -0 
" style="stroke: #32cd32"/>
    </defs>
    <g clip-path="url(#pbf39b647ce)">
     <use xlink:href="#m4e23ff5509" x="126.764114" y="264.673005" style="fill: #32cd32; stroke: #32cd32"/>
     <use xlink:href="#m4e23ff5509" x="168.778232" y="238.061805" style="fill: #32cd32; stroke: #32cd32"/>
     <use xlink:href="#m4e23ff5509" x="210.79235" y="211.450605" style="fill: #32cd32; stroke: #32cd32"/>
     <use xlink:href="#m4e23ff5509" x="252.806468" y="184.839405" style="fill: #32cd32; stroke: #32cd32"/>
     <use xlink:href="#m4e23ff5509" x="294.820587" y="158.228205" style="fill: #32cd32; stroke: #32cd32"/>
     <use xlink:href="#m4e23ff5509" x="336.834705" y="131.617005" style="fill: #32cd32; stroke: #32cd32"/>
     <use xlink:href="#m4e23ff5509" x="378.848823" y="105.005805" style="fill: #32cd32; stroke: #32cd32"/>
     <use xlink:href="#m4e23ff5509" x="420.862941" y="78.394605" style="fill: #32cd32; stroke: #32cd32"/>
    </g>
   </g>
   <g id="line2d_21">
    <g clip-path="url(#pbf39b647ce)">
     <use xlink:href="#m4e23ff5509" x="126.764114" y="263.342445" style="fill: #32cd32; stroke: #32cd32"/>
     <use xlink:href="#m4e23ff5509" x="168.778232" y="236.731245" style="fill: #32cd32; stroke: #32cd32"/>
     <use xlink:href="#m4e23ff5509" x="210.79235" y="210.120045" style="fill: #32cd32; stroke: #32cd32"/>
     <use xlink:href="#m4e23ff5509" x="252.806468" y="183.508845" style="fill: #32cd32; stroke: #32cd32"/>
     <use xlink:href="#m4e23ff5509" x="294.820587" y="156.897645" style="fill: #32cd32; stroke: #32cd32"/>
     <use xlink:href="#m4e23ff5509" x="336.834705" y="130.286445" style="fill: #32cd32; stroke: #32cd32"/>
     <use xlink:href="#m4e23ff5509" x="378.848823" y="103.675245" style="fill: #32cd32; stroke: #32cd32"/>
     <use xlink:href="#m4e23ff5509" x="420.862941" y="77.064045" style="fill: #32cd32; stroke: #32cd32"/>
    </g>
   </g>
   <g id="LineCollection_3">
    <path d="M 126.764114 304.589805 
L 126.764114 303.259245 
" clip-path="url(#pbf39b647ce)" style="fill: none; stroke: #ff7f50; stroke-width: 1.5"/>
    <path d="M 168.778232 277.978605 
L 168.778232 276.648045 
" clip-path="url(#pbf39b647ce)" style="fill: none; stroke: #ff7f50; stroke-width: 1.5"/>
    <path d="M 210.79235 251.367405 
L 210.79235 250.036845 
" clip-path="url(#pbf39b647ce)" style="fill: none; stroke: #ff7f50; stroke-width: 1.5"/>
    <path d="M 252.806468 224.756205 
L 252.806468 223.425645 
" clip-path="url(#pbf39b647ce)" style="fill: none; stroke: #ff7f50; stroke-width: 1.5"/>
    <path d="M 294.820587 198.145005 
L 294.820587 196.814445 
" clip-path="url(#pbf39b647ce)" style="fill: none; stroke: #ff7f50; stroke-width: 1.5"/>
    <path d="M 336.834705 171.533805 
L 336.834705 170.203245 
" clip-path="url(#pbf39b647ce)" style="fill: none; stroke: #ff7f50; stroke-width: 1.5"/>
    <path d="M 378.848823 144.922605 
L 378.848823 143.592045 
" clip-path="url(#pbf39b647ce)" style="fill: none; stroke: #ff7f50; stroke-width: 1.5"/>
    <path d="M 420.862941 118.311405 
L 420.862941 116.980845 
" clip-path="url(#pbf39b647ce)" style="fill: none; stroke: #ff7f50; stroke-width: 1.5"/>
   </g>
   <g id="line2d_22">
    <defs>
     <path id="me40f7a8361" d="M 6 0 
L -6 -0 
" style="stroke: #ff7f50"/>
    </defs>
    <g clip-path="url(#pbf39b647ce)">
     <use xlink:href="#me40f7a8361" x="126.764114" y="304.589805" style="fill: #ff7f50; stroke: #ff7f50"/>
     <use xlink:href="#me40f7a8361" x="168.778232" y="277.978605" style="fill: #ff7f50; stroke: #ff7f50"/>
     <use xlink:href="#me40f7a8361" x="210.79235" y="251.367405" style="fill: #ff7f50; stroke: #ff7f50"/>
     <use xlink:href="#me40f7a8361" x="252.806468" y="224.756205" style="fill: #ff7f50; stroke: #ff7f50"/>
     <use xlink:href="#me40f7a8361" x="294.820587" y="198.145005" style="fill: #ff7f50; stroke: #ff7f50"/>
     <use xlink:href="#me40f7a8361" x="336.834705" y="171.533805" style="fill: #ff7f50; stroke: #ff7f50"/>
     <use xlink:href="#me40f7a8361" x="378.848823" y="144.922605" style="fill: #ff7f50; stroke: #ff7f50"/>
     <use xlink:href="#me40f7a8361" x="420.862941" y="118.311405" style="fill: #ff7f50; stroke: #ff7f50"/>
    </g>
   </g>
   <g id="line2d_23">
    <g clip-path="url(#pbf39b647ce)">
     <use xlink:href="#me40f7a8361" x="126.764114" y="303.259245" style="fill: #ff7f50; stroke: #ff7f50"/>
     <use xlink:href="#me40f7a8361" x="168.778232" y="276.648045" style="fill: #ff7f50; stroke: #ff7f50"/>
     <use xlink:href="#me40f7a8361" x="210.79235" y="250.036845" style="fill: #ff7f50; stroke: #ff7f50"/>
     <use xlink:href="#me40f7a8361" x="252.806468" y="223.425645" style="fill: #ff7f50; stroke: #ff7f50"/>
     <use xlink:href="#me40f7a8361" x="294.820587" y="196.814445" style="fill: #ff7f50; stroke: #ff7f50"/>
     <use xlink:href="#me40f7a8361" x="336.834705" y="170.203245" style="fill: #ff7f50; stroke: #ff7f50"/>
     <use xlink:href="#me40f7a8361" x="378.848823" y="143.592045" style="fill: #ff7f50; stroke: #ff7f50"/>
     <use xlink:href="#me40f7a8361" x="420.862941" y="116.980845" style="fill: #ff7f50; stroke: #ff7f50"/>
    </g>
   </g>
   <g id="line2d_24">
    <path d="M 84.749996 317.230125 
L 478.87 67.599603 
L 478.87 67.599603 
" clip-path="url(#pbf39b647ce)" style="fill: none; stroke: #0000ff; stroke-width: 2; stroke-linecap: square"/>
   </g>
   <g id="line2d_25">
    <path d="M 84.749996 317.230125 
L 478.87 23.547158 
L 478.87 23.547158 
" clip-path="url(#pbf39b647ce)" style="fill: none; stroke: #90ee90; stroke-width: 2; stroke-linecap: square"/>
   </g>
   <g id="line2d_26">
    <path d="M 84.749996 317.230125 
L 478.87 89.625825 
L 478.87 89.625825 
" clip-path="url(#pbf39b647ce)" style="fill: none; stroke: #dda0dd; stroke-width: 2; stroke-linecap: square"/>
   </g>
   <g id="line2d_27">
    <defs>
     <path id="m087cb6929a" d="M 0 3 
C 0.795609 3 1.55874 2.683901 2.12132 2.12132 
C 2.683901 1.55874 3 0.795609 3 0 
C 3 -0.795609 2.683901 -1.55874 2.12132 -2.12132 
C 1.55874 -2.683901 0.795609 -3 0 -3 
C -0.795609 -3 -1.55874 -2.683901 -2.12132 -2.12132 
C -2.683901 -1.55874 -3 -0.795609 -3 0 
C -3 0.795609 -2.683901 1.55874 -2.12132 2.12132 
C -1.55874 2.683901 -0.795609 3 0 3 
z
" style="stroke: #add8e6"/>
    </defs>
    <g clip-path="url(#pbf39b647ce)">
     <use xlink:href="#m087cb6929a" x="126.764114" y="290.618925" style="fill: #add8e6; stroke: #add8e6"/>
     <use xlink:href="#m087cb6929a" x="168.778232" y="264.007725" style="fill: #add8e6; stroke: #add8e6"/>
     <use xlink:href="#m087cb6929a" x="210.79235" y="237.396525" style="fill: #add8e6; stroke: #add8e6"/>
     <use xlink:href="#m087cb6929a" x="252.806468" y="210.785325" style="fill: #add8e6; stroke: #add8e6"/>
     <use xlink:href="#m087cb6929a" x="294.820587" y="184.174125" style="fill: #add8e6; stroke: #add8e6"/>
     <use xlink:href="#m087cb6929a" x="336.834705" y="157.562925" style="fill: #add8e6; stroke: #add8e6"/>
     <use xlink:href="#m087cb6929a" x="378.848823" y="130.951725" style="fill: #add8e6; stroke: #add8e6"/>
     <use xlink:href="#m087cb6929a" x="420.862941" y="104.340525" style="fill: #add8e6; stroke: #add8e6"/>
    </g>
   </g>
   <g id="line2d_28">
    <defs>
     <path id="m69c140e09e" d="M 0 3 
C 0.795609 3 1.55874 2.683901 2.12132 2.12132 
C 2.683901 1.55874 3 0.795609 3 0 
C 3 -0.795609 2.683901 -1.55874 2.12132 -2.12132 
C 1.55874 -2.683901 0.795609 -3 0 -3 
C -0.795609 -3 -1.55874 -2.683901 -2.12132 -2.12132 
C -2.683901 -1.55874 -3 -0.795609 -3 0 
C -3 0.795609 -2.683901 1.55874 -2.12132 2.12132 
C -1.55874 2.683901 -0.795609 3 0 3 
z
" style="stroke: #32cd32"/>
    </defs>
    <g clip-path="url(#pbf39b647ce)">
     <use xlink:href="#m69c140e09e" x="126.764114" y="264.007725" style="fill: #32cd32; stroke: #32cd32"/>
     <use xlink:href="#m69c140e09e" x="168.778232" y="237.396525" style="fill: #32cd32; stroke: #32cd32"/>
     <use xlink:href="#m69c140e09e" x="210.79235" y="210.785325" style="fill: #32cd32; stroke: #32cd32"/>
     <use xlink:href="#m69c140e09e" x="252.806468" y="184.174125" style="fill: #32cd32; stroke: #32cd32"/>
     <use xlink:href="#m69c140e09e" x="294.820587" y="157.562925" style="fill: #32cd32; stroke: #32cd32"/>
     <use xlink:href="#m69c140e09e" x="336.834705" y="130.951725" style="fill: #32cd32; stroke: #32cd32"/>
     <use xlink:href="#m69c140e09e" x="378.848823" y="104.340525" style="fill: #32cd32; stroke: #32cd32"/>
     <use xlink:href="#m69c140e09e" x="420.862941" y="77.729325" style="fill: #32cd32; stroke: #32cd32"/>
    </g>
   </g>
   <g id="line2d_29">
    <defs>
     <path id="m201f01a5d5" d="M 0 3 
C 0.795609 3 1.55874 2.683901 2.12132 2.12132 
C 2.683901 1.55874 3 0.795609 3 0 
C 3 -0.795609 2.683901 -1.55874 2.12132 -2.12132 
C 1.55874 -2.683901 0.795609 -3 0 -3 
C -0.795609 -3 -1.55874 -2.683901 -2.12132 -2.12132 
C -2.683901 -1.55874 -3 -0.795609 -3 0 
C -3 0.795609 -2.683901 1.55874 -2.12132 2.12132 
C -1.55874 2.683901 -0.795609 3 0 3 
z
" style="stroke: #ff7f50"/>
    </defs>
    <g clip-path="url(#pbf39b647ce)">
     <use xlink:href="#m201f01a5d5" x="126.764114" y="303.924525" style="fill: #ff7f50; stroke: #ff7f50"/>
     <use xlink:href="#m201f01a5d5" x="168.778232" y="277.313325" style="fill: #ff7f50; stroke: #ff7f50"/>
     <use xlink:href="#m201f01a5d5" x="210.79235" y="250.702125" style="fill: #ff7f50; stroke: #ff7f50"/>
     <use xlink:href="#m201f01a5d5" x="252.806468" y="224.090925" style="fill: #ff7f50; stroke: #ff7f50"/>
     <use xlink:href="#m201f01a5d5" x="294.820587" y="197.479725" style="fill: #ff7f50; stroke: #ff7f50"/>
     <use xlink:href="#m201f01a5d5" x="336.834705" y="170.868525" style="fill: #ff7f50; stroke: #ff7f50"/>
     <use xlink:href="#m201f01a5d5" x="378.848823" y="144.257325" style="fill: #ff7f50; stroke: #ff7f50"/>
     <use xlink:href="#m201f01a5d5" x="420.862941" y="117.646125" style="fill: #ff7f50; stroke: #ff7f50"/>
    </g>
   </g>
   <g id="patch_3">
    <path d="M 84.75 317.230125 
L 84.75 51.118125 
" style="fill: none; stroke: #000000; stroke-width: 0.8; stroke-linejoin: miter; stroke-linecap: square"/>
   </g>
   <g id="patch_4">
    <path d="M 441.87 317.230125 
L 441.87 51.118125 
" style="fill: none; stroke: #000000; stroke-width: 0.8; stroke-linejoin: miter; stroke-linecap: square"/>
   </g>
   <g id="patch_5">
    <path d="M 84.75 317.230125 
L 441.87 317.230125 
" style="fill: none; stroke: #000000; stroke-width: 0.8; stroke-linejoin: miter; stroke-linecap: square"/>
   </g>
   <g id="patch_6">
    <path d="M 84.75 51.118125 
L 441.87 51.118125 
" style="fill: none; stroke: #000000; stroke-width: 0.8; stroke-linejoin: miter; stroke-linecap: square"/>
   </g>
   <g id="text_20">
    <!-- Resonanzfrequenzen in Abhängigkeit von n -->
    <g transform="translate(133.23375 45.118125) scale(0.12 -0.12)">
     <defs>
      <path id="DejaVuSans-52" d="M 2841 2188 
Q 3044 2119 3236 1894 
Q 3428 1669 3622 1275 
L 4263 0 
L 3584 0 
L 2988 1197 
Q 2756 1666 2539 1819 
Q 2322 1972 1947 1972 
L 1259 1972 
L 1259 0 
L 628 0 
L 628 4666 
L 2053 4666 
Q 2853 4666 3247 4331 
Q 3641 3997 3641 3322 
Q 3641 2881 3436 2590 
Q 3231 2300 2841 2188 
z
M 1259 4147 
L 1259 2491 
L 2053 2491 
Q 2509 2491 2742 2702 
Q 2975 2913 2975 3322 
Q 2975 3731 2742 3939 
Q 2509 4147 2053 4147 
L 1259 4147 
z
" transform="scale(0.015625)"/>
      <path id="DejaVuSans-73" d="M 2834 3397 
L 2834 2853 
Q 2591 2978 2328 3040 
Q 2066 3103 1784 3103 
Q 1356 3103 1142 2972 
Q 928 2841 928 2578 
Q 928 2378 1081 2264 
Q 1234 2150 1697 2047 
L 1894 2003 
Q 2506 1872 2764 1633 
Q 3022 1394 3022 966 
Q 3022 478 2636 193 
Q 2250 -91 1575 -91 
Q 1294 -91 989 -36 
Q 684 19 347 128 
L 347 722 
Q 666 556 975 473 
Q 1284 391 1588 391 
Q 1994 391 2212 530 
Q 2431 669 2431 922 
Q 2431 1156 2273 1281 
Q 2116 1406 1581 1522 
L 1381 1569 
Q 847 1681 609 1914 
Q 372 2147 372 2553 
Q 372 3047 722 3315 
Q 1072 3584 1716 3584 
Q 2034 3584 2315 3537 
Q 2597 3491 2834 3397 
z
" transform="scale(0.015625)"/>
      <path id="DejaVuSans-6f" d="M 1959 3097 
Q 1497 3097 1228 2736 
Q 959 2375 959 1747 
Q 959 1119 1226 758 
Q 1494 397 1959 397 
Q 2419 397 2687 759 
Q 2956 1122 2956 1747 
Q 2956 2369 2687 2733 
Q 2419 3097 1959 3097 
z
M 1959 3584 
Q 2709 3584 3137 3096 
Q 3566 2609 3566 1747 
Q 3566 888 3137 398 
Q 2709 -91 1959 -91 
Q 1206 -91 779 398 
Q 353 888 353 1747 
Q 353 2609 779 3096 
Q 1206 3584 1959 3584 
z
" transform="scale(0.015625)"/>
      <path id="DejaVuSans-61" d="M 2194 1759 
Q 1497 1759 1228 1600 
Q 959 1441 959 1056 
Q 959 750 1161 570 
Q 1363 391 1709 391 
Q 2188 391 2477 730 
Q 2766 1069 2766 1631 
L 2766 1759 
L 2194 1759 
z
M 3341 1997 
L 3341 0 
L 2766 0 
L 2766 531 
Q 2569 213 2275 61 
Q 1981 -91 1556 -91 
Q 1019 -91 701 211 
Q 384 513 384 1019 
Q 384 1609 779 1909 
Q 1175 2209 1959 2209 
L 2766 2209 
L 2766 2266 
Q 2766 2663 2505 2880 
Q 2244 3097 1772 3097 
Q 1472 3097 1187 3025 
Q 903 2953 641 2809 
L 641 3341 
Q 956 3463 1253 3523 
Q 1550 3584 1831 3584 
Q 2591 3584 2966 3190 
Q 3341 2797 3341 1997 
z
" transform="scale(0.015625)"/>
      <path id="DejaVuSans-66" d="M 2375 4863 
L 2375 4384 
L 1825 4384 
Q 1516 4384 1395 4259 
Q 1275 4134 1275 3809 
L 1275 3500 
L 2222 3500 
L 2222 3053 
L 1275 3053 
L 1275 0 
L 697 0 
L 697 3053 
L 147 3053 
L 147 3500 
L 697 3500 
L 697 3744 
Q 697 4328 969 4595 
Q 1241 4863 1831 4863 
L 2375 4863 
z
" transform="scale(0.015625)"/>
      <path id="DejaVuSans-41" d="M 2188 4044 
L 1331 1722 
L 3047 1722 
L 2188 4044 
z
M 1831 4666 
L 2547 4666 
L 4325 0 
L 3669 0 
L 3244 1197 
L 1141 1197 
L 716 0 
L 50 0 
L 1831 4666 
z
" transform="scale(0.015625)"/>
      <path id="DejaVuSans-62" d="M 3116 1747 
Q 3116 2381 2855 2742 
Q 2594 3103 2138 3103 
Q 1681 3103 1420 2742 
Q 1159 2381 1159 1747 
Q 1159 1113 1420 752 
Q 1681 391 2138 391 
Q 2594 391 2855 752 
Q 3116 1113 3116 1747 
z
M 1159 2969 
Q 1341 3281 1617 3432 
Q 1894 3584 2278 3584 
Q 2916 3584 3314 3078 
Q 3713 2572 3713 1747 
Q 3713 922 3314 415 
Q 2916 -91 2278 -91 
Q 1894 -91 1617 61 
Q 1341 213 1159 525 
L 1159 0 
L 581 0 
L 581 4863 
L 1159 4863 
L 1159 2969 
z
" transform="scale(0.015625)"/>
      <path id="DejaVuSans-68" d="M 3513 2113 
L 3513 0 
L 2938 0 
L 2938 2094 
Q 2938 2591 2744 2837 
Q 2550 3084 2163 3084 
Q 1697 3084 1428 2787 
Q 1159 2491 1159 1978 
L 1159 0 
L 581 0 
L 581 4863 
L 1159 4863 
L 1159 2956 
Q 1366 3272 1645 3428 
Q 1925 3584 2291 3584 
Q 2894 3584 3203 3211 
Q 3513 2838 3513 2113 
z
" transform="scale(0.015625)"/>
      <path id="DejaVuSans-e4" d="M 2194 1759 
Q 1497 1759 1228 1600 
Q 959 1441 959 1056 
Q 959 750 1161 570 
Q 1363 391 1709 391 
Q 2188 391 2477 730 
Q 2766 1069 2766 1631 
L 2766 1759 
L 2194 1759 
z
M 3341 1997 
L 3341 0 
L 2766 0 
L 2766 531 
Q 2569 213 2275 61 
Q 1981 -91 1556 -91 
Q 1019 -91 701 211 
Q 384 513 384 1019 
Q 384 1609 779 1909 
Q 1175 2209 1959 2209 
L 2766 2209 
L 2766 2266 
Q 2766 2663 2505 2880 
Q 2244 3097 1772 3097 
Q 1472 3097 1187 3025 
Q 903 2953 641 2809 
L 641 3341 
Q 956 3463 1253 3523 
Q 1550 3584 1831 3584 
Q 2591 3584 2966 3190 
Q 3341 2797 3341 1997 
z
M 2150 4850 
L 2784 4850 
L 2784 4219 
L 2150 4219 
L 2150 4850 
z
M 928 4850 
L 1562 4850 
L 1562 4219 
L 928 4219 
L 928 4850 
z
" transform="scale(0.015625)"/>
      <path id="DejaVuSans-67" d="M 2906 1791 
Q 2906 2416 2648 2759 
Q 2391 3103 1925 3103 
Q 1463 3103 1205 2759 
Q 947 2416 947 1791 
Q 947 1169 1205 825 
Q 1463 481 1925 481 
Q 2391 481 2648 825 
Q 2906 1169 2906 1791 
z
M 3481 434 
Q 3481 -459 3084 -895 
Q 2688 -1331 1869 -1331 
Q 1566 -1331 1297 -1286 
Q 1028 -1241 775 -1147 
L 775 -588 
Q 1028 -725 1275 -790 
Q 1522 -856 1778 -856 
Q 2344 -856 2625 -561 
Q 2906 -266 2906 331 
L 2906 616 
Q 2728 306 2450 153 
Q 2172 0 1784 0 
Q 1141 0 747 490 
Q 353 981 353 1791 
Q 353 2603 747 3093 
Q 1141 3584 1784 3584 
Q 2172 3584 2450 3431 
Q 2728 3278 2906 2969 
L 2906 3500 
L 3481 3500 
L 3481 434 
z
" transform="scale(0.015625)"/>
      <path id="DejaVuSans-6b" d="M 581 4863 
L 1159 4863 
L 1159 1991 
L 2875 3500 
L 3609 3500 
L 1753 1863 
L 3688 0 
L 2938 0 
L 1159 1709 
L 1159 0 
L 581 0 
L 581 4863 
z
" transform="scale(0.015625)"/>
      <path id="DejaVuSans-74" d="M 1172 4494 
L 1172 3500 
L 2356 3500 
L 2356 3053 
L 1172 3053 
L 1172 1153 
Q 1172 725 1289 603 
Q 1406 481 1766 481 
L 2356 481 
L 2356 0 
L 1766 0 
Q 1100 0 847 248 
Q 594 497 594 1153 
L 594 3053 
L 172 3053 
L 172 3500 
L 594 3500 
L 594 4494 
L 1172 4494 
z
" transform="scale(0.015625)"/>
      <path id="DejaVuSans-76" d="M 191 3500 
L 800 3500 
L 1894 563 
L 2988 3500 
L 3597 3500 
L 2284 0 
L 1503 0 
L 191 3500 
z
" transform="scale(0.015625)"/>
     </defs>
     <use xlink:href="#DejaVuSans-52"/>
     <use xlink:href="#DejaVuSans-65" transform="translate(64.982422 0)"/>
     <use xlink:href="#DejaVuSans-73" transform="translate(126.505859 0)"/>
     <use xlink:href="#DejaVuSans-6f" transform="translate(178.605469 0)"/>
     <use xlink:href="#DejaVuSans-6e" transform="translate(239.787109 0)"/>
     <use xlink:href="#DejaVuSans-61" transform="translate(303.166016 0)"/>
     <use xlink:href="#DejaVuSans-6e" transform="translate(364.445312 0)"/>
     <use xlink:href="#DejaVuSans-7a" transform="translate(427.824219 0)"/>
     <use xlink:href="#DejaVuSans-66" transform="translate(480.314453 0)"/>
     <use xlink:href="#DejaVuSans-72" transform="translate(515.519531 0)"/>
     <use xlink:href="#DejaVuSans-65" transform="translate(554.382812 0)"/>
     <use xlink:href="#DejaVuSans-71" transform="translate(615.90625 0)"/>
     <use xlink:href="#DejaVuSans-75" transform="translate(679.382812 0)"/>
     <use xlink:href="#DejaVuSans-65" transform="translate(742.761719 0)"/>
     <use xlink:href="#DejaVuSans-6e" transform="translate(804.285156 0)"/>
     <use xlink:href="#DejaVuSans-7a" transform="translate(867.664062 0)"/>
     <use xlink:href="#DejaVuSans-65" transform="translate(920.154297 0)"/>
     <use xlink:href="#DejaVuSans-6e" transform="translate(981.677734 0)"/>
     <use xlink:href="#DejaVuSans-20" transform="translate(1045.056641 0)"/>
     <use xlink:href="#DejaVuSans-69" transform="translate(1076.84375 0)"/>
     <use xlink:href="#DejaVuSans-6e" transform="translate(1104.626953 0)"/>
     <use xlink:href="#DejaVuSans-20" transform="translate(1168.005859 0)"/>
     <use xlink:href="#DejaVuSans-41" transform="translate(1199.792969 0)"/>
     <use xlink:href="#DejaVuSans-62" transform="translate(1268.201172 0)"/>
     <use xlink:href="#DejaVuSans-68" transform="translate(1331.677734 0)"/>
     <use xlink:href="#DejaVuSans-e4" transform="translate(1395.056641 0)"/>
     <use xlink:href="#DejaVuSans-6e" transform="translate(1456.335938 0)"/>
     <use xlink:href="#DejaVuSans-67" transform="translate(1519.714844 0)"/>
     <use xlink:href="#DejaVuSans-69" transform="translate(1583.191406 0)"/>
     <use xlink:href="#DejaVuSans-67" transform="translate(1610.974609 0)"/>
     <use xlink:href="#DejaVuSans-6b" transform="translate(1674.451172 0)"/>
     <use xlink:href="#DejaVuSans-65" transform="translate(1728.736328 0)"/>
     <use xlink:href="#DejaVuSans-69" transform="translate(1790.259766 0)"/>
     <use xlink:href="#DejaVuSans-74" transform="translate(1818.042969 0)"/>
     <use xlink:href="#DejaVuSans-20" transform="translate(1857.251953 0)"/>
     <use xlink:href="#DejaVuSans-76" transform="translate(1889.039062 0)"/>
     <use xlink:href="#DejaVuSans-6f" transform="translate(1948.21875 0)"/>
     <use xlink:href="#DejaVuSans-6e" transform="translate(2009.400391 0)"/>
     <use xlink:href="#DejaVuSans-20" transform="translate(2072.779297 0)"/>
     <use xlink:href="#DejaVuSans-6e" transform="translate(2104.566406 0)"/>
    </g>
   </g>
   <g id="legend_1">
    <g id="patch_7">
     <path d="M 91.75 136.811562 
L 266.55 136.811562 
Q 268.55 136.811562 268.55 134.811562 
L 268.55 58.118125 
Q 268.55 56.118125 266.55 56.118125 
L 91.75 56.118125 
Q 89.75 56.118125 89.75 58.118125 
L 89.75 134.811562 
Q 89.75 136.811562 91.75 136.811562 
z
" style="fill: #ffffff; opacity: 0.8; stroke: #cccccc; stroke-linejoin: miter"/>
    </g>
    <g id="line2d_30">
     <path d="M 93.75 70.86625 
L 103.75 70.86625 
L 113.75 70.86625 
" style="fill: none; stroke: #0000ff; stroke-width: 2; stroke-linecap: square"/>
    </g>
    <g id="text_21">
     <!-- Fit Reihe 1: $y = A \cdot x$  -->
     <g transform="translate(121.75 67.718125) scale(0.1 -0.1)">
      <defs>
       <path id="DejaVuSans-3a" d="M 750 794 
L 1409 794 
L 1409 0 
L 750 0 
L 750 794 
z
M 750 3309 
L 1409 3309 
L 1409 2516 
L 750 2516 
L 750 3309 
z
" transform="scale(0.015625)"/>
       <path id="DejaVuSans-Oblique-79" d="M 1588 -325 
Q 1188 -997 936 -1164 
Q 684 -1331 294 -1331 
L -159 -1331 
L -63 -850 
L 269 -850 
Q 509 -850 678 -719 
Q 847 -588 1056 -206 
L 1234 128 
L 459 3500 
L 1069 3500 
L 1650 819 
L 3256 3500 
L 3859 3500 
L 1588 -325 
z
" transform="scale(0.015625)"/>
       <path id="DejaVuSans-3d" d="M 678 2906 
L 4684 2906 
L 4684 2381 
L 678 2381 
L 678 2906 
z
M 678 1631 
L 4684 1631 
L 4684 1100 
L 678 1100 
L 678 1631 
z
" transform="scale(0.015625)"/>
       <path id="DejaVuSans-Oblique-41" d="M 2356 4666 
L 3072 4666 
L 3938 0 
L 3278 0 
L 3084 1197 
L 984 1197 
L 325 0 
L -341 0 
L 2356 4666 
z
M 2584 4044 
L 1275 1722 
L 2988 1722 
L 2584 4044 
z
" transform="scale(0.015625)"/>
       <path id="DejaVuSans-22c5" d="M 684 2619 
L 1344 2619 
L 1344 1825 
L 684 1825 
L 684 2619 
z
" transform="scale(0.015625)"/>
       <path id="DejaVuSans-Oblique-78" d="M 3841 3500 
L 2234 1784 
L 3219 0 
L 2559 0 
L 1819 1388 
L 531 0 
L -166 0 
L 1556 1844 
L 641 3500 
L 1300 3500 
L 1972 2234 
L 3144 3500 
L 3841 3500 
z
" transform="scale(0.015625)"/>
      </defs>
      <use xlink:href="#DejaVuSans-46" transform="translate(0 0.015625)"/>
      <use xlink:href="#DejaVuSans-69" transform="translate(57.519531 0.015625)"/>
      <use xlink:href="#DejaVuSans-74" transform="translate(85.302734 0.015625)"/>
      <use xlink:href="#DejaVuSans-20" transform="translate(124.511719 0.015625)"/>
      <use xlink:href="#DejaVuSans-52" transform="translate(156.298828 0.015625)"/>
      <use xlink:href="#DejaVuSans-65" transform="translate(225.78125 0.015625)"/>
      <use xlink:href="#DejaVuSans-69" transform="translate(287.304688 0.015625)"/>
      <use xlink:href="#DejaVuSans-68" transform="translate(315.087891 0.015625)"/>
      <use xlink:href="#DejaVuSans-65" transform="translate(378.466797 0.015625)"/>
      <use xlink:href="#DejaVuSans-20" transform="translate(439.990234 0.015625)"/>
      <use xlink:href="#DejaVuSans-31" transform="translate(471.777344 0.015625)"/>
      <use xlink:href="#DejaVuSans-3a" transform="translate(535.400391 0.015625)"/>
      <use xlink:href="#DejaVuSans-20" transform="translate(569.091797 0.015625)"/>
      <use xlink:href="#DejaVuSans-Oblique-79" transform="translate(600.878906 0.015625)"/>
      <use xlink:href="#DejaVuSans-3d" transform="translate(679.541016 0.015625)"/>
      <use xlink:href="#DejaVuSans-Oblique-41" transform="translate(782.8125 0.015625)"/>
      <use xlink:href="#DejaVuSans-22c5" transform="translate(870.703125 0.015625)"/>
      <use xlink:href="#DejaVuSans-Oblique-78" transform="translate(921.972656 0.015625)"/>
      <use xlink:href="#DejaVuSans-20" transform="translate(981.152344 0.015625)"/>
     </g>
     <!--  $A = 200.000000 \pm 0.350070$ -->
     <g transform="translate(121.75 78.93625) scale(0.1 -0.1)">
      <defs>
       <path id="DejaVuSans-2e" d="M 684 794 
L 1344 794 
L 1344 0 
L 684 0 
L 684 794 
z
" transform="scale(0.015625)"/>
       <path id="DejaVuSans-b1" d="M 2944 4013 
L 2944 2803 
L 4684 2803 
L 4684 2272 
L 2944 2272 
L 2944 1063 
L 2419 1063 
L 2419 2272 
L 678 2272 
L 678 2803 
L 2419 2803 
L 2419 4013 
L 2944 4013 
z
M 678 531 
L 4684 531 
L 4684 0 
L 678 0 
L 678 531 
z
" transform="scale(0.015625)"/>
      </defs>
      <use xlink:href="#DejaVuSans-20" transform="translate(0 0.78125)"/>
      <use xlink:href="#DejaVuSans-Oblique-41" transform="translate(31.787109 0.78125)"/>
      <use xlink:href="#DejaVuSans-3d" transform="translate(119.677734 0.78125)"/>
      <use xlink:href="#DejaVuSans-32" transform="translate(222.949219 0.78125)"/>
      <use xlink:href="#DejaVuSans-30" transform="translate(286.572266 0.78125)"/>
      <use xlink:href="#DejaVuSans-30" transform="translate(350.195312 0.78125)"/>
      <use xlink:href="#DejaVuSans-2e" transform="translate(413.818359 0.78125)"/>
      <use xlink:href="#DejaVuSans-30" transform="translate(445.605469 0.78125)"/>
      <use xlink:href="#DejaVuSans-30" transform="translate(509.228516 0.78125)"/>
      <use xlink:href="#DejaVuSans-30" transform="translate(572.851562 0.78125)"/>
      <use xlink:href="#DejaVuSans-30" transform="translate(636.474609 0.78125)"/>
      <use xlink:href="#DejaVuSans-30" transform="translate(700.097656 0.78125)"/>
      <use xlink:href="#DejaVuSans-30" transform="translate(763.720703 0.78125)"/>
      <use xlink:href="#DejaVuSans-b1" transform="translate(846.826172 0.78125)"/>
      <use xlink:href="#DejaVuSans-30" transform="translate(950.097656 0.78125)"/>
      <use xlink:href="#DejaVuSans-2e" transform="translate(1013.720703 0.78125)"/>
      <use xlink:href="#DejaVuSans-33" transform="translate(1045.507812 0.78125)"/>
      <use xlink:href="#DejaVuSans-35" transform="translate(1109.130859 0.78125)"/>
      <use xlink:href="#DejaVuSans-30" transform="translate(1172.753906 0.78125)"/>
      <use xlink:href="#DejaVuSans-30" transform="translate(1236.376953 0.78125)"/>
      <use xlink:href="#DejaVuSans-37" transform="translate(1300 0.78125)"/>
      <use xlink:href="#DejaVuSans-30" transform="translate(1363.623047 0.78125)"/>
     </g>
    </g>
    <g id="line2d_31">
     <path d="M 93.75 96.764062 
L 103.75 96.764062 
L 113.75 96.764062 
" style="fill: none; stroke: #90ee90; stroke-width: 2; stroke-linecap: square"/>
    </g>
    <g id="text_22">
     <!-- Fit Reihe 2: $y = A \cdot x$  -->
     <g transform="translate(121.75 93.615937) scale(0.1 -0.1)">
      <use xlink:href="#DejaVuSans-46" transform="translate(0 0.015625)"/>
      <use xlink:href="#DejaVuSans-69" transform="translate(57.519531 0.015625)"/>
      <use xlink:href="#DejaVuSans-74" transform="translate(85.302734 0.015625)"/>
      <use xlink:href="#DejaVuSans-20" transform="translate(124.511719 0.015625)"/>
      <use xlink:href="#DejaVuSans-52" transform="translate(156.298828 0.015625)"/>
      <use xlink:href="#DejaVuSans-65" transform="translate(225.78125 0.015625)"/>
      <use xlink:href="#DejaVuSans-69" transform="translate(287.304688 0.015625)"/>
      <use xlink:href="#DejaVuSans-68" transform="translate(315.087891 0.015625)"/>
      <use xlink:href="#DejaVuSans-65" transform="translate(378.466797 0.015625)"/>
      <use xlink:href="#DejaVuSans-20" transform="translate(439.990234 0.015625)"/>
      <use xlink:href="#DejaVuSans-32" transform="translate(471.777344 0.015625)"/>
      <use xlink:href="#DejaVuSans-3a" transform="translate(535.400391 0.015625)"/>
      <use xlink:href="#DejaVuSans-20" transform="translate(569.091797 0.015625)"/>
      <use xlink:href="#DejaVuSans-Oblique-79" transform="translate(600.878906 0.015625)"/>
      <use xlink:href="#DejaVuSans-3d" transform="translate(679.541016 0.015625)"/>
      <use xlink:href="#DejaVuSans-Oblique-41" transform="translate(782.8125 0.015625)"/>
      <use xlink:href="#DejaVuSans-22c5" transform="translate(870.703125 0.015625)"/>
      <use xlink:href="#DejaVuSans-Oblique-78" transform="translate(921.972656 0.015625)"/>
      <use xlink:href="#DejaVuSans-20" transform="translate(981.152344 0.015625)"/>
     </g>
     <!--  $A = 235.294118 \pm 0.350070$ -->
     <g transform="translate(121.75 104.834062) scale(0.1 -0.1)">
      <defs>
       <path id="DejaVuSans-39" d="M 703 97 
L 703 672 
Q 941 559 1184 500 
Q 1428 441 1663 441 
Q 2288 441 2617 861 
Q 2947 1281 2994 2138 
Q 2813 1869 2534 1725 
Q 2256 1581 1919 1581 
Q 1219 1581 811 2004 
Q 403 2428 403 3163 
Q 403 3881 828 4315 
Q 1253 4750 1959 4750 
Q 2769 4750 3195 4129 
Q 3622 3509 3622 2328 
Q 3622 1225 3098 567 
Q 2575 -91 1691 -91 
Q 1453 -91 1209 -44 
Q 966 3 703 97 
z
M 1959 2075 
Q 2384 2075 2632 2365 
Q 2881 2656 2881 3163 
Q 2881 3666 2632 3958 
Q 2384 4250 1959 4250 
Q 1534 4250 1286 3958 
Q 1038 3666 1038 3163 
Q 1038 2656 1286 2365 
Q 1534 2075 1959 2075 
z
" transform="scale(0.015625)"/>
      </defs>
      <use xlink:href="#DejaVuSans-20" transform="translate(0 0.78125)"/>
      <use xlink:href="#DejaVuSans-Oblique-41" transform="translate(31.787109 0.78125)"/>
      <use xlink:href="#DejaVuSans-3d" transform="translate(119.677734 0.78125)"/>
      <use xlink:href="#DejaVuSans-32" transform="translate(222.949219 0.78125)"/>
      <use xlink:href="#DejaVuSans-33" transform="translate(286.572266 0.78125)"/>
      <use xlink:href="#DejaVuSans-35" transform="translate(350.195312 0.78125)"/>
      <use xlink:href="#DejaVuSans-2e" transform="translate(413.818359 0.78125)"/>
      <use xlink:href="#DejaVuSans-32" transform="translate(440.105469 0.78125)"/>
      <use xlink:href="#DejaVuSans-39" transform="translate(501.978516 0.78125)"/>
      <use xlink:href="#DejaVuSans-34" transform="translate(565.601562 0.78125)"/>
      <use xlink:href="#DejaVuSans-31" transform="translate(629.224609 0.78125)"/>
      <use xlink:href="#DejaVuSans-31" transform="translate(692.847656 0.78125)"/>
      <use xlink:href="#DejaVuSans-38" transform="translate(756.470703 0.78125)"/>
      <use xlink:href="#DejaVuSans-b1" transform="translate(839.576172 0.78125)"/>
      <use xlink:href="#DejaVuSans-30" transform="translate(942.847656 0.78125)"/>
      <use xlink:href="#DejaVuSans-2e" transform="translate(1006.470703 0.78125)"/>
      <use xlink:href="#DejaVuSans-33" transform="translate(1038.257812 0.78125)"/>
      <use xlink:href="#DejaVuSans-35" transform="translate(1101.880859 0.78125)"/>
      <use xlink:href="#DejaVuSans-30" transform="translate(1165.503906 0.78125)"/>
      <use xlink:href="#DejaVuSans-30" transform="translate(1229.126953 0.78125)"/>
      <use xlink:href="#DejaVuSans-37" transform="translate(1292.75 0.78125)"/>
      <use xlink:href="#DejaVuSans-30" transform="translate(1356.373047 0.78125)"/>
     </g>
    </g>
    <g id="line2d_32">
     <path d="M 93.75 122.661875 
L 103.75 122.661875 
L 113.75 122.661875 
" style="fill: none; stroke: #dda0dd; stroke-width: 2; stroke-linecap: square"/>
    </g>
    <g id="text_23">
     <!-- Fit Reihe 3: $y = A \cdot x$  -->
     <g transform="translate(121.75 119.51375) scale(0.1 -0.1)">
      <use xlink:href="#DejaVuSans-46" transform="translate(0 0.015625)"/>
      <use xlink:href="#DejaVuSans-69" transform="translate(57.519531 0.015625)"/>
      <use xlink:href="#DejaVuSans-74" transform="translate(85.302734 0.015625)"/>
      <use xlink:href="#DejaVuSans-20" transform="translate(124.511719 0.015625)"/>
      <use xlink:href="#DejaVuSans-52" transform="translate(156.298828 0.015625)"/>
      <use xlink:href="#DejaVuSans-65" transform="translate(225.78125 0.015625)"/>
      <use xlink:href="#DejaVuSans-69" transform="translate(287.304688 0.015625)"/>
      <use xlink:href="#DejaVuSans-68" transform="translate(315.087891 0.015625)"/>
      <use xlink:href="#DejaVuSans-65" transform="translate(378.466797 0.015625)"/>
      <use xlink:href="#DejaVuSans-20" transform="translate(439.990234 0.015625)"/>
      <use xlink:href="#DejaVuSans-33" transform="translate(471.777344 0.015625)"/>
      <use xlink:href="#DejaVuSans-3a" transform="translate(535.400391 0.015625)"/>
      <use xlink:href="#DejaVuSans-20" transform="translate(569.091797 0.015625)"/>
      <use xlink:href="#DejaVuSans-Oblique-79" transform="translate(600.878906 0.015625)"/>
      <use xlink:href="#DejaVuSans-3d" transform="translate(679.541016 0.015625)"/>
      <use xlink:href="#DejaVuSans-Oblique-41" transform="translate(782.8125 0.015625)"/>
      <use xlink:href="#DejaVuSans-22c5" transform="translate(870.703125 0.015625)"/>
      <use xlink:href="#DejaVuSans-Oblique-78" transform="translate(921.972656 0.015625)"/>
      <use xlink:href="#DejaVuSans-20" transform="translate(981.152344 0.015625)"/>
     </g>
     <!--  $A = 182.352941 \pm 0.350070$ -->
     <g transform="translate(121.75 130.731875) scale(0.1 -0.1)">
      <use xlink:href="#DejaVuSans-20" transform="translate(0 0.78125)"/>
      <use xlink:href="#DejaVuSans-Oblique-41" transform="translate(31.787109 0.78125)"/>
      <use xlink:href="#DejaVuSans-3d" transform="translate(119.677734 0.78125)"/>
      <use xlink:href="#DejaVuSans-31" transform="translate(222.949219 0.78125)"/>
      <use xlink:href="#DejaVuSans-38" transform="translate(286.572266 0.78125)"/>
      <use xlink:href="#DejaVuSans-32" transform="translate(350.195312 0.78125)"/>
      <use xlink:href="#DejaVuSans-2e" transform="translate(413.818359 0.78125)"/>
      <use xlink:href="#DejaVuSans-33" transform="translate(445.605469 0.78125)"/>
      <use xlink:href="#DejaVuSans-35" transform="translate(509.228516 0.78125)"/>
      <use xlink:href="#DejaVuSans-32" transform="translate(572.851562 0.78125)"/>
      <use xlink:href="#DejaVuSans-39" transform="translate(634.724609 0.78125)"/>
      <use xlink:href="#DejaVuSans-34" transform="translate(698.347656 0.78125)"/>
      <use xlink:href="#DejaVuSans-31" transform="translate(761.970703 0.78125)"/>
      <use xlink:href="#DejaVuSans-b1" transform="translate(845.076172 0.78125)"/>
      <use xlink:href="#DejaVuSans-30" transform="translate(948.347656 0.78125)"/>
      <use xlink:href="#DejaVuSans-2e" transform="translate(1011.970703 0.78125)"/>
      <use xlink:href="#DejaVuSans-33" transform="translate(1043.757812 0.78125)"/>
      <use xlink:href="#DejaVuSans-35" transform="translate(1107.380859 0.78125)"/>
      <use xlink:href="#DejaVuSans-30" transform="translate(1171.003906 0.78125)"/>
      <use xlink:href="#DejaVuSans-30" transform="translate(1234.626953 0.78125)"/>
      <use xlink:href="#DejaVuSans-37" transform="translate(1298.25 0.78125)"/>
      <use xlink:href="#DejaVuSans-30" transform="translate(1361.873047 0.78125)"/>
     </g>
    </g>
   </g>
   <g id="legend_2">
    <g id="patch_8">
     <path d="M 244.845 312.230125 
L 434.87 312.230125 
Q 436.87 312.230125 436.87 310.230125 
L 436.87 267.19575 
Q 436.87 265.19575 434.87 265.19575 
L 244.845 265.19575 
Q 242.845 265.19575 242.845 267.19575 
L 242.845 310.230125 
Q 242.845 312.230125 244.845 312.230125 
z
" style="fill: #ffffff; opacity: 0.8; stroke: #cccccc; stroke-linejoin: miter"/>
    </g>
    <g id="line2d_33">
     <g>
      <use xlink:href="#m087cb6929a" x="256.845" y="273.294187" style="fill: #add8e6; stroke: #add8e6"/>
     </g>
    </g>
    <g id="text_24">
     <!-- Reihe 1: 60cm, 1000g, 3. Kerbe -->
     <g transform="translate(274.845 276.794187) scale(0.1 -0.1)">
      <defs>
       <path id="DejaVuSans-63" d="M 3122 3366 
L 3122 2828 
Q 2878 2963 2633 3030 
Q 2388 3097 2138 3097 
Q 1578 3097 1268 2742 
Q 959 2388 959 1747 
Q 959 1106 1268 751 
Q 1578 397 2138 397 
Q 2388 397 2633 464 
Q 2878 531 3122 666 
L 3122 134 
Q 2881 22 2623 -34 
Q 2366 -91 2075 -91 
Q 1284 -91 818 406 
Q 353 903 353 1747 
Q 353 2603 823 3093 
Q 1294 3584 2113 3584 
Q 2378 3584 2631 3529 
Q 2884 3475 3122 3366 
z
" transform="scale(0.015625)"/>
       <path id="DejaVuSans-6d" d="M 3328 2828 
Q 3544 3216 3844 3400 
Q 4144 3584 4550 3584 
Q 5097 3584 5394 3201 
Q 5691 2819 5691 2113 
L 5691 0 
L 5113 0 
L 5113 2094 
Q 5113 2597 4934 2840 
Q 4756 3084 4391 3084 
Q 3944 3084 3684 2787 
Q 3425 2491 3425 1978 
L 3425 0 
L 2847 0 
L 2847 2094 
Q 2847 2600 2669 2842 
Q 2491 3084 2119 3084 
Q 1678 3084 1418 2786 
Q 1159 2488 1159 1978 
L 1159 0 
L 581 0 
L 581 3500 
L 1159 3500 
L 1159 2956 
Q 1356 3278 1631 3431 
Q 1906 3584 2284 3584 
Q 2666 3584 2933 3390 
Q 3200 3197 3328 2828 
z
" transform="scale(0.015625)"/>
       <path id="DejaVuSans-2c" d="M 750 794 
L 1409 794 
L 1409 256 
L 897 -744 
L 494 -744 
L 750 256 
L 750 794 
z
" transform="scale(0.015625)"/>
       <path id="DejaVuSans-4b" d="M 628 4666 
L 1259 4666 
L 1259 2694 
L 3353 4666 
L 4166 4666 
L 1850 2491 
L 4331 0 
L 3500 0 
L 1259 2247 
L 1259 0 
L 628 0 
L 628 4666 
z
" transform="scale(0.015625)"/>
      </defs>
      <use xlink:href="#DejaVuSans-52"/>
      <use xlink:href="#DejaVuSans-65" transform="translate(64.982422 0)"/>
      <use xlink:href="#DejaVuSans-69" transform="translate(126.505859 0)"/>
      <use xlink:href="#DejaVuSans-68" transform="translate(154.289062 0)"/>
      <use xlink:href="#DejaVuSans-65" transform="translate(217.667969 0)"/>
      <use xlink:href="#DejaVuSans-20" transform="translate(279.191406 0)"/>
      <use xlink:href="#DejaVuSans-31" transform="translate(310.978516 0)"/>
      <use xlink:href="#DejaVuSans-3a" transform="translate(374.601562 0)"/>
      <use xlink:href="#DejaVuSans-20" transform="translate(408.292969 0)"/>
      <use xlink:href="#DejaVuSans-36" transform="translate(440.080078 0)"/>
      <use xlink:href="#DejaVuSans-30" transform="translate(503.703125 0)"/>
      <use xlink:href="#DejaVuSans-63" transform="translate(567.326172 0)"/>
      <use xlink:href="#DejaVuSans-6d" transform="translate(622.306641 0)"/>
      <use xlink:href="#DejaVuSans-2c" transform="translate(719.71875 0)"/>
      <use xlink:href="#DejaVuSans-20" transform="translate(751.505859 0)"/>
      <use xlink:href="#DejaVuSans-31" transform="translate(783.292969 0)"/>
      <use xlink:href="#DejaVuSans-30" transform="translate(846.916016 0)"/>
      <use xlink:href="#DejaVuSans-30" transform="translate(910.539062 0)"/>
      <use xlink:href="#DejaVuSans-30" transform="translate(974.162109 0)"/>
      <use xlink:href="#DejaVuSans-67" transform="translate(1037.785156 0)"/>
      <use xlink:href="#DejaVuSans-2c" transform="translate(1101.261719 0)"/>
      <use xlink:href="#DejaVuSans-20" transform="translate(1133.048828 0)"/>
      <use xlink:href="#DejaVuSans-33" transform="translate(1164.835938 0)"/>
      <use xlink:href="#DejaVuSans-2e" transform="translate(1228.458984 0)"/>
      <use xlink:href="#DejaVuSans-20" transform="translate(1260.246094 0)"/>
      <use xlink:href="#DejaVuSans-4b" transform="translate(1292.033203 0)"/>
      <use xlink:href="#DejaVuSans-65" transform="translate(1352.609375 0)"/>
      <use xlink:href="#DejaVuSans-72" transform="translate(1414.132812 0)"/>
      <use xlink:href="#DejaVuSans-62" transform="translate(1455.246094 0)"/>
      <use xlink:href="#DejaVuSans-65" transform="translate(1518.722656 0)"/>
     </g>
    </g>
    <g id="line2d_34">
     <g>
      <use xlink:href="#m69c140e09e" x="256.845" y="287.972312" style="fill: #32cd32; stroke: #32cd32"/>
     </g>
    </g>
    <g id="text_25">
     <!-- Reihe 2: 60cm, 500g, 3. Kerbe -->
     <g transform="translate(274.845 291.472312) scale(0.1 -0.1)">
      <use xlink:href="#DejaVuSans-52"/>
      <use xlink:href="#DejaVuSans-65" transform="translate(64.982422 0)"/>
      <use xlink:href="#DejaVuSans-69" transform="translate(126.505859 0)"/>
      <use xlink:href="#DejaVuSans-68" transform="translate(154.289062 0)"/>
      <use xlink:href="#DejaVuSans-65" transform="translate(217.667969 0)"/>
      <use xlink:href="#DejaVuSans-20" transform="translate(279.191406 0)"/>
      <use xlink:href="#DejaVuSans-32" transform="translate(310.978516 0)"/>
      <use xlink:href="#DejaVuSans-3a" transform="translate(374.601562 0)"/>
      <use xlink:href="#DejaVuSans-20" transform="translate(408.292969 0)"/>
      <use xlink:href="#DejaVuSans-36" transform="translate(440.080078 0)"/>
      <use xlink:href="#DejaVuSans-30" transform="translate(503.703125 0)"/>
      <use xlink:href="#DejaVuSans-63" transform="translate(567.326172 0)"/>
      <use xlink:href="#DejaVuSans-6d" transform="translate(622.306641 0)"/>
      <use xlink:href="#DejaVuSans-2c" transform="translate(719.71875 0)"/>
      <use xlink:href="#DejaVuSans-20" transform="translate(751.505859 0)"/>
      <use xlink:href="#DejaVuSans-35" transform="translate(783.292969 0)"/>
      <use xlink:href="#DejaVuSans-30" transform="translate(846.916016 0)"/>
      <use xlink:href="#DejaVuSans-30" transform="translate(910.539062 0)"/>
      <use xlink:href="#DejaVuSans-67" transform="translate(974.162109 0)"/>
      <use xlink:href="#DejaVuSans-2c" transform="translate(1037.638672 0)"/>
      <use xlink:href="#DejaVuSans-20" transform="translate(1069.425781 0)"/>
      <use xlink:href="#DejaVuSans-33" transform="translate(1101.212891 0)"/>
      <use xlink:href="#DejaVuSans-2e" transform="translate(1164.835938 0)"/>
      <use xlink:href="#DejaVuSans-20" transform="translate(1196.623047 0)"/>
      <use xlink:href="#DejaVuSans-4b" transform="translate(1228.410156 0)"/>
      <use xlink:href="#DejaVuSans-65" transform="translate(1288.986328 0)"/>
      <use xlink:href="#DejaVuSans-72" transform="translate(1350.509766 0)"/>
      <use xlink:href="#DejaVuSans-62" transform="translate(1391.623047 0)"/>
      <use xlink:href="#DejaVuSans-65" transform="translate(1455.099609 0)"/>
     </g>
    </g>
    <g id="line2d_35">
     <g>
      <use xlink:href="#m201f01a5d5" x="256.845" y="302.650437" style="fill: #ff7f50; stroke: #ff7f50"/>
     </g>
    </g>
    <g id="text_26">
     <!-- Reihe 3: 60cm, 500g, 1. Kerbe -->
     <g transform="translate(274.845 306.150437) scale(0.1 -0.1)">
      <use xlink:href="#DejaVuSans-52"/>
      <use xlink:href="#DejaVuSans-65" transform="translate(64.982422 0)"/>
      <use xlink:href="#DejaVuSans-69" transform="translate(126.505859 0)"/>
      <use xlink:href="#DejaVuSans-68" transform="translate(154.289062 0)"/>
      <use xlink:href="#DejaVuSans-65" transform="translate(217.667969 0)"/>
      <use xlink:href="#DejaVuSans-20" transform="translate(279.191406 0)"/>
      <use xlink:href="#DejaVuSans-33" transform="translate(310.978516 0)"/>
      <use xlink:href="#DejaVuSans-3a" transform="translate(374.601562 0)"/>
      <use xlink:href="#DejaVuSans-20" transform="translate(408.292969 0)"/>
      <use xlink:href="#DejaVuSans-36" transform="translate(440.080078 0)"/>
      <use xlink:href="#DejaVuSans-30" transform="translate(503.703125 0)"/>
      <use xlink:href="#DejaVuSans-63" transform="translate(567.326172 0)"/>
      <use xlink:href="#DejaVuSans-6d" transform="translate(622.306641 0)"/>
      <use xlink:href="#DejaVuSans-2c" transform="translate(719.71875 0)"/>
      <use xlink:href="#DejaVuSans-20" transform="translate(751.505859 0)"/>
      <use xlink:href="#DejaVuSans-35" transform="translate(783.292969 0)"/>
      <use xlink:href="#DejaVuSans-30" transform="translate(846.916016 0)"/>
      <use xlink:href="#DejaVuSans-30" transform="translate(910.539062 0)"/>
      <use xlink:href="#DejaVuSans-67" transform="translate(974.162109 0)"/>
      <use xlink:href="#DejaVuSans-2c" transform="translate(1037.638672 0)"/>
      <use xlink:href="#DejaVuSans-20" transform="translate(1069.425781 0)"/>
      <use xlink:href="#DejaVuSans-31" transform="translate(1101.212891 0)"/>
      <use xlink:href="#DejaVuSans-2e" transform="translate(1164.835938 0)"/>
      <use xlink:href="#DejaVuSans-20" transform="translate(1196.623047 0)"/>
      <use xlink:href="#DejaVuSans-4b" transform="translate(1228.410156 0)"/>
      <use xlink:href="#DejaVuSans-65" transform="translate(1288.986328 0)"/>
      <use xlink:href="#DejaVuSans-72" transform="translate(1350.509766 0)"/>
      <use xlink:href="#DejaVuSans-62" transform="translate(1391.623047 0)"/>
      <use xlink:href="#DejaVuSans-65" transform="translate(1455.099609 0)"/>
     </g>
    </g>
   </g>
  </g>
 </g>
 <defs>
  <clipPath id="pbf39b647ce">
   <rect x="84.75" y="51.118125" width="357.12" height="266.112"/>
  </clipPath>
 </defs>
</svg>
