<?xml version="1.0" encoding="UTF-8" standalone="no"?>
<!-- Created with Inkscape (http://www.inkscape.org/) -->

<svg
   width="52mm"
   height="38mm"
   viewBox="0 0 52 38"
   version="1.1"
   id="svg1"
   inkscape:version="1.4 (86a8ad7, 2024-10-11)"
   sodipodi:docname="ThomsonSchaltplan.svg"
   xmlns:inkscape="http://www.inkscape.org/namespaces/inkscape"
   xmlns:sodipodi="http://sodipodi.sourceforge.net/DTD/sodipodi-0.dtd"
   xmlns="http://www.w3.org/2000/svg"
   xmlns:svg="http://www.w3.org/2000/svg">
  <sodipodi:namedview
     id="namedview1"
     pagecolor="#ffffff"
     bordercolor="#000000"
     borderopacity="0.25"
     inkscape:showpageshadow="2"
     inkscape:pageopacity="0.0"
     inkscape:pagecheckerboard="0"
     inkscape:deskcolor="#d1d1d1"
     inkscape:document-units="mm"
     showgrid="true"
     inkscape:zoom="4.4195761"
     inkscape:cx="112.45422"
     inkscape:cy="75.912258"
     inkscape:window-width="1290"
     inkscape:window-height="1041"
     inkscape:window-x="614"
     inkscape:window-y="0"
     inkscape:window-maximized="0"
     inkscape:current-layer="layer1">
    <inkscape:grid
       id="grid1"
       units="mm"
       originx="0"
       originy="0"
       spacingx="0.99999998"
       spacingy="1"
       empcolor="#0099e5"
       empopacity="0.30196078"
       color="#0099e5"
       opacity="0.14901961"
       empspacing="5"
       enabled="true"
       visible="true" />
  </sodipodi:namedview>
  <defs
     id="defs1">
    <rect
       x="151.18111"
       y="181.41731"
       width="37.795277"
       height="30.236219"
       id="rect274" />
    <rect
       x="120.94488"
       y="179.65524"
       width="26.456694"
       height="24.439243"
       id="rect273" />
    <inkscape:path-effect
       effect="fillet_chamfer"
       id="path-effect271"
       is_visible="true"
       lpeversion="1"
       nodesatellites_param="F,0,0,1,0,0,0,1 @ F,0,0,1,0,0,0,1 @ F,0,0,1,0,0,0,1 @ F,0,0,1,0,0,0,1"
       radius="0"
       unit="px"
       method="auto"
       mode="F"
       chamfer_steps="1"
       flexible="false"
       use_knot_distance="true"
       apply_no_radius="true"
       apply_with_radius="true"
       only_selected="false"
       hide_knots="false" />
    <inkscape:perspective
       sodipodi:type="inkscape:persp3d"
       inkscape:vp_x="0 : -110.50003 : 1"
       inkscape:vp_y="0 : 1000 : 0"
       inkscape:vp_z="210.00013 : -110.50003 : 1"
       inkscape:persp3d-origin="105.00004 : -160.00001 : 1"
       id="perspective266" />
    <clipPath
       clipPathUnits="userSpaceOnUse"
       id="clipPath47">
      <path
         id="path48"
         style="fill:#ff0000;fill-opacity:1;fill-rule:nonzero;stroke:none;stroke-width:0.264583"
         d="m 45.929497,61.999834 v 5.071006 h 5.070491 v -4.234883 c -0.03207,0.0011 -0.07074,-0.0114 -0.112138,-0.04289 -0.02471,-0.01881 -0.04922,-0.03749 -0.0739,-0.05633 -0.04447,-0.03227 -0.09041,-0.06291 -0.136427,-0.09302 -0.02045,0.06132 -0.04044,0.12291 -0.0584,0.185002 -0.008,0.0259 -0.01363,0.05268 -0.01963,0.07906 -0.04427,0.194067 -0.240364,0.149059 -0.195855,-0.04496 0.0069,-0.03011 0.01373,-0.06034 0.02273,-0.08992 0.0204,-0.07034 0.04284,-0.139859 0.06615,-0.209288 0.0037,-0.01101 0.0072,-0.02204 0.01085,-0.03307 -0.0569,-0.03639 -0.114025,-0.07236 -0.174667,-0.10232 -0.144995,-0.07165 -0.112895,-0.20384 0,-0.203605 0.02606,5.3e-5 0.05645,0.0072 0.08992,0.02376 0.0108,0.0053 0.0209,0.01193 0.03153,0.01757 -0.04733,-0.08717 -0.01217,-0.15644 0.04702,-0.165364 -0.04012,-0.03207 -0.05875,-0.06795 -0.06149,-0.100254 z m 4.991426,0 c 0.0024,0.02432 0.0043,0.04854 0.0062,0.07286 0.02421,-0.003 0.04863,-0.0064 0.07286,-0.0093 v -0.06356 z m -0.24133,5.29e-4 c 0.01709,0.02257 0.03124,0.04727 0.04496,0.07235 -0.0016,-0.01929 -0.0028,-0.03863 -0.0047,-0.05788 -5.29e-4,-0.005 -0.0013,-0.0097 -0.0016,-0.01447 z m 0.320395,0.288353 c -0.01992,0.0029 -0.03998,0.0047 -0.05994,0.0072 0.0028,0.06418 0.0043,0.128474 0.0057,0.192752 7.94e-4,7.94e-4 0.0016,0.0013 0.0026,0.0021 0.02318,0.0182 0.04002,0.0371 0.05168,0.05581 z" />
    </clipPath>
    <clipPath
       clipPathUnits="userSpaceOnUse"
       id="clipPath120">
      <path
         id="path121"
         style="fill:#ff0000;fill-opacity:1;fill-rule:nonzero;stroke:none;stroke-width:0.264583"
         d="m 50.000048,60.900159 v 16.187124 c 0.08968,0.0024 0.179245,0.0077 0.268719,0.01394 0.218628,0.01598 0.436716,0.04796 0.648539,0.105421 0.01823,0.0049 0.0362,0.0105 0.05426,0.01601 0.04636,0.0037 0.09277,0.0072 0.13901,0.01188 0.06834,0.0089 0.137215,0.01529 0.205155,0.02687 0.06139,0.01045 0.122031,0.02405 0.182417,0.03928 0.173511,0.04375 0.336799,0.09583 0.470257,0.222723 0.02666,0.02535 0.041,0.06091 0.0615,0.09147 0.0013,0.003 0.0029,0.0058 0.0041,0.0088 0.0048,0.0019 0.0097,0.0033 0.01447,0.0052 0.01206,0.0048 0.03506,0.0051 0.04134,0.01344 0.0032,-0.01257 0.0066,-0.02508 0.01704,-0.02429 0.04113,0.0031 0.04055,0.0021 0.0708,0.0031 -0.08955,-0.122709 -0.03478,-0.237892 0.0646,-0.244946 0.05022,-0.0036 0.111934,0.02058 0.171566,0.08527 0.0698,0.07571 0.08629,0.186603 0.104902,0.283702 0.0019,0.01053 0.0035,0.02098 0.0052,0.03152 7.93e-4,-0.0021 0.0016,-0.0046 0.0021,-0.0057 0.0042,-0.09613 0.04315,-0.156146 0.09095,-0.180866 -0.0035,-0.120666 0.05636,-0.186587 0.125055,-0.185002 0.0673,0.0016 0.139753,0.06467 0.158131,0.195336 0.01791,0.127156 0.02156,0.255786 0.02687,0.383956 0.0086,0.216357 0.01222,0.43258 0.0072,0.649054 -0.0021,0.06961 -0.0048,0.139224 -0.0083,0.208775 -7.94e-4,0.01513 -0.0019,0.03036 -0.0026,0.04547 -5.29e-4,0.01177 2.65e-4,0.0236 -0.0021,0.03514 -0.0047,0.02225 -0.01273,0.0438 -0.01913,0.06563 l -0.07907,0.07493 c -0.204496,0.193453 0.07267,-0.465177 -0.118337,-0.258384 -0.02053,0.02223 -0.04097,0.04442 -0.0615,0.06666 -0.0019,0.01177 0.0056,0.03134 -0.0057,0.03514 -0.01077,0.0036 0.0013,-0.02273 0.0021,-0.03411 7.93e-4,-0.01463 0.0013,-0.02931 0.0021,-0.04392 0.0034,-0.06722 0.0062,-0.134261 0.0083,-0.201539 0.0044,-0.187341 1.75e-4,-0.374917 -0.0062,-0.562239 -0.02794,0.02995 -0.06122,0.05414 -0.09199,0.08113 -0.0027,0.06656 -0.01228,0.132536 -0.04237,0.192755 -0.0067,0.01349 -0.01413,0.02709 -0.02429,0.03824 -0.01738,0.01905 -0.03862,0.03401 -0.05788,0.05116 -0.03809,0.02445 -0.07969,0.03347 -0.123508,0.03927 -0.135718,0.01804 -0.207306,-0.07533 -0.21549,-0.16278 -0.01672,-0.02148 -0.03478,-0.04198 -0.04754,-0.06615 -0.01204,0.0093 -0.02466,0.01656 -0.03772,0.01241 -0.0706,-0.02249 -0.127582,-0.07622 -0.191201,-0.114204 -0.01492,-0.05388 -0.0088,-0.107993 -0.0041,-0.162264 -0.06034,-0.0024 -0.105434,-0.02098 -0.134358,-0.04806 -0.162602,-0.0033 -0.325048,-0.01159 -0.487309,-0.02066 -0.03837,-0.0024 -0.101574,-0.004 -0.143143,-0.01241 -0.015,-0.003 -0.04496,0.0024 -0.04444,-0.01291 0.0026,-0.07558 0.01418,-0.151656 0.03617,-0.224274 -0.117938,-0.03256 -0.23591,-0.06641 -0.352433,-0.10387 -0.04048,-0.01344 -0.08219,-0.02701 -0.124023,-0.04134 -0.0045,0.01839 -0.03869,0.01736 -0.0584,0.02326 -0.02693,0.008 -0.05511,0.01103 -0.08268,0.01654 -0.138237,0.02024 -0.277569,0.03032 -0.417031,0.03824 V 90.099904 H 59.09973 V 60.900159 Z m 0.815454,0.956014 c 0.04731,0.0016 0.09596,0.04717 0.104905,0.140044 0.0026,0.02622 0.0047,0.05233 0.0067,0.07855 0.04162,-0.0052 0.08291,-0.0127 0.124539,-0.0181 0.03993,-0.0049 0.08003,-0.009 0.119891,-0.01447 0.0052,-7.93e-4 0.01233,-0.0053 0.01757,-0.0062 v -5.29e-4 c 7.94e-4,-1.3e-4 0.0013,-3.2e-5 0.0021,0 0.0019,9.5e-5 0.0032,7.94e-4 0.0041,0.0026 0.09381,0.183568 0.127103,0.15912 0.04909,0.196371 -0.06091,0.02035 -0.124338,0.03187 -0.187068,0.04496 -0.03889,0.0067 -0.07817,0.01056 -0.117306,0.0155 0.004,0.09189 0.0075,0.183935 0.0078,0.275952 2.65e-4,0.005 5.29e-4,0.01005 5.29e-4,0.01497 0.02053,0.01564 0.04096,0.03142 0.0615,0.04702 0.158416,0.120528 0.03646,0.280725 -0.121957,0.160197 -0.02471,-0.01881 -0.04922,-0.03749 -0.0739,-0.05633 -0.09134,-0.06628 -0.187878,-0.125362 -0.281638,-0.1881 -0.0664,-0.04265 -0.132755,-0.0854 -0.203605,-0.120407 -0.144994,-0.07165 -0.112895,-0.20384 0,-0.203605 0.02606,5.3e-5 0.05645,0.0072 0.08992,0.02376 0.0773,0.03816 0.149752,0.08426 0.22221,0.130741 0.03452,0.02294 0.06858,0.04662 0.103352,0.06925 -0.0013,-0.04406 -0.0024,-0.08825 -0.0041,-0.132292 -0.0058,2.65e-4 -0.01172,7.94e-4 -0.01757,0.0011 -0.0033,0.0011 -0.0066,0.0021 -0.0098,0.0031 -7.94e-4,2.62e-4 -0.0013,7.94e-4 -0.0021,0.0011 -0.0048,0.0019 -0.0098,0.0035 -0.01497,0.0052 -1.03e-4,3.2e-5 -7.94e-4,-4.5e-5 -0.0011,0 -7.94e-4,2.64e-4 -0.0013,7.94e-4 -0.0021,0.0011 -0.0036,0.0016 -0.0074,0.0024 -0.01085,0.0031 -2.62e-4,5.8e-5 -7.94e-4,5.29e-4 -0.0011,5.29e-4 h -5.29e-4 c -0.0052,0.0016 -0.0097,0.003 -0.0098,0.0026 -2.65e-4,-0.0011 -5.3e-4,-0.0021 -0.0011,-0.0031 -0.0082,-0.0019 -0.01564,-0.0062 -0.02223,-0.01344 h -5.29e-4 c -0.180208,-0.0158 -0.173985,-0.203858 0.0186,-0.199988 0.0084,1.86e-4 0.01688,5.6e-5 0.02532,0 0.0122,-0.0038 0.02476,-0.0065 0.03721,-0.0098 -0.0024,-0.031 -0.0048,-0.06207 -0.0078,-0.09302 -0.01013,-0.105261 0.04199,-0.159893 0.0956,-0.15813 z m 0.362254,0.188619 c -0.0034,0.0013 -0.0048,0.0024 -0.0078,0.0036 0.0021,-5.29e-4 0.0029,-0.0013 0.0078,-0.0036 z m 0.718302,15.94218 c -0.0059,0.0044 -0.01082,0.01159 -0.01603,0.01654 -0.0016,0.0013 -0.0019,0.0078 -5.29e-4,0.0062 0.0058,-0.0072 0.01114,-0.01513 0.01654,-0.02273 z" />
    </clipPath>
    <clipPath
       clipPathUnits="userSpaceOnUse"
       id="clipPath260">
      <path
         id="path261"
         style="fill:#ff0000;fill-opacity:1;fill-rule:nonzero;stroke:none;stroke-width:0.264583"
         d="M 34.991146,76.999952 V 103.99985 H 60.999894 V 76.999952 H 48.690051 c 0.0021,0.0013 0.0042,0.0027 0.0062,0.0041 0.01558,0.01236 0.03068,0.02553 0.04599,0.03824 0.008,0.0074 0.01757,0.01241 0.02687,0.0186 0.0019,5.29e-4 0.01103,0.0082 0.01704,0.01344 0.01413,0.0051 0.02849,0.01037 0.04289,0.01498 0.01468,-0.0068 0.02889,-0.01392 0.04754,-0.0186 0.117951,-0.02964 0.240363,-0.03436 0.361217,-0.04186 0.118663,-0.0069 0.237757,-0.01161 0.356568,-0.01497 0.05401,-0.0016 0.107717,-0.0024 0.161748,-0.0031 0.0076,-5.29e-4 0.01513,-5.29e-4 0.02222,-5.29e-4 0.04956,-2.65e-4 0.08843,0.01119 0.135393,0.03617 0.02442,0.01498 0.04885,0.02971 0.07338,0.04444 0.09394,0.0021 0.187917,0.0038 0.281635,0.01035 0.218626,0.01598 0.436716,0.04796 0.648539,0.105421 0.01823,0.0049 0.0362,0.0105 0.05426,0.01601 0.04636,0.0037 0.09277,0.0072 0.139009,0.01188 0.06834,0.0089 0.137216,0.01529 0.205156,0.02687 0.06139,0.01045 0.122031,0.02405 0.182417,0.03927 0.173511,0.04375 0.336796,0.09583 0.470257,0.222724 0.02666,0.02535 0.04099,0.06091 0.06149,0.09147 0.0013,0.003 0.0029,0.0058 0.0041,0.0088 0.0048,0.0019 0.0097,0.0033 0.01447,0.0052 0.01206,0.0048 0.03506,0.0051 0.04134,0.01344 0.0032,-0.01257 0.0066,-0.02508 0.01704,-0.02429 0.04113,0.0031 0.04055,0.0021 0.0708,0.0031 -0.08955,-0.122703 -0.03478,-0.237892 0.0646,-0.244946 0.05022,-0.0036 0.111935,0.02059 0.171567,0.08527 0.0698,0.07571 0.08629,0.186602 0.104902,0.283702 0.0019,0.01053 0.0035,0.02098 0.0052,0.03152 7.94e-4,-0.0021 0.0016,-0.0045 0.0021,-0.0057 0.0042,-0.09613 0.04315,-0.156147 0.09095,-0.180867 -0.0035,-0.120663 0.05636,-0.186584 0.125056,-0.185002 0.0673,0.0016 0.139753,0.06467 0.15813,0.195337 0.01791,0.127156 0.02156,0.255786 0.02687,0.383955 0.0086,0.216358 0.01278,0.432583 0.0072,0.649055 -0.0021,0.06961 -0.0048,0.139224 -0.0083,0.208775 -7.94e-4,0.01513 -0.0019,0.03036 -0.0026,0.04547 -5.29e-4,0.01177 2.65e-4,0.0236 -0.0021,0.03514 -0.0047,0.02225 -0.01273,0.0438 -0.01913,0.06563 l -0.07906,0.07493 c -0.204497,0.193434 0.07267,-0.465178 -0.118338,-0.258385 -0.02053,0.02223 -0.04096,0.0444 -0.06149,0.06667 -0.0019,0.01177 0.0056,0.03134 -0.0057,0.03514 -0.01077,0.0036 0.0013,-0.02273 0.0021,-0.03411 7.94e-4,-0.01463 0.0013,-0.02931 0.0021,-0.04392 0.0034,-0.06722 0.0062,-0.13426 0.0083,-0.201538 0.0044,-0.187341 1.53e-4,-0.374917 -0.0062,-0.56224 -0.02794,0.02995 -0.06118,0.05414 -0.09198,0.08113 -0.0027,0.06656 -0.01228,0.132535 -0.04237,0.192754 -0.0067,0.01349 -0.01413,0.02709 -0.02429,0.03824 -0.01738,0.01905 -0.03862,0.03401 -0.05788,0.05116 -0.03809,0.02445 -0.07969,0.03347 -0.123507,0.03927 -0.135718,0.01805 -0.207307,-0.07533 -0.21549,-0.162779 -0.01672,-0.02148 -0.03478,-0.042 -0.04754,-0.06615 -0.01204,0.0093 -0.02466,0.01656 -0.03773,0.01241 -0.0706,-0.02249 -0.127582,-0.07622 -0.191201,-0.114205 -0.01492,-0.05387 -0.0088,-0.107992 -0.0041,-0.162263 -0.06034,-0.0024 -0.105434,-0.02098 -0.134358,-0.04806 -0.162603,-0.0033 -0.325049,-0.01159 -0.48731,-0.02066 -0.03837,-0.0024 -0.101573,-0.004 -0.143142,-0.01241 -0.015,-0.003 -0.04496,0.0024 -0.04444,-0.01291 0.0026,-0.07558 0.01418,-0.151659 0.03617,-0.224274 -0.117938,-0.03256 -0.235911,-0.06641 -0.352433,-0.10387 -0.04048,-0.01344 -0.08219,-0.02701 -0.124024,-0.04134 -0.0045,0.01839 -0.03867,0.01736 -0.0584,0.02326 -0.02693,0.008 -0.05511,0.01103 -0.08268,0.01654 -0.177487,0.02598 -0.35692,0.03474 -0.535887,0.04444 -0.08939,0.0033 -0.184007,0.01267 -0.270266,-0.0181 -0.01646,-0.0059 -0.03203,-0.01373 -0.04806,-0.02066 -0.06322,-0.03202 -0.109752,-0.08134 -0.143661,-0.142627 -0.01069,-0.02305 -0.02286,-0.04515 -0.03256,-0.06873 -0.005,-0.01458 -0.0021,-0.02603 -0.0036,-0.03928 -0.04256,0.0019 -0.08516,0.0042 -0.12764,0.0067 -0.103489,0.0064 -0.208388,0.0095 -0.309541,0.03411 -0.164053,0.03991 -0.252095,-0.04295 -0.239263,-0.130223 -0.02334,0.0042 -0.05326,-0.003 -0.08475,-0.02739 v 5.3e-4 c 0.01434,0.02479 0.03155,0.05711 0.02479,0.08475 -0.0037,0.01516 -0.01304,0.02822 -0.01963,0.04237 -0.04185,0.0902 -0.05214,-0.05496 -0.07286,-0.104386 -0.0079,-7.94e-4 -0.01651,-0.0021 -0.02532,-0.0047 -0.003,0.0047 -0.0053,0.0064 -0.0088,0.01498 -0.005,0.01233 -0.0123,0.02418 -0.01497,0.03721 -5.29e-4,0.0031 -0.0013,0.0059 -0.0016,0.0083 -0.0026,-0.0045 -0.0051,-0.009 -0.0078,-0.01344 -0.0055,-0.0089 -0.01093,-0.01797 -0.01654,-0.02687 5e-5,0.003 0.0026,0.005 0.0021,0.0083 -0.0024,0.01386 -0.01021,0.02606 -0.01654,0.03876 0.0031,0.0062 0.0062,0.01236 0.0093,0.0186 0.0105,0.01976 0.02495,0.0669 0.0078,0.0863 -0.01849,0.02024 -0.0438,0.03476 -0.06925,0.04496 -0.0098,0.0039 -0.02061,-0.0029 -0.031,-0.0047 -0.115247,-0.01744 0.08248,-0.09965 0.0739,-0.127641 -0.01471,0.02701 -0.02511,0.01527 -0.03411,-0.0093 -7.93e-4,-1.3e-5 -0.0016,3e-6 -0.0026,0 -0.0047,-1.6e-5 -0.01013,-0.0024 -0.01394,0 -0.01471,0.0094 -0.02379,0.01479 -0.03307,0.02119 0.0081,0.01815 0.0057,0.0316 -0.01963,0.03256 -0.0013,0.0058 -0.0059,0.0085 -0.0052,0.01707 5.29e-4,0.0057 0.0075,0.01042 0.0062,0.01601 -0.0013,0.005 -0.0045,-0.0093 -0.0067,-0.01394 -0.0034,-0.007 -0.0084,-0.01318 -0.01188,-0.02016 -0.01037,-0.0013 -0.02064,-0.0024 -0.03101,-0.0036 -0.01103,-0.0048 -0.02302,-0.0088 -0.03359,-0.01447 -0.0069,-0.0038 -0.01241,-0.0092 -0.0186,-0.01394 -0.0264,-0.0205 -0.05089,-0.04346 -0.07441,-0.06718 -0.0031,0.01191 -0.0065,0.02207 -0.0093,0.03669 0.005,0.01236 0.0113,0.02416 0.01603,0.03669 0.0034,0.0089 0.0075,0.01767 0.0098,0.02687 0.0029,0.01143 0.0038,0.02299 0.0057,0.03462 -7.94e-4,0.01029 0.0034,0.0226 -0.0026,0.031 -0.03521,0.04894 -0.05708,0.0769 -0.112651,0.05426 -0.02838,-0.01156 -0.0404,-0.03141 -0.05736,-0.05323 -0.04076,-0.05245 -0.03567,-0.100836 -0.0098,-0.12454 -0.0083,-0.01823 -0.01722,-0.03641 -0.02635,-0.05426 -5.29e-4,-0.0011 -0.0011,-0.0024 -0.0016,-0.0036 -0.0052,-7.7e-5 -0.01034,7.9e-5 -0.0155,0 -0.06216,-0.0011 -0.123949,-0.0024 -0.186036,-0.0026 -0.0149,0.0072 -0.02901,0.01619 -0.04392,0.02326 -0.02127,0.0099 -0.04273,0.01968 -0.06408,0.02946 0.03779,0.0117 0.07225,0.02872 0.09198,0.06305 0.02384,0.04147 0.03484,0.09738 0.0181,0.14211 -0.01889,0.04979 -0.07604,0.07449 -0.114205,0.11162 -0.02519,0.01117 -0.04971,0.02498 -0.07596,0.03359 -0.126484,0.0414 -0.261208,0.05828 -0.39274,0.07338 -0.123351,0.01416 -0.165775,0.01667 -0.290423,0.02635 -0.201414,0.01117 -0.402764,0.02841 -0.604612,0.02791 -0.10001,-0.0027 -0.199657,-0.01445 -0.299207,-0.02379 -0.17653,-0.01413 -0.354179,-0.01741 -0.531233,-0.0186 -0.08671,-5.29e-4 -0.173236,0.0013 -0.259935,0.0016 -0.213455,0.02109 -0.426645,0.04489 -0.639235,0.07338 -0.124643,0.02511 -0.249558,0.04912 -0.374137,0.07389 -0.07273,0.01537 -0.145653,0.02932 -0.218594,0.04341 -0.0082,0.02172 -0.01336,0.0425 -0.02894,0.06615 -2.65e-4,5.29e-4 -7.94e-4,5.29e-4 -0.0011,0.0011 0.05882,0.119761 0.10981,0.24319 0.133842,0.375172 0.0053,0.03199 0.03183,0.148756 -0.0155,0.160197 -0.252957,0.06115 -0.244631,-0.0042 -0.284221,-0.138494 -0.01101,-0.03508 -0.02357,-0.06966 -0.03566,-0.104386 -0.02048,0.03763 -0.04287,0.07425 -0.06046,0.113171 -0.01773,0.04036 -0.03577,0.07782 -0.06925,0.108521 -0.01233,0.01132 -0.02567,0.02653 -0.04238,0.02739 -0.05175,0.0027 -0.103002,-0.01132 -0.154511,-0.01704 -0.01368,-0.0141 -0.03015,-0.0259 -0.04082,-0.04237 -0.01072,-0.01651 -0.01426,-0.0399 -0.0217,-0.05995 -0.05416,-0.03053 -0.08953,-0.10878 -0.06201,-0.225308 7.94e-4,-0.0035 0.0019,-0.0069 0.0026,-0.01035 -0.127468,0.156649 -0.32159,0.03547 -0.214458,-0.191204 0.0082,-0.01728 0.01558,-0.0349 0.02119,-0.05323 0.0346,-0.113609 0.103124,-0.163105 0.164333,-0.162263 5.29e-4,8e-6 0.0011,-1.6e-5 0.0016,0 -0.07593,-0.147773 -0.01429,-0.25436 0.07752,-0.256315 0.02975,-7.94e-4 0.06235,0.01127 0.09405,0.03462 0.005,-0.0029 0.0099,-0.0058 0.01497,-0.0083 0.01728,-0.114681 0.153985,-0.153038 0.274918,0.0021 0.02635,0.03363 0.04794,0.07068 0.0677,0.108521 0.03285,-0.0074 0.06578,-0.01468 0.0987,-0.0217 0.13466,-0.0289 0.181875,-0.03767 0.24443,-0.04754 0.230942,-0.05635 0.46241,-0.110177 0.695048,-0.159162 0.05162,-0.01066 0.07631,-0.01572 0.102835,-0.02119 0.01754,-0.01363 0.03617,-0.02619 0.04806,-0.03514 0.110445,-0.06137 0.235458,-0.08676 0.356568,-0.11834 0.0932,-0.02664 0.187021,-0.04896 0.282671,-0.06459 0.09004,-0.01418 0.181366,-0.01934 0.272335,-0.02326 0.07272,-0.0028 0.145304,-0.0039 0.218075,-0.0047 0.0095,0 0.01894,-0.0011 0.02842,-0.0016 -0.02878,-0.03886 -0.0033,-0.09829 0.08526,-0.108003 0.03992,-0.0044 0.08029,-0.0049 0.120407,-0.0057 0.03223,-2.62e-4 0.06439,-7.94e-4 0.09664,-0.0011 0.03224,-2.65e-4 0.06441,-5.29e-4 0.09663,0 0.0349,7.94e-4 0.06938,0.0019 0.103354,0.01035 0.0021,7.94e-4 0.0044,0.0016 0.0067,0.0026 0.0071,-0.0024 0.01503,-0.0042 0.02376,-0.0047 0.0195,-0.0011 0.04306,0.003 0.06925,0.01447 0.0108,0.0047 0.02127,0.01011 0.03152,0.01601 0.01839,0.01056 0.03237,0.02238 0.04237,0.03462 0.01085,-2.09e-4 0.02371,1.5e-5 0.0279,-0.0021 0.03304,-0.0064 0.06671,-0.0097 0.100253,-0.01188 0.02556,-0.0013 0.05091,-0.0021 0.07648,-0.0026 0.02556,-5.29e-4 0.05143,-2.64e-4 0.077,5.29e-4 0.0087,2.65e-4 0.01675,0.0046 0.02532,0.0057 0.05651,-0.01921 0.114249,-0.03491 0.170016,-0.05633 0.01839,-0.0069 0.03669,-0.0141 0.05478,-0.0217 z m 13.122195,0 c 0.0088,0.0039 0.01757,0.0087 0.02687,0.01498 -0.0043,-0.005 -0.0083,-0.01032 -0.01291,-0.01498 z m 0.68058,0.24081 c 7.94e-4,2.65e-4 0.0013,1.01e-4 0.0021,5.3e-4 0.003,0.0016 0.0011,0.0011 -0.0021,-5.3e-4 z m -0.738457,0.130744 c 7.9e-5,0.0045 5.29e-4,0.0093 0.0021,0.01447 0.0081,-0.0033 0.0046,-0.0013 -0.0021,-0.01447 z m -4.453475,0.556038 c 0.0011,0.01294 0.0026,0.02588 0.0031,0.03876 0.0064,-0.0084 0.01267,-0.01693 0.01913,-0.02532 -5.29e-4,-0.0011 -0.0013,-0.0021 -0.0021,-0.0031 -0.0083,-0.0021 -0.01498,-0.0058 -0.02016,-0.01035 z m 8.294069,0.05943 c -0.0059,0.0044 -0.01082,0.01159 -0.01603,0.01654 -0.0016,0.0013 -0.0019,0.0078 -5.29e-4,0.0062 0.0058,-0.0072 0.01114,-0.01513 0.01654,-0.02273 z" />
    </clipPath>
    <clipPath
       clipPathUnits="userSpaceOnUse"
       id="clipPath263">
      <path
         id="path264"
         style="fill:#ff0000;fill-opacity:1;fill-rule:nonzero;stroke:none;stroke-width:0.264583"
         d="M 42.900224,65.899853 V 79.270098 H 53.100118 V 65.899853 Z m 5.214668,10.936285 h 5.29e-4 5.29e-4 c 0.0019,-1.46e-4 0.0038,0 0.0057,0 0.02344,-4.5e-5 0.0518,0.01109 0.08062,0.03824 0.0315,0.02967 0.05909,0.06319 0.08785,0.0956 -0.02627,-0.05443 -0.0043,-0.100116 0.03979,-0.101804 0.02209,-7.94e-4 0.04995,0.0095 0.0801,0.03514 0.02252,0.01916 0.04154,0.04188 0.05994,0.06511 0.0064,-0.0013 0.01326,-0.0019 0.02066,-0.0021 0.0123,-2.54e-4 0.02585,0.0016 0.04082,0.0052 0.0063,0.0016 0.01196,0.0046 0.0181,0.0067 0.01402,-0.0065 0.03165,-0.01029 0.05271,-0.0098 0.0078,1.35e-4 0.01611,0.0013 0.02479,0.0026 0.02601,0.0039 0.04819,0.01839 0.06925,0.03307 0.01558,0.01236 0.03068,0.02553 0.04599,0.03824 0.008,0.0074 0.01757,0.01241 0.02687,0.0186 0.0019,5.29e-4 0.01103,0.0082 0.01704,0.01344 0.01413,0.0051 0.02849,0.01037 0.04289,0.01498 0.01469,-0.0068 0.02889,-0.01392 0.04754,-0.0186 0.117952,-0.02964 0.240364,-0.03436 0.361218,-0.04186 0.118663,-0.0069 0.237757,-0.01161 0.356568,-0.01497 0.05401,-0.0016 0.107717,-0.0024 0.161748,-0.0031 0.0076,-5.29e-4 0.01513,-5.29e-4 0.02223,-5.29e-4 0.04956,-2.65e-4 0.08843,0.01119 0.135392,0.03617 0.02289,0.01405 0.04573,0.02802 0.06873,0.04186 0.09549,0.0021 0.191024,0.0063 0.286287,0.01291 0.218628,0.01598 0.436716,0.04796 0.648539,0.105421 0.01823,0.0049 0.0362,0.0105 0.05426,0.01601 0.04636,0.0037 0.09277,0.0072 0.139009,0.01188 0.06834,0.0089 0.137216,0.01529 0.205155,0.02687 0.06139,0.01045 0.122034,0.02405 0.182417,0.03927 0.173514,0.04375 0.336786,0.09583 0.470258,0.222723 0.02666,0.02535 0.04099,0.06091 0.06149,0.09147 0.0013,0.003 0.0029,0.0058 0.0041,0.0088 0.0048,0.0019 0.0097,0.0033 0.01447,0.0052 0.01206,0.0048 0.03506,0.0051 0.04134,0.01344 0.0032,-0.01257 0.0066,-0.02508 0.01704,-0.02429 0.04113,0.0031 0.04055,0.0021 0.0708,0.0031 -0.08955,-0.122709 -0.03476,-0.237892 0.06459,-0.244946 0.05022,-0.0036 0.111935,0.02058 0.171566,0.08527 0.0698,0.07571 0.08629,0.186603 0.104902,0.283702 0.0019,0.01053 0.0035,0.02098 0.0052,0.03152 7.94e-4,-0.0021 0.0016,-0.0045 0.0021,-0.0057 0.0042,-0.09613 0.04315,-0.156146 0.09095,-0.180866 -0.0035,-0.120666 0.05636,-0.186587 0.125055,-0.185002 0.0673,0.0016 0.139753,0.06467 0.158131,0.195336 0.01791,0.127156 0.02156,0.255786 0.02687,0.383956 0.0086,0.216357 0.01278,0.432585 0.0072,0.649054 -0.0021,0.06961 -0.0048,0.139224 -0.0083,0.208775 -7.94e-4,0.01513 -0.0019,0.03036 -0.0026,0.04547 -5.29e-4,0.01177 2.65e-4,0.0236 -0.0021,0.03514 -0.0047,0.02225 -0.01273,0.0438 -0.01913,0.06563 l -0.07906,0.07493 c -0.204497,0.193429 0.07267,-0.465177 -0.118338,-0.258384 -0.02053,0.02222 -0.04096,0.04431 -0.06149,0.06666 -0.0019,0.01177 0.0056,0.03134 -0.0057,0.03514 -0.01077,0.0036 0.0013,-0.02273 0.0021,-0.03411 7.94e-4,-0.01463 0.0013,-0.02931 0.0021,-0.04392 0.0034,-0.06722 0.0062,-0.134261 0.0083,-0.201539 0.0044,-0.187687 0.0013,-0.375608 -0.0052,-0.563274 -0.0292,0.0314 -0.06126,0.06019 -0.09354,0.08837 -0.003,0.06444 -0.0127,0.128215 -0.04186,0.186553 -0.0067,0.01349 -0.01413,0.02709 -0.02429,0.03824 -0.01738,0.01905 -0.03862,0.03401 -0.05788,0.05116 -0.03809,0.02445 -0.07969,0.03347 -0.123507,0.03927 -0.132512,0.01762 -0.204052,-0.07099 -0.214974,-0.156581 -0.01805,-0.02257 -0.03451,-0.04668 -0.04806,-0.07234 -0.01204,0.0093 -0.02466,0.01656 -0.03772,0.01241 -0.0706,-0.02249 -0.127583,-0.07622 -0.191202,-0.114204 -0.01492,-0.05387 -0.0088,-0.107993 -0.0041,-0.162264 -0.06034,-0.0024 -0.105431,-0.02098 -0.134358,-0.04806 -0.162603,-0.0033 -0.325049,-0.01159 -0.48731,-0.02066 -0.03837,-0.0024 -0.101573,-0.004 -0.143142,-0.01241 -0.015,-0.003 -0.04496,0.0024 -0.04444,-0.01291 0.0026,-0.07558 0.01418,-0.151656 0.03617,-0.224274 -0.117938,-0.03256 -0.235911,-0.06641 -0.352433,-0.10387 -0.04048,-0.01344 -0.08219,-0.02701 -0.124024,-0.04134 -0.0045,0.01839 -0.03867,0.01736 -0.0584,0.02326 -0.02693,0.008 -0.05511,0.01103 -0.08268,0.01654 -0.177496,0.02598 -0.356921,0.03474 -0.535888,0.04444 -0.08938,0.0033 -0.184007,0.01267 -0.270266,-0.0181 -0.01646,-0.0059 -0.03203,-0.01373 -0.04806,-0.02066 -0.06322,-0.03202 -0.109752,-0.08134 -0.143661,-0.142626 -0.01069,-0.02305 -0.02286,-0.04515 -0.03256,-0.06873 -0.0047,-0.01365 -0.0067,-0.02627 -0.0083,-0.03876 -0.041,0.0019 -0.08206,0.0038 -0.122989,0.0062 -0.103489,0.0064 -0.208388,0.0095 -0.309541,0.0341 -0.164052,0.03991 -0.252095,-0.04295 -0.239263,-0.130223 -0.02334,0.0042 -0.05326,-0.003 -0.08475,-0.02739 v 5.3e-4 c 0.01434,0.02479 0.03156,0.05711 0.02479,0.08475 -0.0037,0.01516 -0.01304,0.02822 -0.01963,0.04237 -0.04185,0.0902 -0.05214,-0.05496 -0.07286,-0.104386 -0.0079,-7.93e-4 -0.01651,-0.0021 -0.02532,-0.0047 -0.003,0.0047 -0.0053,0.0064 -0.0088,0.01497 -0.005,0.01233 -0.0123,0.02418 -0.01498,0.03721 -5.29e-4,0.0031 -0.0013,0.0059 -0.0016,0.0083 7.93e-4,0.0013 0.0019,0.0027 0.0026,0.0041 0.0058,0.01098 -0.0044,0.01466 -0.0026,-0.0041 -0.0026,-0.0045 -0.0051,-0.009 -0.0078,-0.01344 -0.005,-0.0081 -0.0099,-0.01625 -0.01497,-0.02429 -9.8e-5,0.0021 7.94e-4,0.0036 5.29e-4,0.0057 -0.0024,0.01386 -0.01021,0.02606 -0.01654,0.03876 0.0031,0.0062 0.0062,0.01236 0.0093,0.0186 0.0105,0.01976 0.02495,0.0669 0.0078,0.0863 -0.01849,0.02024 -0.0438,0.03476 -0.06925,0.04496 -0.0098,0.0039 -0.02061,-0.0029 -0.031,-0.0047 -0.115258,-0.01744 0.08248,-0.09965 0.0739,-0.12764 -0.01471,0.02701 -0.02511,0.01527 -0.0341,-0.0093 -7.93e-4,-1.4e-5 -0.0016,2e-6 -0.0026,0 -0.0047,-1.6e-5 -0.01013,-0.0024 -0.01394,0 -0.01471,0.0094 -0.02379,0.01479 -0.03307,0.02119 0.0085,0.01894 0.0054,0.0327 -0.02326,0.03256 -7.94e-4,0.0052 -0.0021,0.01 -0.0016,0.01707 5.29e-4,0.0057 0.0075,0.01042 0.0062,0.01601 -0.0013,0.005 -0.0045,-0.0093 -0.0067,-0.01394 -0.0033,-0.0068 -0.0069,-0.01339 -0.01035,-0.02016 -5.29e-4,-5.8e-5 -0.0011,6.3e-5 -0.0016,0 -0.01037,-0.0013 -0.02064,-0.0024 -0.03101,-0.0036 -0.01103,-0.0048 -0.02302,-0.0088 -0.03359,-0.01447 -0.0069,-0.0038 -0.01241,-0.0092 -0.0186,-0.01394 -0.02641,-0.0205 -0.05091,-0.04346 -0.07441,-0.06718 -0.0031,0.01191 -0.0065,0.02207 -0.0093,0.03669 0.005,0.01236 0.0113,0.02416 0.01603,0.03669 0.0034,0.0089 0.0075,0.01767 0.0098,0.02687 0.0029,0.01143 0.0038,0.02299 0.0057,0.03462 -7.94e-4,0.01029 0.0034,0.02259 -0.0026,0.031 -0.03521,0.04894 -0.05708,0.0769 -0.112651,0.05426 -0.02838,-0.01156 -0.0404,-0.03141 -0.05736,-0.05323 -0.04076,-0.05245 -0.03567,-0.100835 -0.0098,-0.124539 -0.0083,-0.01823 -0.01722,-0.03641 -0.02635,-0.05426 -5.29e-4,-0.0011 -0.0011,-0.0024 -0.0016,-0.0036 -0.0052,-8e-5 -0.01035,7.9e-5 -0.0155,0 -0.06095,-0.0011 -0.121547,-0.0024 -0.182419,-0.0026 -0.01587,0.0076 -0.03167,0.01574 -0.04754,0.02326 -0.02127,0.0099 -0.04273,0.01968 -0.06408,0.02946 0.03778,0.01169 0.07174,0.02873 0.09147,0.06305 0.02384,0.04147 0.03538,0.09738 0.0186,0.14211 -0.01889,0.04979 -0.07604,0.07449 -0.114205,0.11162 -0.02519,0.01117 -0.05022,0.02498 -0.07648,0.03359 -0.126484,0.0414 -0.261212,0.05828 -0.392739,0.07338 -0.123354,0.01416 -0.165775,0.01667 -0.290423,0.02635 -0.201414,0.01117 -0.402767,0.02839 -0.604615,0.02791 -0.100007,-0.0027 -0.199655,-0.01445 -0.299207,-0.02379 -0.17653,-0.01413 -0.353666,-0.01741 -0.530714,-0.0186 -0.08671,-5.3e-4 -0.173752,0.0013 -0.260451,0.0016 -0.213455,0.02109 -0.426648,0.04489 -0.639238,0.07338 -0.124643,0.02511 -0.249558,0.04905 -0.374137,0.0739 -0.07101,0.015 -0.142206,0.02861 -0.213424,0.04238 -0.0081,0.02148 -0.01823,0.04383 -0.03359,0.06718 -2.65e-4,5.29e-4 -0.0024,5.29e-4 -0.0026,0.0011 0.05882,0.119761 0.109807,0.243189 0.133842,0.375171 0.0053,0.03199 0.03234,0.148757 -0.01498,0.160198 -0.252957,0.06115 -0.245147,-0.0042 -0.284736,-0.138494 -0.01154,-0.03679 -0.0245,-0.07314 -0.03721,-0.109553 -0.0213,0.03867 -0.04078,0.07822 -0.05891,0.118337 -0.01773,0.04036 -0.03577,0.07782 -0.06925,0.108522 -0.01233,0.01132 -0.02566,0.02653 -0.04237,0.02739 -0.05175,0.0027 -0.103003,-0.01132 -0.154512,-0.01704 -0.01368,-0.0141 -0.03016,-0.0259 -0.04082,-0.04237 -0.01244,-0.01916 -0.02238,-0.04138 -0.03049,-0.06511 -0.04912,-0.03378 -0.07924,-0.109972 -0.05323,-0.220142 7.94e-4,-0.0035 0.0024,-0.0069 0.0031,-0.01035 -0.127466,0.156649 -0.321588,0.03547 -0.214456,-0.191204 0.0082,-0.01728 0.01558,-0.03489 0.02119,-0.05323 0.0346,-0.113609 0.103637,-0.163105 0.164846,-0.162264 -0.07623,-0.147962 -0.01331,-0.254359 0.07855,-0.256315 0.02989,-7.93e-4 0.06272,0.01053 0.09457,0.03411 0.0048,-0.0028 0.0096,-0.0053 0.01447,-0.0078 0.01728,-0.114681 0.153985,-0.153051 0.274918,0.0021 0.02635,0.03363 0.04843,0.07068 0.06821,0.108522 0.03285,-0.0074 0.06527,-0.01469 0.09819,-0.0217 0.13466,-0.0289 0.182391,-0.03768 0.244946,-0.04754 0.230942,-0.05635 0.461894,-0.110175 0.694531,-0.159163 0.05162,-0.01066 0.07631,-0.01572 0.102836,-0.02119 0.01754,-0.01363 0.03671,-0.02619 0.04857,-0.03514 0.110453,-0.06137 0.235458,-0.08676 0.356568,-0.11834 0.0932,-0.02664 0.187021,-0.04896 0.282671,-0.0646 0.09004,-0.01418 0.181366,-0.01934 0.272335,-0.02326 0.07272,-0.0028 0.145301,-0.0039 0.218072,-0.0047 0.0097,0 0.01929,-0.0011 0.02894,-0.0016 -0.02878,-0.03886 -0.0033,-0.09829 0.08526,-0.108003 0.03992,-0.0044 0.08029,-0.0049 0.120407,-0.0057 0.03223,-2.65e-4 0.06439,-7.94e-4 0.09664,-0.0011 0.03224,-2.64e-4 0.06441,-5.29e-4 0.09663,0 0.0349,7.94e-4 0.06938,0.0019 0.103354,0.01035 0.0021,7.93e-4 0.0044,0.0016 0.0067,0.0026 0.0071,-0.0024 0.01503,-0.0042 0.02376,-0.0047 0.0195,-0.0011 0.04306,0.003 0.06925,0.01447 0.0108,0.0047 0.02127,0.01011 0.03152,0.01601 0.01839,0.01056 0.03237,0.02238 0.04238,0.03462 0.01034,-2.27e-4 0.02278,-4.8e-5 0.02687,-0.0021 0.03304,-0.0064 0.06671,-0.0097 0.100251,-0.01188 0.02556,-0.0013 0.05091,-0.0021 0.07648,-0.0026 0.02556,-5.29e-4 0.05143,-2.65e-4 0.077,5.29e-4 0.01016,5.29e-4 0.01995,0.0029 0.02997,0.0041 0.05504,-0.01852 0.111117,-0.03394 0.165365,-0.05478 0.04907,-0.01828 0.09709,-0.0391 0.143661,-0.06305 0.01421,-0.0074 0.02959,-0.01357 0.04083,-0.02532 0.02729,-0.02869 0.05474,-0.04118 0.07803,-0.04238 0.02474,-0.0013 0.04487,0.01048 0.05478,0.02997 0.04054,-0.01519 0.08155,-0.02928 0.124024,-0.03824 0.01291,-0.0027 0.02468,-0.0041 0.03566,-0.0041 0.03714,-1.6e-5 0.06243,0.0145 0.07493,0.03411 0.003,-5.29e-4 0.0064,-7.94e-4 0.0093,-0.0011 0.0235,-0.0021 0.04241,0.0054 0.05478,0.0186 0.0011,-5.29e-4 0.0021,1.01e-4 0.0031,-5.29e-4 -0.0049,-0.0495 0.02096,-0.08179 0.05374,-0.08475 0.02619,-0.0024 0.05681,0.01521 0.07958,0.05633 -0.0028,-0.03544 0.01916,-0.06242 0.05271,-0.06511 z m -0.01963,0.132291 c 0.0045,0.0098 0.0089,0.01966 0.01344,0.02945 h 5.29e-4 c 0.0091,0.0037 0.01815,0.0092 0.02791,0.0155 -0.01003,-0.01132 -0.01953,-0.02315 -0.03049,-0.03359 -0.0041,-0.0039 -0.0079,-0.0075 -0.01138,-0.01138 z m 0.698664,0.272333 c 7.94e-4,2.65e-4 0.0013,1.01e-4 0.0021,5.3e-4 0.003,0.0016 0.0011,0.0011 -0.0021,-5.3e-4 z m -0.738458,0.130744 c 8.5e-5,0.0045 5.3e-4,0.0093 0.0021,0.01447 0.0081,-0.0033 0.0046,-0.0013 -0.0021,-0.01447 z m -4.453474,0.556038 c 0.0011,0.01294 0.0026,0.02588 0.0031,0.03876 0.0064,-0.0084 0.01267,-0.01693 0.01913,-0.02532 -5.29e-4,-0.0011 -0.0013,-0.0021 -0.0021,-0.0031 -0.0083,-0.0021 -0.01497,-0.0058 -0.02016,-0.01035 z m 8.294068,0.05943 c -0.0059,0.0044 -0.01082,0.01159 -0.01603,0.01654 -0.0016,0.0013 -0.0019,0.0078 -5.3e-4,0.0062 0.0058,-0.0072 0.01114,-0.01513 0.01654,-0.02273 z" />
    </clipPath>
  </defs>
  <g
     inkscape:label="Ebene 1"
     inkscape:groupmode="layer"
     id="layer1">
    <rect
       style="fill:none;stroke:#cccccc;stroke-width:0.135;stroke-dasharray:none;stroke-opacity:1"
       id="rect271"
       width="16.910534"
       height="16.910534"
       x="-48.023232"
       y="4.3026695"
       transform="rotate(-135)"
       sodipodi:type="rect" />
    <path
       style="fill:none;stroke:#cccccc;stroke-width:0.2;stroke-dasharray:none;stroke-opacity:1"
       d="M 43.000001,79.26995 V 65.999997 h 10.000001 l -1e-6,13.000001"
       id="path57"
       sodipodi:nodetypes="cccc"
       clip-path="url(#clipPath263)"
       transform="rotate(-90,7.0000037,59.957552)" />
    <ellipse
       style="fill:none;stroke:#b06500;stroke-width:0.3;stroke-dasharray:none;stroke-opacity:1"
       id="path3"
       cx="-20.957556"
       cy="3.0424521"
       rx="1"
       ry="0.99999994"
       transform="rotate(-90)" />
    <ellipse
       style="fill:none;stroke:#cccccc;stroke-width:0.183506;stroke-dasharray:none;stroke-opacity:1"
       id="path56"
       cx="47.995579"
       cy="90.5"
       rx="12.912668"
       ry="13.408246"
       clip-path="url(#clipPath260)"
       transform="rotate(-90,7.0000037,59.957552)" />
    <ellipse
       style="fill:none;stroke:#b06500;stroke-width:0.3;stroke-dasharray:none;stroke-opacity:1"
       id="path4"
       cx="-16.957556"
       cy="3.0424521"
       rx="1"
       ry="0.99999994"
       transform="rotate(-90)" />
    <ellipse
       style="fill:none;stroke:#4560d7;stroke-width:0.3;stroke-dasharray:none;stroke-opacity:1"
       id="path5"
       cx="-20.957556"
       cy="16.042448"
       rx="1"
       ry="0.99999994"
       transform="rotate(-90)" />
    <ellipse
       style="fill:none;stroke:#4560d7;stroke-width:0.3;stroke-dasharray:none;stroke-opacity:1"
       id="path6"
       cx="-16.957556"
       cy="16.042448"
       rx="1"
       ry="0.99999994"
       transform="rotate(-90)" />
    <ellipse
       style="fill:none;stroke:#000000;stroke-width:0.3;stroke-dasharray:none;stroke-opacity:1"
       id="path7"
       cx="-20.957556"
       cy="8.0424519"
       rx="1"
       ry="0.99999994"
       transform="rotate(-90)" />
    <ellipse
       style="fill:none;stroke:#000000;stroke-width:0.3;stroke-dasharray:none;stroke-opacity:1"
       id="path8"
       cx="-16.957556"
       cy="8.0424519"
       rx="1"
       ry="0.99999994"
       transform="rotate(-90)" />
    <path
       style="fill:none;stroke:#4560d7;stroke-width:0.2;stroke-dasharray:none;stroke-opacity:1"
       d="m 16.042442,15.957555 5e-6,-3.999999 h 7.000002 v 3.999999"
       id="path9" />
    <path
       style="fill:none;stroke:#4560d7;stroke-width:0.2;stroke-dasharray:none;stroke-opacity:1"
       d="m 16.042447,21.957557 v 3.999999 h 7.000002 v -3.999999"
       id="path10" />
    <path
       style="fill:none;stroke:#4560d7;stroke-width:0.2;stroke-dasharray:none;stroke-opacity:1"
       d="m 23.042449,21.957555 c 3,-1 -2,-2.138084 -2,-1 0,1 3,0.05409 3,-1 0,-1.054092 -2.999999,-2 -3,-1 -1e-6,1.054092 3,0.05409 3,-1 0,-1.054092 -3,-2.000001 -3,-1 0,1 5,0 2,-1"
       id="path11"
       sodipodi:nodetypes="csssssc" />
    <path
       style="fill:none;stroke:#000000;stroke-width:0.2;stroke-dasharray:none;stroke-opacity:1"
       d="m 8.0424479,21.957557 v 6.999999 H 37.042447"
       id="path12" />
    <path
       style="fill:none;stroke:#000000;stroke-width:0.2;stroke-dasharray:none;stroke-opacity:1"
       d="M 51.000001,60.999996 H 59 v 29 l -8.999999,10e-7"
       id="path13"
       sodipodi:nodetypes="cccc"
       clip-path="url(#clipPath120)"
       transform="matrix(0,-0.8791471,1,0,-52.957549,60.914911)" />
    <path
       style="fill:none;stroke:#000000;stroke-width:0.188562;stroke-dasharray:none;stroke-opacity:1"
       d="m 37.042447,28.957556 10e-7,-8.000001 h -9.999999"
       id="path14"
       sodipodi:nodetypes="ccc" />
    <path
       d="m 37.042448,16.957555 c -3.333332,-1e-6 -6.666667,-1e-6 -9.999999,0"
       style="fill:none;stroke:#000000;stroke-width:0.2;stroke-dasharray:none;stroke-opacity:1"
       id="path1"
       sodipodi:nodetypes="cc" />
    <path
       d="m 47.042448,16.957555 h -10"
       style="fill:none;stroke:#000000;stroke-width:0.2;stroke-dasharray:none;stroke-opacity:1"
       id="path1-7"
       sodipodi:nodetypes="cc" />
    <path
       d="m 47.042444,20.957556 -9.999992,-2e-6"
       style="fill:none;stroke:#000000;stroke-width:0.2;stroke-dasharray:none;stroke-opacity:1"
       id="path1-2" />
    <ellipse
       style="fill:none;stroke:#000000;stroke-width:0.2;stroke-dasharray:none;stroke-opacity:1"
       id="path15"
       cx="-19.586149"
       cy="12.042457"
       rx="2"
       ry="1.9999999"
       transform="rotate(-90)" />
    <path
       style="fill:none;stroke:#000000;stroke-width:0.2;stroke-dasharray:none;stroke-opacity:1"
       d="m 8.0424479,23.957555 h 3.9999991 l 2e-6,-2.47617"
       id="path16"
       sodipodi:nodetypes="ccc" />
    <path
       style="fill:none;stroke:#000000;stroke-width:0.2;stroke-dasharray:none;stroke-opacity:1"
       d="m 12.042449,17.586151 -2e-6,-3.628597 H 8.0424479"
       id="path17"
       sodipodi:nodetypes="ccc" />
    <path
       style="fill:none;stroke:#000000;stroke-width:0.244878;stroke-dasharray:none;stroke-opacity:1"
       d="m 46.015867,66.98413 4.897557,-4.897554"
       id="path18"
       clip-path="url(#clipPath47)"
       transform="translate(-36.136199,-44.89138)" />
    <path
       style="fill:none;stroke:#000000;stroke-width:0.2;stroke-dasharray:none;stroke-opacity:1"
       d="m 14.030363,18.969636 v 0 l 0.467717,-1.467715 -1.467718,0.467716"
       id="path19" />
    <ellipse
       style="fill:none;stroke:#b06500;stroke-width:0.2;stroke-dasharray:none;stroke-opacity:1"
       id="path50"
       cx="-34.957558"
       cy="37.042454"
       rx="2"
       ry="13.999999"
       transform="rotate(-90)" />
    <ellipse
       style="fill:none;stroke:#b06500;stroke-width:0.2;stroke-dasharray:none;stroke-opacity:1"
       id="path50-1"
       cx="-33.957558"
       cy="37.042454"
       rx="2"
       ry="13.999999"
       transform="rotate(-90)" />
    <ellipse
       style="fill:none;stroke:#b06500;stroke-width:0.2;stroke-dasharray:none;stroke-opacity:1"
       id="path50-7"
       cx="-32.957558"
       cy="37.042454"
       rx="2"
       ry="13.999999"
       transform="rotate(-90)" />
    <ellipse
       style="fill:none;stroke:#b06500;stroke-width:0.2;stroke-dasharray:none;stroke-opacity:1"
       id="path50-9"
       cx="-4.9575577"
       cy="37.042454"
       rx="2"
       ry="13.999999"
       transform="rotate(-90)" />
    <ellipse
       style="fill:none;stroke:#b06500;stroke-width:0.2;stroke-dasharray:none;stroke-opacity:1"
       id="path50-1-2"
       cx="-3.9575574"
       cy="37.042454"
       rx="2"
       ry="13.999999"
       transform="rotate(-90)" />
    <ellipse
       style="fill:none;stroke:#b06500;stroke-width:0.2;stroke-dasharray:none;stroke-opacity:1"
       id="path50-7-7"
       cx="-2.9575574"
       cy="37.042454"
       rx="2"
       ry="13.999999"
       transform="rotate(-90)" />
    <path
       style="fill:none;stroke:#b06500;stroke-width:0.2;stroke-dasharray:none;stroke-opacity:1"
       d="M 3.0424499,15.957555 V 3.9575561 H 23.042449"
       id="path51" />
    <path
       style="fill:none;stroke:#b06500;stroke-width:0.199999;stroke-dasharray:none;stroke-opacity:1"
       d="m 49.999999,5.7706877 0.0196,26.4364473"
       id="path52"
       sodipodi:nodetypes="cc" />
    <path
       style="fill:none;stroke:#b06500;stroke-width:0.2;stroke-dasharray:none;stroke-opacity:1"
       d="M 23.040448,33.851491 H 3.0444309 l -0.002,-4.893936"
       id="path53"
       sodipodi:nodetypes="ccc" />
    <ellipse
       style="fill:none;stroke:#b06500;stroke-width:0.2;stroke-dasharray:none;stroke-opacity:1"
       id="path271"
       cx="-26.957556"
       cy="3.0424483"
       rx="2"
       ry="1.9999999"
       transform="rotate(-90)" />
    <path
       style="fill:none;stroke:#b06500;stroke-width:0.2;stroke-dasharray:none;stroke-opacity:1"
       d="M 3.0424499,24.957556 V 21.957557"
       id="path272" />
    <text
       xml:space="preserve"
       style="font-weight:bold;font-size:1.41111px;font-family:sans-serif;-inkscape-font-specification:'sans-serif Bold';text-align:start;letter-spacing:0.129646px;word-spacing:0px;writing-mode:lr-tb;direction:ltr;text-anchor:start;fill:none;stroke:#b06500;stroke-width:0.2;stroke-dasharray:none;stroke-opacity:1"
       x="34"
       y="49.569233"
       id="text272"><tspan
         id="tspan272"
         style="stroke-width:0.2"
         sodipodi:role="line"
         x="34"
         y="49.569233" /></text>
    <text
       xml:space="preserve"
       transform="matrix(0.1183405,0,0,0.14540887,-12.40197,-0.86819369)"
       id="text273"
       style="font-weight:bold;font-size:21.3333px;font-family:sans-serif;-inkscape-font-specification:'sans-serif Bold';text-align:start;letter-spacing:0.49px;word-spacing:0px;writing-mode:lr-tb;direction:ltr;white-space:pre;shape-inside:url(#rect273);fill:#b06500;fill-opacity:1;stroke:#b06500;stroke-width:0.755906;stroke-dasharray:none;stroke-opacity:1"><tspan
         x="120.94531"
         y="199.11731"
         id="tspan1">A</tspan></text>
    <text
       xml:space="preserve"
       transform="matrix(0.0573527,0,0,0.07725394,2.3293246,4.4811514)"
       id="text274"
       style="font-weight:bold;font-size:21.3333px;font-family:sans-serif;-inkscape-font-specification:'sans-serif Bold';text-align:start;letter-spacing:0.49px;word-spacing:0px;writing-mode:lr-tb;direction:ltr;white-space:pre;shape-inside:url(#rect274);fill:#000000;fill-opacity:1;stroke:#000000;stroke-width:0.755906;stroke-dasharray:none;stroke-opacity:1"><tspan
         x="151.18164"
         y="200.88098"
         id="tspan2">V</tspan></text>
  </g>
</svg>
